<?xml version="1.0" standalone="no"?>
<!DOCTYPE svg PUBLIC "-//W3C//DTD SVG 1.1//EN" "http://www.w3.org/Graphics/SVG/1.1/DTD/svg11.dtd" >
<svg xmlns="http://www.w3.org/2000/svg" xmlns:xlink="http://www.w3.org/1999/xlink" version="1.1">
<metadata>
Created by FontForge 20141024 at Thu Mar 17 04:36:59 2016
 By Jimmy Warting
(c) the.bend aka Dimitri Castrique 2007, www.thebend.be
</metadata>
<defs>
<font id="QlassikMedium" horiz-adv-x="444" >
  <font-face 
    font-family="Qlassik Medium"
    font-weight="500"
    font-stretch="normal"
    units-per-em="1000"
    panose-1="5 7 0 0 0 0 0 0 0 0"
    ascent="800"
    descent="-200"
    x-height="474"
    cap-height="664"
    bbox="-67 -256 954 915"
    underline-thickness="50"
    underline-position="-50"
    unicode-range="U+000D-FB02"
  />
<missing-glyph horiz-adv-x="227" 
 />
    <glyph glyph-name=".notdef" horiz-adv-x="227" 
 />
    <glyph glyph-name=".null" horiz-adv-x="0" 
 />
    <glyph glyph-name=".null" horiz-adv-x="0" 
 />
    <glyph glyph-name="nonmarkingreturn" unicode="&#xd;" horiz-adv-x="227" 
 />
    <glyph glyph-name="space" unicode=" " horiz-adv-x="227" 
 />
    <glyph glyph-name="numbersign" unicode="#" 
d="M32 203q0 15 1 20q-5 7 -5 11q0 2 5 13.5t8 17.5h60q5 30 8.5 59.5t8.5 59.5h-67v19q-4 7 -4 11q0 1 1.5 5.5t4 10t4.5 10t3 6.5h66q3 16 2.5 35t5 34.5t20 26t47.5 10.5q4 -4 4 -11q0 -22 -5.5 -47t-9.5 -48h93q2 15 1.5 33.5t5 34.5t20.5 27t48 11q3 -3 3 -10
q0 -23 -5.5 -47.5t-8.5 -48.5h58v-11t-1 -8q5 -8 5 -13q0 -2 -4.5 -13.5t-8.5 -16.5h-58q-4 -30 -8 -59.5t-8 -59.5h67v-19q4 -7 4 -12l-1.5 -4.5t-3.5 -10t-4 -10.5t-3 -6h-68q-3 -18 -2.5 -39.5t-5 -39.5t-20 -30t-47.5 -12q-4 3 -4 11q0 26 6 55t11 55h-95
q-2 -14 -4 -34.5t-5.5 -39.5t-10 -32.5t-16.5 -13.5q-8 0 -19.5 2.5t-25.5 5.5q5 28 9 55.5t9 56.5h-61zM181 384q-4 -30 -8 -59.5t-8 -59.5h94q4 30 7.5 59.5t8.5 59.5h-94z" />
    <glyph glyph-name="dollar" unicode="$" 
d="M329 275q31 -27 45 -56.5t14 -67.5q0 -60 -35 -101t-103 -53l-10 -84q0 -21 -18 -26.5t-56 -5.5l10 112q-42 2 -69.5 10.5t-40.5 19.5q-12 9 -12 19q0 6 1.5 14t4 17t6 17t7.5 13q21 -16 52.5 -25.5t67.5 -9.5q45 0 73 17.5t28 59.5q0 28 -14 50.5t-50 51.5
q-11 11 -24 22.5t-27 23.5q-22 18 -41 34t-33 32q-25 28 -34.5 52t-9.5 48q0 22 7.5 43.5t23.5 39.5t41 31t60 19l10 86q0 21 19 26.5t55 5.5l-10 -116q48 -3 73 -14.5t31 -19.5q0 -10 -4.5 -24.5t-12.5 -25.5q-3 -2 -11 -2t-17 4q-15 6 -34.5 10t-42.5 4q-44 0 -69.5 -17.5
t-25.5 -52.5v-4q3 -16 12.5 -30t24.5 -29q17 -17 36 -33t41 -33q17 -14 32 -26t29 -26z" />
    <glyph glyph-name="percent" unicode="%" horiz-adv-x="700" 
d="M44 482q0 37 8.5 69.5t26 55.5t43.5 36.5t61 13.5h1q30 0 54 -8.5t41.5 -28.5t27 -53.5t9.5 -82.5q0 -80 -34 -128.5t-103 -48.5q-31 0 -56 8.5t-42.5 28.5t-27 54t-9.5 84zM384 162q0 38 9 70.5t26.5 56t43.5 37t61 13.5h1q30 0 54 -9t41.5 -29.5t26.5 -54t9 -82.5
q0 -80 -34 -127.5t-102 -47.5q-30 0 -55 8t-43 27.5t-28 53t-10 84.5zM162 -29q-1 0 -7 3t-13 7.5t-12.5 10t-5.5 10.5q12 23 39.5 69.5t62.5 105.5t75.5 126t80 132t74 122t58.5 97q10 17 14 17t17 -8q9 -6 15 -12t8 -14q-11 -19 -35 -60t-56.5 -95.5t-70.5 -119
t-77.5 -129.5t-77 -126.5t-68.5 -111.5q-14 -24 -21 -24zM456 161q0 -61 16 -89t48 -28q29 0 47 28.5t18 90.5q0 65 -16 91.5t-47 26.5t-48.5 -30t-17.5 -90zM117 481q0 -61 16 -89t47 -28q29 0 47 29t18 91q0 64 -16.5 90.5t-45.5 26.5h-1q-29 0 -47 -29.5t-18 -90.5z" />
    <glyph glyph-name="ampersand" unicode="&#x26;" horiz-adv-x="580" 
d="M333 130q-41 42 -82 87.5t-69 82.5q-36 -27 -55.5 -58.5t-19.5 -73.5t26.5 -72.5t77.5 -30.5q34 0 63.5 15t58.5 50zM430 431q6 2 28.5 4.5t45.5 4.5q8 0 17 0.5t16 -1.5t11.5 -8.5t4.5 -20.5q0 -11 -8 -17t-29 -17h-25q1 -5 1 -16q0 -12 -1 -31t-7 -45.5t-19.5 -60.5
t-38.5 -76q51 -48 77 -73t39 -33q-2 -14 -8.5 -23.5t-14.5 -15t-17 -7.5t-16 -2q-9 0 -15 2.5t-15.5 11.5t-25.5 25.5t-46 44.5q-38 -46 -82.5 -65t-91.5 -19q-45 0 -79.5 13t-58 36.5t-35 55t-11.5 69.5q0 31 10 58.5t26.5 50t37.5 41.5t42 34q-32 43 -50 85.5t-18 86.5
q0 33 12 59.5t33 44.5t50.5 28t64.5 10q48 0 76.5 -11.5t28.5 -29.5q0 -6 -5.5 -23.5t-13.5 -28.5q-20 14 -40.5 20t-43.5 6q-35 0 -60 -19t-25 -61q0 -29 22.5 -68t55.5 -81.5t71 -86t69 -79.5q19 38 31.5 68t19.5 54.5t9.5 44.5t2.5 38v11.5t-2 11.5z" />
    <glyph glyph-name="quoteright" unicode="&#x2019;" horiz-adv-x="187" 
d="M55 692q6 15 21.5 26t33.5 11q6 0 12 -2q17 -2 24 -16.5t7 -36.5q0 -8 -1 -12q-2 -20 -7.5 -40t-13.5 -38.5t-18 -34t-19 -25.5q-15 -16 -31 -19q-8 0 -16.5 2.5t-13.5 8.5q17 31 26 65t10 67q-6 2 -7 6q-3 8 -4 18t-3 20z" />
    <glyph glyph-name="parenleft" unicode="(" horiz-adv-x="312" 
d="M141 292q0 -73 10.5 -138t29.5 -119t43.5 -97t53.5 -71q-5 -24 -17 -39t-28 -15q-18 9 -47 43t-56.5 93t-48 142t-20.5 190v1q0 101 18.5 180.5t45.5 138.5t58 97t56 56q16 -3 26 -17.5t13 -35.5q-60 -69 -98.5 -172t-38.5 -237z" />
    <glyph glyph-name="parenright" unicode=")" horiz-adv-x="312" 
d="M171 293q0 134 -37 240t-99 171q5 25 17 37.5t27 12.5q17 -9 46 -42t57 -90t48.5 -137t20.5 -183v-1q0 -101 -18.5 -183.5t-45.5 -144t-57.5 -102t-55.5 -58.5q-17 3 -27 20t-12 37q57 66 96.5 171t39.5 247v5v0z" />
    <glyph glyph-name="asterisk" unicode="*" horiz-adv-x="450" 
d="M254 525q-2 -10 -7.5 -14t-24.5 1l-19 139q-1 10 6.5 14t18.5 4q21 0 43 -10zM387 562q9 4 15 -1t9.5 -15t4 -22.5t-0.5 -22.5l-133 -25q-9 -2 -14 2.5t-7 23.5zM359 361q6 -7 3 -14.5t-11 -14t-19.5 -11.5t-21.5 -7l-66 119q-4 9 -1.5 15t19.5 14zM192 456q8 7 14.5 6.5
t18.5 -14.5l-66 -123q-5 -8 -13 -7.5t-16.5 6.5t-17 15t-13.5 18zM198 513q8 -5 10 -11t-8 -23l-138 25q-9 2 -11 9.5t1 17.5t9.5 20.5t13.5 18.5z" />
    <glyph glyph-name="plus" unicode="+" horiz-adv-x="499" 
d="M284 96q1 -15 -5 -23t-16.5 -11.5t-23 -4t-25.5 -0.5v176h-166q0 35 4.5 51t19.5 16h142v83q0 18 -0.5 37.5t-1.5 34.5q6 7 20 8.5t40 2.5q8 -4 10 -11.5t2 -24.5v-130h166q0 -34 -4 -50.5t-21 -16.5h-141v-137v0z" />
    <glyph glyph-name="comma" unicode="," horiz-adv-x="183" 
d="M146 50q-2 -21 -8.5 -43t-17.5 -43t-25 -38.5t-30 -29.5q-12 -8 -28.5 -8t-27.5 10q20 32 34.5 58t16.5 58q-8 1 -9 6q-3 11 -8.5 27t-5.5 25q7 15 23 26t35 11q32 0 42.5 -13t8.5 -46z" />
    <glyph glyph-name="hyphen" unicode="-" horiz-adv-x="292" 
d="M220 229q-17 -3 -38 -5.5t-42.5 -5t-42.5 -4t-39 -1.5q-6 0 -11.5 1t-11.5 3q7 69 26 69q42 4 90 9.5t83 10.5q11 -2 22 -7q-2 -28 -10.5 -48t-25.5 -22z" />
    <glyph glyph-name="period" unicode="." horiz-adv-x="183" 
d="M37 50q0 58 59 58q34 0 43.5 -14t8.5 -42q-1 -27 -12.5 -44.5t-46.5 -17.5q-29 0 -40.5 14.5t-11.5 45.5z" />
    <glyph glyph-name="slash" unicode="/" horiz-adv-x="350" 
d="M326 702q-49 -168 -97 -334t-97 -334q-8 -26 -16.5 -48t-19.5 -32q-9 -8 -22 -9.5t-50 -1.5q54 184 108 366.5t108 367.5q3 11 7.5 16t18.5 7q11 2 25.5 2.5t34.5 -0.5z" />
    <glyph glyph-name="zero" unicode="0" 
d="M30 295q0 109 25 175t67 96q20 17 46.5 26t56.5 9q57 0 94 -25t58 -66t29 -93.5t8 -108.5q0 -161 -47.5 -241.5t-147.5 -80.5q-45 0 -80 17.5t-59 55t-37 96t-13 140.5zM121 292q0 -67 7.5 -112.5t20.5 -73t31.5 -39.5t41.5 -12q21 0 39.5 11.5t32.5 41t22 79t8 125.5
q0 63 -7 105t-20 68t-31 37t-39 11h-1q-23 0 -42 -13t-33 -42t-22 -75t-8 -111z" />
    <glyph glyph-name="one" unicode="1" horiz-adv-x="383" 
d="M294 76q9 -5 20.5 -8.5t21.5 -6.5t17 -6t7 -6q0 -26 -1.5 -35t-9.5 -12q-8 -2 -16 -2t-17 -1q-46 -1 -93.5 -1.5t-90.5 -0.5q0 9 -0.5 22t-0.5 26q0 6 7 10t18 8t23.5 7t24.5 8q2 91 3 203t3 230q-13 -3 -32.5 -8t-39.5 -10t-37 -9.5t-24 -5.5q-4 7 -6.5 15t-3.5 17
q8 15 26 32q26 9 53.5 18t52.5 17t45.5 14t33.5 10q5 -2 11 -4.5t10 -4.5q-1 -42 -1.5 -104.5t-1.5 -133.5t-1.5 -144t-0.5 -134z" />
    <glyph glyph-name="two" unicode="2" 
d="M73 485q-8 -6 -10 -6q-6 0 -9.5 6.5t-5.5 15.5t-3 17.5t-1 12.5q9 15 26.5 28t41.5 22t52.5 14.5t58.5 5.5h1q44 0 74 -12t48.5 -32.5t26.5 -48.5t8 -60q0 -6 -0.5 -12.5t-1.5 -12.5q-5 -37 -22 -73.5t-43 -72.5q-14 -20 -30.5 -40t-36 -44t-43.5 -53t-53 -67
q33 -1 69.5 -1h74.5q35 0 68 2t47 2q-2 -32 -10.5 -51t-19.5 -21q-18 -2 -45 -3.5t-62 -1.5q-67 0 -125.5 0.5t-106.5 3.5q-4 10 -6 21q2 15 6 26t15 26q52 68 95 119.5t73.5 92.5t47 76.5t16.5 71.5q0 44 -22.5 66t-64.5 22q-19 0 -38 -4t-36 -9.5t-31 -12.5t-23 -13z" />
    <glyph glyph-name="three" unicode="3" 
d="M265 315q64 -12 99.5 -51t35.5 -104q0 -55 -19 -97t-51.5 -70.5t-76.5 -43t-95 -14.5q-40 0 -64 7.5t-35 16.5q-10 8 -12.5 18.5t-2.5 21.5q0 9 1 16.5t3 14.5q0 3 1 2q18 -11 45 -18t59 -7q37 0 66.5 12t49 32t29.5 47.5t9 59.5q-1 5 -1 9.5t-1 9.5q-6 46 -45 66.5
t-96 20.5q-8 0 -17.5 -0.5t-17.5 -1.5q-1 5 -2 8.5t-2 8.5q3 11 6 20.5t8 17.5q25 10 49.5 23.5t43 30.5t30 37t11.5 44q0 14 -4 27.5t-13 23.5t-24 16t-37 6q-35 0 -65 -10t-52 -25q-2 -2 -5 -3.5t-5 -1.5q-3 0 -6 4q-5 10 -7.5 21.5t-2.5 22.5v5q6 12 20.5 23.5t36 20
t49 14t59.5 5.5q45 0 74 -12.5t46 -31t23.5 -41t6.5 -42.5q0 -44 -22 -80q-25 -43 -80 -79z" />
    <glyph glyph-name="four" unicode="4" 
d="M255 76q0 15 0.5 33t0.5 37q-30 0 -60.5 0.5t-58.5 1.5t-51.5 2t-39.5 3q-13 12 -19 27t-8 29q8 19 23 50t35 66.5t42.5 73t45 71.5t43 61t36.5 42q14 13 32 21t32 10q10 0 20.5 -2t17.5 -4q0 -48 -0.5 -97t-0.5 -96v-96.5t-1 -97.5q20 2 38.5 3t30.5 1q2 -8 4 -11.5
t2 -11.5q-5 -15 -14 -26.5t-28 -16.5q-6 -2 -10.5 -2h-9.5h-13v-118q0 -14 -4.5 -22.5t-21.5 -11.5q-11 -2 -28.5 -2.5t-34.5 -0.5v84zM260 352q1 31 1 62t2 63q-23 -28 -45.5 -61.5t-43 -68.5t-37.5 -69.5t-29 -62.5q32 -2 69 -3t79 -1q2 34 2.5 71.5t1.5 69.5z" />
    <glyph glyph-name="five" unicode="5" 
d="M364 538q-14 -4 -39.5 -6.5t-55 -4t-59.5 -2.5t-53 -1q-7 -35 -13 -72t-11 -77q12 -1 29 -1.5t40 -2.5q11 -2 22.5 -3.5t22.5 -3.5q29 -6 54.5 -17t46 -29.5t33.5 -45t17 -63.5q0 -9 0.5 -18t0.5 -18v-12.5t-1 -12.5q-7 -100 -70.5 -156t-165.5 -57q-51 0 -75 10.5
t-29 19.5q-8 24 -8 46q0 11 1 16q0 1 1 1q15 -11 40.5 -16.5t57.5 -5.5q34 0 63 12.5t50 34t33 51.5t12 66q0 55 -25.5 83.5t-70.5 40.5q-27 8 -57.5 11t-53.5 5q-17 2 -31 2.5t-22 0.5q4 32 10 71t13 77.5t13 73.5t10 59q27 0 65.5 1t78.5 2t77 2.5t62 2.5l-4 -53
q-2 -10 -9 -11z" />
    <glyph glyph-name="six" unicode="6" 
d="M29 233v31.5t2 34.5q5 84 25.5 148t54.5 108q25 32 52.5 53t55 33.5t53.5 17.5t49 5q27 0 47.5 -5.5t25.5 -24.5q0 -17 -5 -35q-66 4 -120.5 -13t-90.5 -66q-23 -29 -38.5 -69.5t-23.5 -94.5q-3 -26 -6 -52.5t-3 -55.5q0 -100 32 -147t84 -47q22 0 41.5 10t34.5 29.5
t23.5 48t8.5 65.5q0 56 -20 84t-50 36q-4 1 -8 1.5t-9 0.5q-14 0 -28 -3t-25 -6v20q0 18 5 31t16 19q24 11 54 11q11 0 16 -1q34 -3 58.5 -20t40 -42t22.5 -56.5t7 -64.5q0 -50 -11.5 -92.5t-35.5 -73t-60.5 -47.5t-86.5 -17q-84 0 -134.5 59t-52.5 187z" />
    <glyph glyph-name="seven" unicode="7" horiz-adv-x="422" 
d="M67 -31q23 61 54 135.5t63.5 150.5t64 147.5t54.5 127.5q-28 -1 -68.5 -1.5t-99.5 -0.5q-32 0 -54.5 4t-39.5 9q-2 4 -2 10q0 11 4 26.5t10 29.5q17 -5 39 -6t47 -1h264q-5 -16 -9.5 -32t-9.5 -30q-11 -38 -30.5 -88.5t-42.5 -106.5t-47.5 -113.5t-46.5 -110t-39.5 -96
t-26.5 -70.5q-12 0 -27 -0.5t-28 1t-21.5 5t-7.5 10.5z" />
    <glyph glyph-name="eight" unicode="8" 
d="M342 304q33 -28 51 -60.5t18 -77.5q0 -37 -12.5 -69t-36.5 -56t-59 -37.5t-80 -13.5q-54 0 -90 15.5t-58.5 40t-32 55.5t-9.5 62t8.5 55.5t23.5 44.5q31 41 87 76q-23 14 -40 29t-30 30q-16 19 -24 42t-8 47q0 38 12.5 69t35 52.5t54.5 33.5t70 12q8 0 14.5 -0.5
t13.5 -0.5q37 -3 64 -15.5t45 -33t26.5 -47t8.5 -56.5t-9 -53t-23 -41q-13 -17 -31 -32t-42 -32q32 -21 53 -39zM134 497q0 -23 8.5 -39t26.5 -33q20 -20 64 -45q36 23 59.5 52t23.5 65q0 45 -26.5 66.5t-63.5 21.5q-18 0 -34.5 -5.5t-29 -16t-20.5 -27.5t-8 -39zM223 59
q19 0 37.5 6.5t33 19t23 31.5t8.5 45q0 32 -9.5 50t-29.5 37q-24 24 -74 52q-40 -24 -68.5 -57t-28.5 -75q0 -52 31.5 -80.5t76.5 -28.5z" />
    <glyph glyph-name="nine" unicode="9" 
d="M72 -6q24 0 50 6t50.5 18t46.5 28.5t39 36.5q23 32 39 71t23 86q6 46 6 96q0 47 -5.5 85t-18 64.5t-33 40.5t-49.5 14q-54 0 -83 -40.5t-29 -107.5q0 -54 20.5 -83t52.5 -37q6 -1 12 -1.5t12 -0.5q12 0 24 2t21 4q1 -5 1 -11v-12q0 -14 -3.5 -27.5t-16.5 -18.5
q-9 -4 -22 -7t-30 -3q-4 0 -8 0.5t-9 0.5q-33 4 -58 20t-42 40.5t-25.5 56t-8.5 67.5q0 50 12.5 91.5t37 71t61 46t84.5 16.5q51 0 85.5 -16t55.5 -50t30.5 -87.5t10.5 -127.5q-1 -105 -26 -185.5t-85 -134.5q-22 -20 -45.5 -33.5t-46.5 -22t-43.5 -12.5t-35.5 -4h-9
q-39 1 -50 19q-5 9 -6 20.5t-1 21.5q5 -1 15 -1z" />
    <glyph glyph-name="colon" unicode=":" horiz-adv-x="183" 
d="M37 374q0 58 59 58q34 0 43.5 -14t8.5 -42q-1 -27 -12.5 -44.5t-45.5 -17.5q-29 0 -41 14.5t-12 45.5zM37 50q0 58 59 58q34 0 43.5 -14t8.5 -42q-1 -27 -12.5 -44.5t-45.5 -17.5q-29 0 -41 14.5t-12 45.5z" />
    <glyph glyph-name="semicolon" unicode=";" horiz-adv-x="183" 
d="M37 374q0 58 59 58q34 0 43.5 -14t8.5 -42q-1 -27 -12.5 -44.5t-45.5 -17.5q-29 0 -41 14.5t-12 45.5zM146 50q-2 -21 -8.5 -43t-17.5 -43t-25 -38.5t-30 -29.5q-12 -8 -28.5 -8t-27.5 10q20 32 34.5 58t16.5 58q-8 1 -9 6q-3 11 -8.5 27t-5.5 25q7 15 23 26t35 11
q32 0 42.5 -13t8.5 -46z" />
    <glyph glyph-name="equal" unicode="=" horiz-adv-x="499" 
d="M48 328q1 35 5.5 51t19.5 16h378q-1 -34 -5 -50.5t-20 -16.5h-378zM48 136q1 35 5.5 51t19.5 16h378q-1 -34 -5 -50.5t-20 -16.5h-378z" />
    <glyph glyph-name="question" unicode="?" horiz-adv-x="312" 
d="M224 368q-24 -32 -37 -58.5t-13 -47.5q0 -17 3.5 -31t3.5 -22v-2q-3 -5 -13.5 -8t-21.5 -3q-14 0 -27.5 9t-18.5 29q-5 22 -5 40q0 29 12 58q8 17 18.5 33t21.5 32q20 28 38 56.5t18 60.5q0 35 -19.5 51t-48.5 16q-18 0 -37.5 -6t-42.5 -20q-10 1 -17.5 14t-7.5 40
q7 12 21.5 21.5t32.5 15.5t38 9t38 3q37 0 62 -10t41 -27.5t23 -42t7 -52.5q0 -25 -5.5 -46t-15 -40t-22 -36.5t-26.5 -35.5zM150 105q30 0 38.5 -13.5t7.5 -40.5q-1 -26 -11 -43t-41 -17q-26 0 -36.5 14t-10.5 44q0 56 53 56z" />
    <glyph glyph-name="at" unicode="@" horiz-adv-x="733" 
d="M559 -55q13 -20 15 -45q-11 -8 -21.5 -15t-21.5 -11q-99 -32 -184 -32q-67 0 -123.5 21t-97 66.5t-62 117t-19.5 172.5q0 8 0.5 15.5t1.5 15.5q5 90 32.5 158t73.5 113.5t109 69t139 23.5q136 0 213 -73t77 -222q0 -87 -16.5 -145t-42 -92.5t-58 -48.5t-63.5 -14
q-44 0 -63 27q-12 -10 -38.5 -21t-65.5 -11q-22 1 -41.5 6t-34.5 18t-24 36t-10 60q0 40 13 68t38 48q22 17 46.5 24.5t43.5 9.5q5 0 8.5 0.5t8.5 0.5q17 0 29 -3v9.5t1 12.5q3 38 -9.5 60t-47.5 20q-36 0 -68 -17q-14 -6 -24 -6q-5 6 -7.5 15.5t-4.5 16.5q0 3 -0.5 5
t-0.5 4q0 5 2 9q13 13 46 26t74 13q35 0 59 -10.5t37 -34.5q11 -19 14 -55q2 -14 2 -29v-31q-1 -14 -1 -27v-27q-1 -15 -1 -30.5t-1 -30.5q0 -23 -0.5 -43t-1.5 -36q5 -4 10.5 -7.5t12.5 -3.5q15 0 33 11t33.5 37t25.5 70t10 109q0 124 -54 180.5t-158 56.5
q-131 0 -205.5 -82.5t-74.5 -251.5q0 -83 15.5 -140t46 -93t75 -52t102.5 -16q40 2 71 7.5t59 12.5q19 5 36.5 9t31.5 2zM341 78q5 -1 12 -0.5t14 1.5q20 3 34 15t18 32l2 103q-52 0 -82.5 -20t-30.5 -79q0 -4 0.5 -7t0.5 -7q2 -20 13 -28t19 -10z" />
    <glyph glyph-name="A" unicode="A" horiz-adv-x="524" 
d="M423 13q-14 41 -25 80t-28 90h-208q-17 -50 -32.5 -94.5t-26.5 -78.5q-2 -7 -8 -10.5t-23 -3.5q-11 0 -28.5 2t-31.5 5q1 10 3 18.5t5 16.5q21 63 50 144.5t59 165t57 160.5t44 131q5 21 10 21q5 1 10.5 2.5t10.5 1.5q8 2 15 2h12q14 -3 19 -10q17 -51 36.5 -110
t39.5 -119t39 -117.5t35 -105.5q21 -60 36 -106.5t28 -84.5v-2q0 -1 1 -1q0 -3 -4 -7q-9 -3 -26 -5t-30 -2q-9 0 -18 3t-21 14zM184 254h165q-11 35 -20 67.5t-19 62.5q-16 50 -25.5 85.5t-16.5 61.5q-13 -47 -27 -95.5t-35 -111.5z" />
    <glyph glyph-name="B" unicode="B" 
d="M59 521v105v9v10t1 10q6 2 27 4t50.5 4t59.5 2q49 0 84 -11.5t57 -31.5t32.5 -47.5t10.5 -58.5q0 -53 -15.5 -82.5t-33.5 -44.5q-7 -5 -15 -10t-20 -10q24 -6 42 -16q12 -7 25.5 -17.5t25 -27t19.5 -40t8 -55.5q0 -57 -17 -98t-46.5 -67.5t-70 -39.5t-86.5 -13
q-38 1 -69 2.5t-69 5.5v518zM147 66q6 -2 24 -3.5t29 -1.5q49 0 83.5 36t34.5 114v11t-1 10q-7 55 -39 74.5t-81 19.5h-27t-23 -2v-258zM147 390q7 2 26 2t33 1q16 0 34 3q19 9 34.5 35t15.5 70v9t-1 8q-5 42 -31 61t-65 19q-9 0 -25 -1t-21 -2v-205z" />
    <glyph glyph-name="C" unicode="C" horiz-adv-x="465" 
d="M308 677q31 0 55 -5.5t41 -13t27.5 -16t13.5 -15.5q0 -17 -4 -29.5t-10 -20.5h-4q-5 -1 -12 2t-16 7q-21 10 -47 14q-8 1 -15.5 1.5t-16.5 0.5h-10.5t-10.5 -1q-35 -3 -66 -20t-54 -51t-37 -86t-14 -124q0 -132 48 -193.5t136 -61.5q36 0 69.5 9t50.5 20q6 -11 8 -31
q-3 -29 -23 -46q-14 -12 -46 -22t-73 -10q-61 0 -109.5 16t-83 54.5t-53 101.5t-18.5 157q0 194 86 287q41 44 89 60t99 16z" />
    <glyph glyph-name="D" unicode="D" horiz-adv-x="527" 
d="M72 656q9 1 25 2.5t35.5 3t40.5 2.5t40 1q83 0 137 -23t86 -64.5t44.5 -98t12.5 -123.5q0 -103 -20.5 -175t-70.5 -120q-22 -20 -46 -33t-48.5 -20.5t-48 -10t-43.5 -2.5q-44 0 -80.5 2.5t-75.5 7.5v583q0 30 2 43.5t10 24.5zM396 356q0 114 -34.5 168t-102.5 65
q-27 6 -60 6q-30 0 -51 -3v-521q15 -2 33 -3.5t38 -1.5q32 0 63.5 11.5t57 43t41 88.5t15.5 147z" />
    <glyph glyph-name="E" unicode="E" horiz-adv-x="383" 
d="M148 71q15 -2 37.5 -2.5t46.5 -0.5h66t65 2l1 -1q-4 -38 -11 -52t-22 -18q-20 -1 -48 -1.5t-70 -0.5q-47 0 -84.5 1.5t-61.5 3.5q-2 11 -3.5 20.5t-3.5 20.5v479v64t-2 61q8 2 21 8t30 7h242q-2 -36 -6.5 -49t-15.5 -18q-18 -3 -40.5 -3.5t-51.5 -0.5h-89v-204h186
q-3 -24 -6 -38t-7.5 -21.5t-10.5 -10t-15 -2.5h-147v-244v0z" />
    <glyph glyph-name="F" unicode="F" horiz-adv-x="375" 
d="M102 -3q-27 0 -42 8v532q0 33 -0.5 59.5t-1.5 50.5q7 2 21 8t33 7h249q-3 -37 -7.5 -49t-15.5 -16q-11 -3 -25 -3.5t-37 -0.5h-128v-217h191q-2 -23 -4.5 -37t-7.5 -21.5t-12 -10t-16 -2.5h-151q0 -82 0.5 -154.5t1.5 -141.5q-5 -2 -18 -7t-30 -5z" />
    <glyph glyph-name="G" unicode="G" horiz-adv-x="520" 
d="M328 364q0 2 1 4q2 4 9 4q11 1 28.5 1.5t36 1t35.5 0.5h28q2 -8 3.5 -20.5t2.5 -26.5t1.5 -28.5t0.5 -26.5v-237q-9 -7 -23 -16t-28 -15q-22 -8 -52 -14t-67 -6h-16.5t-16.5 1q-53 4 -97 22t-75.5 57t-49 101.5t-17.5 154.5q0 108 27 177.5t63 107.5q34 36 82.5 53
t111.5 17q31 0 55 -5.5t41 -13t27.5 -16t13.5 -15.5q0 -17 -4 -27.5t-10 -18.5h-4q-5 -1 -12 2.5t-16 6.5q-39 14 -85 14q-92 0 -143.5 -66.5t-51.5 -209.5q0 -80 15 -132.5t40.5 -83t58.5 -42.5t69 -12q27 0 48.5 6t29.5 14v224q-9 0 -19 1t-18.5 7t-15 19t-7.5 36z" />
    <glyph glyph-name="H" unicode="H" horiz-adv-x="534" 
d="M394 -3q-8 22 -8 51v269q-17 -1 -41.5 -1.5t-66.5 -0.5h-130v-254q0 -18 -2.5 -30.5t-10.5 -23.5q-6 -8 -21.5 -9t-55.5 -1q1 36 1.5 79.5t0.5 97.5v329q0 47 -0.5 83.5t-1.5 65.5q8 8 25.5 10t54.5 2q6 -9 8 -22.5t2 -39.5v-215h238v209q0 35 10 58q8 7 24 8.5t56 1.5
q-1 -36 -1.5 -79.5t-0.5 -96.5v-332q0 -48 0.5 -83t1.5 -64q-7 -8 -26 -10t-56 -2z" />
    <glyph glyph-name="I" unicode="I" horiz-adv-x="207" 
d="M68 -3q-9 0 -9 19q0 57 0.5 140.5t0.5 175.5q0 57 -0.5 112.5t-0.5 100.5q0 41 -0.5 65t-1.5 31q6 15 25.5 19t56.5 4q6 0 7.5 -15.5t1.5 -50.5q0 -60 -0.5 -129t-0.5 -135q0 -65 0.5 -124t0.5 -107q0 -42 0.5 -64t0.5 -30q-6 -8 -25 -10t-56 -2z" />
    <glyph glyph-name="J" unicode="J" horiz-adv-x="276" 
d="M28 1q14 0 32.5 2.5t34.5 18.5t26 51.5t7 101.5v337q0 42 -0.5 74t-1.5 55q8 15 26.5 19t56.5 4q5 -9 6.5 -21.5t1.5 -38.5v-415q0 -45 -2 -81.5t-9 -65.5t-20.5 -50.5t-35.5 -36.5q-26 -18 -58 -22q-8 -2 -15.5 -2h-14.5q-20 0 -37 5q-14 4 -22.5 15t-10.5 23
q1 12 3.5 18.5t4.5 11.5q13 -3 28 -3z" />
    <glyph glyph-name="K" unicode="K" horiz-adv-x="454" 
d="M68 -3q-5 8 -7 18t-2 24v480q0 42 -0.5 74.5t-1.5 58.5q6 5 25.5 8t57.5 3q5 -10 6.5 -23t1.5 -39v-236q51 71 105 148.5t107 149.5q5 1 10 1h11q10 0 19.5 -0.5t17.5 -0.5q25 -1 25 -14q0 -7 -7 -20q-4 -6 -8.5 -13.5t-9.5 -12.5q-19 -26 -41 -56t-45 -61.5t-46 -62
t-44 -58.5q24 -23 47.5 -56t45 -69.5t41 -73t36.5 -68t30.5 -54.5t22.5 -32q0 -5 -1.5 -7t-9.5 -5q-5 -2 -16 -4t-24 -2h-14q-27 3 -42 26.5t-25 47.5q-10 22 -23.5 48t-30 53t-35 53t-38.5 49q-19 21 -34.5 37.5t-23.5 21.5v-196q0 -42 0.5 -72t0.5 -54q-5 -8 -24 -9.5
t-57 -1.5z" />
    <glyph glyph-name="L" unicode="L" horiz-adv-x="377" 
d="M140 664q5 -11 6.5 -27t1.5 -45v-519q19 -2 44.5 -3t51.5 -1q28 0 59.5 0.5t57.5 2.5q1 -8 1 -15.5v-15.5q-2 -13 -9.5 -25.5t-22.5 -16.5q-15 -1 -38.5 -1.5t-60.5 -0.5q-51 0 -93 1.5t-71 3.5l-4 26l-4 26v488q0 35 -0.5 61.5t-1.5 44.5q8 10 25 13t58 3z" />
    <glyph glyph-name="M" unicode="M" horiz-adv-x="664" 
d="M91 639q0 5 1 11t6 8q3 2 8 2t10 1q25 3 56 3q8 -17 19.5 -46t24.5 -64.5t27 -75t27 -77.5q2 -8 5 -15.5t5 -15.5q6 -18 12.5 -38.5t12.5 -38.5q6 -19 11 -34t10 -29q5 14 11 30.5t13 33.5q8 21 15.5 44.5t15.5 42.5q25 69 48.5 135.5t44.5 123.5l4 10t6 8q14 2 35 4
t39 2q3 -10 5 -19.5t4 -26.5q7 -94 14.5 -185.5t15.5 -184.5q8 -69 12.5 -129t7.5 -108q-5 -9 -24.5 -11.5t-58.5 -2.5q-11 16 -11 41q-1 15 -2.5 27.5t-1.5 27.5q-2 26 -4.5 57t-5.5 66q-1 15 -2 29l-2 28q-2 28 -2.5 64.5t-1.5 70.5q-2 30 -2 51.5t-1 41.5q0 -1 -0.5 -1
t-0.5 -1q-8 -25 -17 -53.5t-18.5 -56.5t-18.5 -54t-16 -45q-17 -46 -34.5 -94t-34.5 -96q-5 -17 -22 -20q-10 -2 -22 -3t-23 -1q-13 42 -34 103.5t-43 126.5q-2 7 -10 32t-18 57q-11 37 -20.5 66t-14.5 42v-84q0 -16 -0.5 -35t-1 -37.5t-1 -36t-1.5 -30.5q-7 -64 -12.5 -124
t-8.5 -107q-2 -14 -3.5 -23.5t-6.5 -18.5q-5 -4 -12 -6t-20 -2q-9 0 -20 0.5t-25 2.5q-3 0 -3 2q4 61 10 136t13.5 157.5t15.5 169t16 172.5z" />
    <glyph glyph-name="N" unicode="N" horiz-adv-x="557" 
d="M327 336q26 -49 49.5 -99t40.5 -89v8v10.5t-1 10.5q-1 17 -2 39t-1.5 46t-1 47.5t-0.5 44.5v245q0 19 2 31t7 23q6 4 11.5 6.5t13 3.5t19.5 1h32q-1 -45 -1.5 -96t-0.5 -111v-447q-2 -2 -15.5 -9t-27.5 -7q-7 0 -20 1t-21 4q-32 58 -68.5 121t-74.5 131l-41 75
q-16 32 -32.5 68.5t-32.5 70.5q-8 17 -12.5 27t-11.5 25q3 -57 4.5 -115.5t2.5 -101.5v-236q0 -20 -2 -31.5t-7 -22.5q-4 -5 -9 -7.5t-13.5 -3.5t-21.5 -1.5t-33 -0.5q1 44 1.5 95t0.5 111v427q-3 4 -7.5 9.5t-4.5 7.5v3q0 4 1 6q4 2 12.5 3.5t19 2.5t20.5 1.5t16 0.5
q15 0 30 -9q17 -32 40.5 -73.5t51.5 -89.5q14 -23 27 -46.5t27 -48.5z" />
    <glyph glyph-name="O" unicode="O" horiz-adv-x="572" 
d="M130 324q0 -134 44.5 -199.5t114.5 -65.5q73 0 115 66.5t42 208.5q0 71 -12 122t-33.5 83.5t-50.5 48t-63 15.5h-1q-70 0 -113 -67t-43 -212zM290 677q64 0 111.5 -23t78.5 -66.5t46 -107t15 -143.5q0 -167 -63.5 -259.5t-193.5 -92.5q-68 0 -115.5 24t-77.5 68.5
t-44 108t-14 143.5q0 173 66 260.5t191 87.5z" />
    <glyph glyph-name="P" unicode="P" horiz-adv-x="423" 
d="M57 634q0 6 -0.5 13.5t-0.5 15.5q9 6 26 7h3q23 2 49.5 2.5t53.5 0.5q50 0 90 -11.5t67.5 -36t42.5 -64t15 -94.5q0 -54 -16 -90.5t-40.5 -60t-53.5 -34.5t-54 -14q-8 0 -17.5 1t-17.5 5t-13 12.5t-5 23.5q0 4 4.5 7t10.5 3q18 0 37 7.5t34 25t25 46.5t10 72q0 36 -9 61
t-24 40.5t-35.5 22t-42.5 6.5h-29.5t-20.5 -2v-254v-188l1 -111q0 -25 -10 -39q-6 -7 -17 -8.5t-31 -1.5h-32q1 44 1.5 94.5t0.5 110.5z" />
    <glyph glyph-name="Q" unicode="Q" horiz-adv-x="576" 
d="M695 -68q24 -6 40.5 -19t27.5 -25q-4 -9 -6.5 -15.5t-6.5 -13.5q-10 8 -28.5 14.5t-45.5 8.5q-32 3 -72 -3t-84 -16q-44 -11 -84.5 -18.5t-72.5 -3.5q-29 4 -51 22t-36.5 41t-21.5 47t-7 40q-57 6 -97.5 34t-66 73t-37.5 104t-12 127q0 173 66 260.5t192 87.5
q64 0 111.5 -23t78 -66.5t45.5 -107t15 -143.5q0 -81 -13.5 -141t-38.5 -102t-60.5 -67t-78.5 -35q1 -10 4 -21.5t9 -22.5t16 -20t26 -15q9 -2 17.5 -3.5t18.5 -1.5q26 0 54 6t59 11q27 5 51.5 8t47.5 3q11 0 21.5 -1t19.5 -3zM290 58q73 0 115 66.5t42 208.5
q0 72 -10.5 123t-31 83.5t-49.5 47.5t-65 16q-74 0 -116.5 -67.5t-42.5 -212.5q0 -67 12 -116.5t33 -82.5t50 -49.5t63 -16.5z" />
    <glyph glyph-name="R" unicode="R" horiz-adv-x="453" 
d="M465 12q5 -6 -2.5 -9.5t-18.5 -5.5q-12 -3 -30 -3h-13q-14 1 -24 8.5t-18 18t-14.5 23t-11.5 24.5q-20 45 -53 101t-72 101q-4 1 -8 1.5t-9 0.5h-44v-226q0 -24 -10 -38q-8 -9 -25.5 -10t-54.5 -1q1 45 1.5 95t0.5 110v338v50t-1 44v9t1 10q4 3 21 6q5 1 9.5 1.5
t11.5 1.5q11 1 21.5 1.5t21.5 0.5q13 0 25 0.5t24 -0.5l26 -1q88 -5 132 -49t44 -139q0 -34 -12.5 -65t-29 -55.5t-32 -40t-22.5 -19.5q27 -40 52.5 -85.5t47 -86t38.5 -71t28 -40.5zM239 344q24 9 43 41t19 92q0 61 -28 91.5t-73 30.5q-18 0 -31.5 -1t-21.5 -2v-255
q6 -1 21 -1h29q12 0 23.5 0.5t18.5 3.5z" />
    <glyph glyph-name="S" unicode="S" horiz-adv-x="390" 
d="M214 677q60 0 92 -14.5t39 -25.5q0 -24 -15 -48q-5 -3 -11 -3t-18 5q-14 7 -34.5 12t-43.5 5q-44 0 -69.5 -20.5t-25.5 -60.5v-14q3 -18 12.5 -34.5t24.5 -33.5q17 -19 36 -37.5t41 -38.5q17 -16 32 -30t29 -29q31 -32 45 -65t14 -78q0 -82 -49 -132t-143 -50
q-50 0 -83 11t-47 24q-12 11 -12 22q0 13 5.5 29.5t13.5 28.5q21 -18 52.5 -29t67.5 -11q45 0 73 26t28 74q0 32 -14 58t-50 60q-11 13 -24 25.5t-27 26.5q-22 21 -41 39.5t-33 36.5q-25 32 -34.5 59.5t-9.5 55.5q0 29 10 57t31.5 50t55.5 35.5t82 13.5z" />
    <glyph glyph-name="T" unicode="T" horiz-adv-x="458" 
d="M272 590v-453q0 -43 0.5 -73.5t1.5 -54.5q-9 -8 -25 -10t-56 -2q-9 16 -9 43v550h-128q-23 0 -42 3q-1 4 -1 11q0 11 2.5 23t5.5 20q2 6 5.5 10t6.5 7q5 0 10.5 -0.5t13.5 -0.5q17 -1 38 -1h50h306q0 -14 -2 -27t-5 -25q-3 -11 -10.5 -15t-10.5 -5h-151z" />
    <glyph glyph-name="U" unicode="U" horiz-adv-x="552" 
d="M280 57q49 0 72.5 7t35.5 15q11 51 15.5 113t4.5 125l1 274q0 20 2.5 34.5t7.5 27.5q6 4 11 6t13 3t20 1.5t32 0.5q-1 -39 -1.5 -85.5t-0.5 -102.5v-159q0 -81 -6.5 -147t-20.5 -123q-29 -35 -81 -48.5t-111 -13.5q-57 0 -95.5 16t-62.5 44.5t-36.5 67.5t-17.5 85
q-2 25 -3.5 51t-1.5 55v190q0 49 -0.5 87.5t-1.5 69.5q6 8 25 10.5t57 2.5q7 -12 8.5 -28.5t1.5 -46.5v-277q0 -32 1.5 -59t5.5 -52q11 -66 39 -105t87 -39z" />
    <glyph glyph-name="V" unicode="V" horiz-adv-x="491" 
d="M262 -7q-11 -1 -21 2.5t-18 8.5q-10 5 -18 13q-5 9 -9 20q-9 29 -21 69l-25.5 85t-27.5 92.5t-27 90.5q-31 105 -52.5 176t-29.5 91q3 9 9.5 13.5t21.5 6.5q27 3 53 3q8 -8 13 -23.5t16 -48.5q18 -66 40 -141t47 -161q13 -52 25.5 -98t21.5 -91q9 39 22 86.5t27 104.5
q14 50 27.5 99.5t26.5 95.5q12 44 22 77t19 64q3 10 5.5 17.5t6.5 15.5q5 2 9.5 2h8.5h9q14 -1 25.5 -1.5t24.5 -2.5q4 -1 4 -13q0 -8 -3 -19t-6 -25q-10 -32 -22.5 -78.5t-32.5 -111.5q-17 -62 -35.5 -124.5t-35.5 -117t-31.5 -97t-23.5 -63.5q-11 -8 -20.5 -11.5
t-24.5 -5.5z" />
    <glyph glyph-name="W" unicode="W" horiz-adv-x="771" 
d="M366 640q7 2 13 2.5t12 1.5q7 1 13.5 1.5t13.5 0.5q10 -13 16 -42q11 -48 30 -125t44 -180q11 -53 21 -99t19 -94q9 48 18.5 92.5t20.5 96.5q28 108 48 191.5t35 152.5q2 7 3.5 12t3.5 9q3 3 19 3q8 -1 17 -1t17 -2q15 0 26 -4v-4q0 -5 -1 -14t-5 -24q-8 -30 -17 -64.5
t-20 -78.5q-15 -62 -33 -134.5t-34.5 -138t-30.5 -116t-22 -69.5q-10 -7 -19.5 -12.5t-24.5 -7.5q-10 -2 -19.5 1t-17.5 8q-10 5 -18 13q-2 5 -2.5 9t-2.5 9q-11 48 -24 101.5t-28 111.5q-6 25 -12.5 54.5t-13 61t-13 63.5t-12.5 62q-5 -23 -11 -53l-12.5 -62.5t-14 -64.5
t-14.5 -60q-2 -7 -6.5 -25.5t-10 -42.5t-12 -50.5t-12 -50t-10 -41t-5.5 -22.5q-11 -8 -20.5 -13t-24.5 -7q-11 -2 -20.5 2t-17.5 9q-10 5 -18 13q-2 5 -4.5 13t-5.5 19q-9 34 -20.5 80t-24.5 98.5t-26.5 107t-26.5 104.5q-8 36 -15.5 68t-13.5 58.5t-10.5 44.5t-7.5 25
q4 9 11 15t21 8t25 2.5t24 0.5q3 0 6 -8.5t6 -19t5 -20t2 -12.5q14 -63 32.5 -139.5t41.5 -170.5q11 -51 20.5 -95t17.5 -89q5 35 12.5 76.5t18.5 92.5q19 78 39.5 163t42.5 173l4 20q2 2 4.5 3t10.5 3z" />
    <glyph glyph-name="X" unicode="X" horiz-adv-x="497" 
d="M484 11q1 -2 1 -5q0 -1 -1 -1q-8 -7 -28.5 -8t-40.5 -1q-10 0 -19.5 2t-19.5 7q-14 29 -29 58t-32 61q-17 35 -35.5 72t-36.5 70q-16 -29 -35.5 -66.5t-39.5 -75.5q-18 -32 -34.5 -61.5t-28.5 -53.5q-5 -7 -10 -9t-12 -2t-21 0.5t-28 3.5q-8 1 -13 2l-10 2
q38 71 87 157.5t99 174.5q-19 38 -41.5 79.5t-44.5 82t-42 78t-35 67.5q0 3 1.5 6t6.5 5q16 3 36.5 5.5t45.5 2.5q6 -5 11 -13.5t13 -22.5q12 -21 22.5 -41t20.5 -39q17 -37 33.5 -71t32.5 -63q17 29 34.5 66t37.5 75q13 23 25 46.5t23 45.5l4 9q5 7 20 7q11 0 28 -2t38 -5
q-3 -14 -7 -27q-26 -53 -68 -127t-90 -154q66 -115 109 -195.5t73 -141.5z" />
    <glyph glyph-name="Y" unicode="Y" horiz-adv-x="462" 
d="M367 657q8 3 15 4.5t16 1.5q8 0 19 -0.5t28 -2.5q2 -8 2 -12q0 -9 -3 -17t-8 -19q-11 -26 -31.5 -64.5t-43 -79t-42.5 -77t-29 -57.5q-5 -12 -8.5 -25t-5.5 -25v-146q0 -42 0.5 -73.5t0.5 -54.5q-3 -4 -8 -7t-14 -4.5t-23.5 -2t-36.5 -0.5q-8 19 -8 45v235v13t-2 10
q-8 22 -21 50.5t-32 64.5q-28 57 -61 119t-59 115l-1 2q0 4 8.5 5.5t38.5 1.5h50q6 -14 17 -37.5t23.5 -51.5t26 -57.5t25.5 -56t21.5 -48t14.5 -31.5z" />
    <glyph glyph-name="Z" unicode="Z" horiz-adv-x="467" 
d="M45 606q2 12 4 22.5t4 20.5q2 3 5 9t11 8q12 -2 26.5 -3t34.5 -1h298v-3q0 -4 0.5 -8.5t0.5 -10.5q0 -23 -12 -48q-20 -44 -51 -104.5t-68.5 -130t-78.5 -143.5t-81 -144q44 -2 106 -2.5t120 -0.5q31 0 52 2t29 3q3 -13 1 -32q-5 -14 -14.5 -26t-20.5 -14
q-8 -1 -18.5 -1.5t-25 -1t-34.5 -0.5h-48q-92 0 -151.5 1t-97.5 3q-2 2 -5.5 7.5t-5.5 13.5q0 4 -0.5 7t-0.5 6t0.5 6t0.5 6q40 67 82 140.5t82 145t75.5 138t62.5 121.5h-231q-29 0 -40 3t-11 9v2v0z" />
    <glyph glyph-name="bracketleft" unicode="[" horiz-adv-x="358" 
d="M229 798q26 -4 51.5 -10t49.5 -12q0 -27 -4 -34t-20 -8q-20 -2 -39 -2.5t-34 -2.5q-13 -2 -23.5 -4.5t-21.5 -7.5v-31q0 -67 -1.5 -166t-1.5 -236v-110.5v-80.5t0.5 -58.5t0.5 -45.5q1 -32 11 -59q17 -2 36 -2.5t43 -2.5q30 -2 49 -7q0 -17 -1 -27.5t-3 -16.5t-5.5 -9
t-9.5 -4q-61 0 -114 3.5t-84 5.5q-1 28 -1 60v67q0 71 0.5 150t0.5 158q0 47 0.5 103t1 115.5t1 118t1.5 109.5q0 12 0.5 20.5t4.5 15.5q2 1 14.5 3t29.5 4t35.5 3t32.5 1z" />
    <glyph glyph-name="backslash" unicode="\" horiz-adv-x="326" 
d="M99 702q46 -169 91 -336t91 -336q5 -20 8 -36t3 -30q0 -10 -1 -15q-4 -8 -16.5 -9.5t-48.5 -1.5q-51 186 -100 369.5t-100 369.5q-1 4 -1 9q0 8 11 12t44 4h19v0z" />
    <glyph glyph-name="bracketright" unicode="]" horiz-adv-x="358" 
d="M129 -139q-26 4 -51.5 9.5t-49.5 12.5q0 26 3.5 33.5t20.5 8.5q20 2 39 3t34 2q24 1 44 12q1 66 2.5 172t1.5 261v191v59t-1 45q-1 32 -11 59q-17 2 -36.5 2.5t-42.5 2.5q-30 2 -49 7q0 34 4 44t15 13q61 0 114.5 -3.5t83.5 -5.5q1 -28 1 -60v-67q0 -71 -0.5 -150
t-0.5 -158v-1q0 -47 -0.5 -103t-1 -115t-1 -117.5t-1.5 -109.5q0 -13 -0.5 -21.5t-4.5 -14.5q-2 -2 -14.5 -3.5t-29.5 -3.5t-35.5 -3t-32.5 -1z" />
    <glyph glyph-name="underscore" unicode="_" horiz-adv-x="439" 
d="M7 -98q0 26 1 40t7 21h417q0 -26 -1 -40t-8 -21h-416z" />
    <glyph glyph-name="quoteleft" unicode="&#x2018;" horiz-adv-x="187" 
d="M131 546q-5 -15 -19 -25.5t-33 -10.5q-10 0 -15 1q-16 2 -23.5 16.5t-7.5 35.5q0 8 1 13q1 19 7 39.5t14 38.5t18 33.5t19 26.5q18 18 35 18q16 0 26 -11q-17 -30 -26 -63.5t-10 -67.5q6 -2 7 -6q3 -9 4 -18.5t3 -19.5z" />
    <glyph glyph-name="a" unicode="a" horiz-adv-x="395" 
d="M57 412q-1 3 -1 11q0 5 2 11q16 15 57 30.5t91 17.5h17t18 -1q56 -4 77 -39.5t21 -99.5v-45q0 -52 -1 -107t-1 -95q-1 -14 2 -25q2 -9 8 -16t18 -5q-1 -11 -1 -21.5v-15.5q-6 -8 -19.5 -15t-33.5 -8q-18 0 -35 12.5t-25 23.5q-5 -5 -13 -11.5t-16 -11.5q-17 -8 -35 -10.5
t-38 -2.5q-24 0 -46.5 7.5t-40 24t-28 41t-10.5 59.5q0 46 18 76t44 48t55 26t52 10q8 1 14.5 1h13.5q19 0 33 -3v57q0 34 -8 52t-40 18q-26 0 -54.5 -8.5t-50.5 -17.5q-18 -8 -29 -8q-7 8 -10 19.5t-5 20.5zM252 103q2 9 2 20.5v27.5v71q-5 1 -10 1h-10q-9 0 -17 -0.5
t-16 -1.5q-18 -3 -34 -9t-28.5 -16.5t-19.5 -26.5t-7 -40q0 -38 15 -53.5t38 -17.5h7q23 0 44.5 9t32.5 22q1 2 1.5 5.5t1.5 8.5z" />
    <glyph glyph-name="b" unicode="b" horiz-adv-x="453" 
d="M67 14q-5 12 -7 26t-2 31v512q0 33 -0.5 56t-1.5 41q8 17 28.5 22t51.5 5q5 -11 6.5 -26.5t1.5 -49.5v-186q21 15 50.5 26t65.5 11q34 0 64 -11.5t52 -37t34.5 -65t12.5 -94.5q0 -52 -8 -92t-21.5 -70.5t-31 -52t-36.5 -35.5q-31 -21 -66 -29t-65 -8q-41 0 -74 7t-54 20z
M144 66q10 -5 26 -9t34 -4q21 0 43.5 9.5t40.5 33t29.5 63.5t11.5 101q0 84 -28 117.5t-77 33.5q-20 0 -41.5 -7t-38.5 -21v-317z" />
    <glyph glyph-name="c" unicode="c" horiz-adv-x="368" 
d="M349 442q0 -10 -3.5 -24t-9.5 -25h-5q-5 0 -12 2t-15 4q-29 13 -60 13q-9 0 -14 -1q-47 -4 -77.5 -47t-30.5 -133q0 -54 11 -88t29 -53t41 -26t47 -7q25 0 47.5 5.5t38.5 13.5q2 -8 4 -15.5t2 -12.5q-1 -11 -7 -22t-15 -18q-14 -10 -37.5 -16t-50.5 -6q-41 0 -77 9.5
t-63.5 35.5t-43.5 73t-16 122q0 80 22 130t51 77q29 28 65 38.5t72 10.5q22 0 41 -4.5t33 -10.5t22.5 -13t10.5 -12z" />
    <glyph glyph-name="d" unicode="d" horiz-adv-x="455" 
d="M393 94q-1 -15 2 -26q2 -9 8 -16t18 -4q-1 -11 -1 -22v-15q-6 -9 -19.5 -15.5t-33.5 -7.5q-18 -1 -35.5 12t-24.5 23q-5 -5 -13 -11.5t-16 -10.5q-31 -16 -73 -14q-38 2 -69.5 14.5t-54.5 39.5t-36 70t-13 107q0 69 18 119.5t48 84.5q28 31 62.5 45.5t70.5 14.5
q26 0 46 -5t32 -13v119q0 33 -0.5 56t-1.5 41q8 17 28.5 22t51.5 5q5 -11 6.5 -26.5t1.5 -49.5v-336q0 -52 -1 -106.5t-1 -94.5zM309 396q-22 19 -64 19q-22 0 -43.5 -10t-38 -32t-27 -58t-10.5 -87q0 -48 8 -80.5t22 -52t33.5 -28t42.5 -8.5t42.5 7.5t30.5 20.5q1 2 2 6
t1 8q1 9 1 20.5v27.5v247z" />
    <glyph glyph-name="e" unicode="e" horiz-adv-x="398" 
d="M238 61q32 0 59.5 5.5t51.5 18.5q2 -7 3.5 -19t2.5 -21q-1 -15 -19 -29t-39 -19q-11 -3 -32 -6.5t-44 -3.5q-35 0 -71 9.5t-65 38.5q-53 55 -53 182q0 72 14.5 122.5t40 82t61 46t76.5 14.5q68 0 103 -38t42 -103q1 -11 1.5 -23t0.5 -25q0 -16 -1.5 -31.5t-4.5 -27.5
q-8 -6 -29 -13t-41 -10q-23 -3 -59 -4.5t-71 -1.5h-22.5t-22.5 1q0 -41 9 -69t24.5 -45t37 -24t47.5 -7zM214 417q-6 0 -9 -1q-30 -5 -54.5 -40t-28.5 -108h38q29 0 57 0.5t42 2.5q7 1 12.5 2t10.5 4q5 13 5 33q0 6 -0.5 11.5t-0.5 10.5q-4 42 -21 63.5t-51 21.5z" />
    <glyph glyph-name="f" unicode="f" horiz-adv-x="263" 
d="M330 690q3 -4 3 -8v-8q-1 -6 -2 -11.5t-3 -10.5q-6 -14 -12 -20q-2 -1 -8 0.5t-12 3.5q-8 2 -19 3t-21 1q-17 0 -32.5 -4.5t-28 -16.5t-20.5 -32.5t-9 -52.5q-1 -16 -1 -32v-33h54h32t25 1q-2 -35 -6.5 -46.5t-15.5 -15.5q-2 -1 -4.5 -2t-6.5 -2q-16 -2 -36 -2h-43v-92
t0.5 -101t1 -100t0.5 -89q0 -4 -1 -10.5t-7 -8.5q-12 -2 -30 -3t-27 -1q-6 0 -11.5 0.5t-10.5 1.5q-1 5 -1 10.5v12.5q0 30 0.5 60.5t0.5 61.5q0 62 -0.5 126t-0.5 132q-48 1 -62 12q3 28 7 35.5t16 10.5t39 9q0 20 1 39t3 36q4 50 22 82t42.5 50.5t53.5 25.5t55 7
q31 0 49.5 -5.5t25.5 -13.5z" />
    <glyph glyph-name="g" unicode="g" horiz-adv-x="421" 
d="M368 311q0 -79 -43.5 -122.5t-120.5 -43.5q-14 0 -25 1.5t-22 3.5q-7 -7 -13 -12.5t-11 -11.5q-7 -8 -7 -17t15.5 -16.5t45.5 -10.5q21 -2 43 -3.5t45 -3.5q10 -1 18.5 -1.5t16.5 -2.5q47 -8 73.5 -33t28.5 -69q0 -33 -15.5 -67.5t-43 -64t-66.5 -51.5t-85 -32
q-20 -5 -44 -7.5t-48 -2.5q-35 0 -63.5 9t-34.5 32q-5 19 8.5 42.5t36.5 47.5t51 46t51 37q15 -8 16.5 -25.5t-11.5 -28.5t-25.5 -23t-22.5 -23.5t-15 -22t-3 -17.5q2 -9 11.5 -12t23.5 -3q17 0 36.5 3.5t33.5 6.5q27 7 50 21.5t40 33t26.5 38t9.5 35.5q0 3 -0.5 8.5
t-1.5 7.5q-7 18 -17.5 30t-42.5 16q-17 2 -34 3t-35 2l-18 1q-34 3 -55 8q-12 3 -21 6q-33 11 -50.5 28.5t-18.5 39.5q0 8 11 21q14 14 30.5 29.5t29.5 27.5q-32 20 -49 55t-17 83q0 42 13 74.5t35.5 55t53.5 34t68 11.5q26 0 46.5 -6t33.5 -13q3 -2 6 -3.5t9 3.5
q29 1 56 2.5t47 2.5q2 -5 4 -12.5t2 -17.5q0 -17 -6.5 -28.5t-20.5 -11.5q-13 0 -23 0.5t-23 2.5q14 -20 20.5 -41.5t6.5 -48.5zM198 424q-35 0 -55.5 -27.5t-15.5 -84.5q5 -50 26 -79t63 -29q41 0 57.5 32t11.5 85q-5 49 -26.5 76t-60.5 27z" />
    <glyph glyph-name="h" unicode="h" horiz-adv-x="450" 
d="M55 -3q1 44 1.5 95t0.5 113v382q0 32 -0.5 54.5t-1.5 39.5q9 17 28.5 21.5t51.5 4.5q5 -8 6.5 -21t1.5 -45v-212q15 14 31.5 24.5t31.5 16.5q14 5 30 8.5t35 3.5q36 0 60.5 -10.5t38.5 -33.5t20 -58.5t6 -85.5v-147v-76t1 -62q-4 -4 -8.5 -6t-13.5 -3.5t-23.5 -2
t-36.5 -0.5q-7 17 -7 46v242v24.5t-2 18.5q-2 47 -19.5 63.5t-45.5 16.5q-30 0 -55.5 -14t-42.5 -31v-304q0 -16 -2 -28.5t-8 -23.5q-5 -4 -10.5 -6t-13.5 -3t-21 -1h-33z" />
    <glyph glyph-name="i" unicode="i" horiz-adv-x="202" 
d="M137 472q5 -11 6.5 -25t1.5 -46v-340q0 -34 -12 -53q-5 -8 -20 -9t-57 -2q0 38 0.5 81.5t0.5 89.5v177q0 35 -0.5 59t-1.5 44q8 16 29.5 20t52.5 4zM52 642q0 56 53 56q30 0 38.5 -13.5t7.5 -40.5q-1 -26 -11 -43t-41 -17q-26 0 -36.5 14t-10.5 44z" />
    <glyph glyph-name="j" unicode="j" horiz-adv-x="206" 
d="M140 472q5 -8 6.5 -21.5t1.5 -42.5v-318q0 -69 -6 -127q-3 -30 -9.5 -55.5t-19.5 -45.5q-31 -49 -88 -57q-6 -1 -12 -1h-11q-22 0 -34 4q-30 5 -35 33q0 7 1.5 15.5t4.5 13.5q2 0 4.5 -0.5t5.5 -0.5q30 0 65 16q25 11 34 35t11 70q1 18 1.5 38t0.5 42v255q0 40 -0.5 69
t-1.5 54q8 16 29 20t52 4zM55 642q0 56 53 56q30 0 38.5 -13.5t7.5 -40.5q-1 -26 -11 -43t-41 -17q-26 0 -36.5 14t-10.5 44z" />
    <glyph glyph-name="k" unicode="k" horiz-adv-x="396" 
d="M55 -3q0 13 0.5 40t1 57t0.5 57.5v41.5v366q0 26 -0.5 48.5t-1.5 42.5l-1 28q8 18 27 24t49 6q6 -10 9 -25.5t3 -53.5v-180q28 23 59 32.5t65 9.5q25 0 41 -9t25.5 -23t13.5 -31t4 -33q0 -43 -16.5 -74.5t-38.5 -53.5t-44.5 -34.5t-34.5 -16.5q15 -10 42 -40t57 -65.5
t58 -70.5t45 -55q8 -6 2 -11.5t-17 -9.5q-17 -5 -36 -5q-15 0 -25.5 5t-27.5 18q-6 6 -16 18t-23 28t-27 32.5t-27 31.5q-5 5 -13.5 14.5t-18 19.5t-18 19t-12.5 13q-2 2 -7.5 7t-9.5 8v-145q0 -12 -2.5 -18t-11 -9t-26 -3.5t-47.5 -0.5zM142 247q23 10 44 24.5t36.5 31.5
t25 36.5t9.5 41.5q0 17 -8 28.5t-25 11.5t-39.5 -14.5t-42.5 -42.5v-117z" />
    <glyph glyph-name="l" unicode="l" horiz-adv-x="201" 
d="M143 94q-1 -14 2 -25q2 -9 8 -16t18 -5q-1 -11 -1 -22v-15q-6 -9 -19.5 -15.5t-33.5 -7.5q-9 0 -18.5 4t-17.5 9q-12 8 -18 21.5t-6 28.5v10v507q0 37 -0.5 63.5t-1.5 49.5q8 17 29 21.5t52 4.5q5 -15 6 -35t1 -58v-520v0z" />
    <glyph glyph-name="m" unicode="m" horiz-adv-x="679" 
d="M386 14q0 -13 -13 -16q-5 -1 -13.5 -1h-21.5h-41q2 38 2 84v103v120q0 59 -14.5 82.5t-52.5 23.5q-28 0 -49.5 -12.5t-37.5 -29.5v-324q0 -13 -2 -21t-8 -16q-5 -4 -10 -6t-13.5 -3t-21 -1h-32.5q1 38 1 84.5v103.5v179q0 24 -3.5 42t-8.5 33q6 8 40 23q3 1 7 1
q14 0 21 -8.5t10 -21.5q18 15 35.5 24.5t33.5 14.5q30 10 63 10h8.5t9.5 -1q34 -2 54.5 -15t33.5 -35q18 15 36.5 25t35.5 15q30 10 61 10h10t10 -1q33 -3 54 -16t33.5 -35t17 -53t4.5 -68v-168v-71t2 -60q-9 -7 -24.5 -9.5t-57.5 -2.5q-3 6 -5 13.5t-2 18.5v274
q0 59 -14.5 82.5t-52.5 23.5q-26 0 -47.5 -12.5t-37.5 -29.5v-118v-235v0z" />
    <glyph glyph-name="n" unicode="n" horiz-adv-x="452" 
d="M231 408q-27 0 -48.5 -12.5t-37.5 -29.5v-312q0 -16 -2 -26.5t-9 -20.5q-5 -4 -10 -6t-13 -2.5t-21 -1t-33 -0.5q1 41 1.5 89t0.5 106v170q0 24 -3.5 42t-8.5 33q6 8 40 23q3 1 7 1q14 0 21 -8.5t10 -21.5q18 15 35 24.5t34 14.5q16 5 30.5 8t31.5 3q45 0 72.5 -11.5
t43 -34t21 -55.5t5.5 -75v-153q0 -42 0.5 -77.5t1.5 -65.5q-4 -3 -9 -5.5t-14 -4t-23.5 -2t-35.5 -0.5q-8 15 -8 41v265q0 58 -17 81.5t-62 23.5z" />
    <glyph glyph-name="o" unicode="o" horiz-adv-x="443" 
d="M414 238q0 -63 -14.5 -110t-40.5 -78.5t-61 -47.5t-77 -16q-93 0 -143 58t-50 188q0 64 14.5 111.5t40.5 78t62 45.5t79 15q190 0 190 -244zM121 236q0 -52 7.5 -87.5t21 -57t32.5 -31t41 -9.5q20 0 38 9.5t31.5 31t21.5 56.5t8 87q0 98 -27 139t-72 41h-2
q-20 0 -38 -9.5t-32 -31t-22 -55.5t-8 -83z" />
    <glyph glyph-name="p" unicode="p" horiz-adv-x="458" 
d="M144 -197q-5 -4 -19.5 -6.5t-31.5 -2.5q-18 0 -31 3q-2 13 -2.5 37.5t-0.5 62.5v467q0 24 -3 42t-8 33q3 5 13 10l26 13q2 0 3 0.5t2 0.5h2q14 0 21.5 -8.5t10.5 -21.5q18 15 35 24.5t34 14.5q16 5 29.5 8t30.5 3q36 0 67 -12t54.5 -38t37 -67t13.5 -99q0 -95 -24.5 -154
t-62.5 -90q-27 -22 -54.5 -29.5t-50.5 -7.5q-29 0 -52.5 8t-36.5 18v-166v-22.5t-2 -20.5zM220 53q17 0 37 9t37 32t28 63.5t11 102.5q0 81 -25.5 115.5t-73.5 34.5q-26 0 -49 -12.5t-39 -26.5v-286q11 -14 31 -23t43 -9z" />
    <glyph glyph-name="q" unicode="q" horiz-adv-x="456" 
d="M397 207v26v-409q0 -19 -7.5 -24.5t-35.5 -7.5h-45q1 34 1.5 73.5t0.5 89.5v67q-18 -17 -45.5 -27.5t-58.5 -10.5q-34 0 -65.5 12t-56 39t-39 71t-14.5 107q0 73 22 126t60 86q23 22 52 35.5t64 18.5q9 1 18.5 1.5t18.5 0.5q73 0 142 -29q-5 -15 -8.5 -33t-3.5 -42v-170z
M311 384q0 13 3 21q-15 5 -32 7.5t-33 3.5q-23 0 -45 -11.5t-39 -35.5t-28 -62t-11 -90q0 -86 31 -122.5t77 -36.5q23 0 44.5 9.5t32.5 26.5v290z" />
    <glyph glyph-name="r" unicode="r" horiz-adv-x="300" 
d="M224 398q-49 0 -79 -32v-319q0 -13 -1.5 -22.5t-7.5 -17.5q-5 -3 -10.5 -5t-14 -3t-21.5 -1.5t-33 -0.5q1 41 1.5 89t0.5 107l1 169q0 24 -4 42t-9 33q9 9 41 23q3 1 7 1q14 0 20.5 -8.5t10.5 -21.5q17 15 34.5 24.5t33.5 14.5q14 5 27 7.5t27 0.5q39 -4 43 -25
q0 -11 -3.5 -27.5t-12.5 -30.5q-4 -1 -9 -1t-11.5 0.5t-12.5 1.5q-5 2 -9.5 2h-8.5z" />
    <glyph glyph-name="s" unicode="s" horiz-adv-x="346" 
d="M188 482q8 0 15.5 -0.5t13.5 -1.5q45 -3 65.5 -17t23.5 -23q0 -10 -4.5 -23.5t-10.5 -21.5q-11 2 -22 3.5t-24 6.5q-23 9 -49 9q-31 0 -49.5 -14.5t-18.5 -37.5q0 -13 7 -25t25 -26q19 -15 48.5 -35.5t52.5 -39.5q32 -26 45.5 -51.5t13.5 -57.5q0 -35 -13 -61t-36 -43.5
t-53.5 -26.5t-64.5 -9q-47 0 -82 12t-43 31q0 12 4 26t12 24h4q11 0 27 -8q16 -7 35.5 -11.5t40.5 -4.5q5 0 9.5 0.5t9.5 1.5q27 3 42.5 19t15.5 41q0 17 -10 32.5t-33 32.5q-20 14 -42 30.5t-39 30.5l-24 21q-44 43 -44 94q0 58 42 90.5t110 32.5z" />
    <glyph glyph-name="t" unicode="t" horiz-adv-x="317" 
d="M290 75q1 -5 1.5 -10.5t0.5 -11.5v-14t-1 -14q-3 -11 -15 -20q-14 -9 -37.5 -14t-46.5 -5q-35 0 -56.5 15t-33.5 39t-16 54t-4 60v247q-24 0 -37.5 2.5t-22.5 7.5q0 12 0.5 17.5t1 8.5t2.5 4.5t5 4.5q11 9 30 13t30 9l5 90q5 15 22.5 26.5t52.5 13.5q-1 -35 -1.5 -66.5
t-0.5 -62.5h129q-2 -38 -7.5 -50t-15.5 -14q-6 -1 -12 -1.5t-12 -0.5q-10 0 -18 -0.5t-17 -0.5h-20h-27q-1 -35 -1.5 -69.5t-0.5 -66.5q0 -33 0.5 -62t0.5 -54q3 -42 13 -68.5t40 -26.5q6 0 16 2t21 5t20 6.5t12 6.5z" />
    <glyph glyph-name="u" unicode="u" horiz-adv-x="455" 
d="M143 450q5 -17 8 -37.5t3 -58.5l-10 -183q0 -34 5 -55t15 -33t24 -16.5t32 -4.5q26 -2 50.5 8.5t37.5 26.5v318q0 16 2 26.5t9 20.5q4 4 9 6t13.5 2.5t21.5 1t33 0.5q-1 -41 -1.5 -89t-0.5 -106v-170q0 -24 3.5 -42t8.5 -33q-6 -8 -40 -23q-3 -1 -7 -1q-14 0 -21 8.5
t-10 21.5q-18 -15 -35 -24.5t-34 -14.5q-16 -5 -30.5 -8t-31.5 -3q-44 2 -71 14t-42.5 33.5t-21 52t-6.5 70.5l10 209q0 28 -4 49t-10 39q9 10 47 28q4 1 8 1q17 0 25 -11t11 -23z" />
    <glyph glyph-name="v" unicode="v" horiz-adv-x="392" 
d="M202 100q4 10 9.5 34t13 55.5t16 66.5t17.5 68q11 39 21 75t18 68q7 5 22 5q9 0 21 -1t31 -3q3 -4 3 -12q0 -10 -3 -21t-8 -26q-28 -91 -57 -187.5t-65 -209.5q-8 -8 -20 -11.5t-22 -5.5q-3 -1 -7 -1q-13 0 -25.5 6t-15.5 15q-17 60 -37 126.5t-49 157.5l-10.5 31.5
t-15.5 47.5t-14.5 45.5t-7.5 26.5q5 14 22.5 19.5t57.5 5.5q6 -6 10.5 -16t7.5 -22q7 -23 15.5 -54.5t19.5 -66.5q8 -31 15.5 -64.5t14.5 -63t12.5 -53t9.5 -35.5z" />
    <glyph glyph-name="w" unicode="w" horiz-adv-x="607" 
d="M233 29q-5 -16 -8 -24t-11 -11q-6 -1 -20 -2t-34 -2q-8 6 -16 19.5t-12 26.5q-7 25 -15.5 57t-18 67t-19.5 71.5t-20 71.5q-17 63 -27.5 101t-15.5 49q5 11 25 16t59 5q10 -9 15 -31q15 -60 30 -123q15 -72 26 -126.5t19 -83.5q6 18 16 56t22 91q2 9 8.5 35t13.5 56
t13 56t8 35q1 2 1 4.5v3.5v10q1 1 9 3.5t19 4.5t22 2.5t17 -0.5q6 -5 9 -14t7 -25q8 -37 18.5 -80t21.5 -91t20.5 -87t14.5 -60q12 37 24.5 94t26.5 123q10 37 17 70t12 59q2 5 2.5 8.5t2.5 6.5q4 3 13 3q5 0 15 -1t19.5 -2t17.5 -2t9 -2q3 0 3 -7q1 -8 -1.5 -16.5
t-6.5 -22.5q-11 -39 -24.5 -89t-28 -103t-29 -105t-27.5 -95q-5 -16 -8 -24t-11 -11q-6 -1 -20 -2t-34 -2q-8 6 -16 19.5t-12 26.5l-10 38t-10 36q-14 53 -25.5 107t-22.5 107q-4 -20 -10 -47t-13.5 -57.5t-16 -61.5t-15.5 -59z" />
    <glyph glyph-name="x" unicode="x" horiz-adv-x="421" 
d="M410 4q-8 -3 -23.5 -4.5t-32.5 -2.5q-19 0 -47 7q-8 13 -17 27.5t-19 31.5q-16 27 -34 59.5t-32 58.5l-42 -77t-56 -92q-5 -11 -14 -13t-32 -2q-11 0 -23 0.5t-23 2.5l9 24q31 50 66 105t72 114q-14 24 -31 52t-34.5 56.5t-34 55t-28.5 46.5l-3 9q5 3 21.5 8t30.5 5h33
q9 -8 18.5 -23.5t22.5 -36.5q14 -25 31 -55t31 -53q11 19 24.5 44t27.5 48q9 15 18 29t18 29q7 10 12.5 13.5t21.5 3.5q11 0 27 -2t31 -5q-3 -6 -5.5 -12.5t-5.5 -12.5q-29 -43 -61.5 -93.5t-63.5 -98.5q34 -57 70.5 -117t71.5 -117l5 -12v0z" />
    <glyph glyph-name="y" unicode="y" horiz-adv-x="391" 
d="M98 475q5 0 11 -14t9 -26q4 -12 10.5 -34t14.5 -49t16.5 -56t15.5 -55q6 -23 11.5 -45.5t10 -40.5t7.5 -31t4 -16q2 5 5.5 19t8 32.5t10 41t10.5 45.5q13 57 26.5 113.5t24.5 103.5q6 5 12 7t18 2q8 0 18.5 -0.5t25.5 -1.5q5 -10 5 -21q0 -10 -5 -27q-10 -42 -24 -94
t-31 -109.5t-36.5 -117.5t-39.5 -116q-21 -53 -40.5 -88.5t-38.5 -56.5t-37 -30t-34 -9q-35 0 -53.5 10t-22.5 23q0 8 3 17q1 5 3 10q8 3 17 2.5t19 -0.5t20.5 1t22.5 6q10 5 20.5 21.5t20.5 38.5t18 47t13 47q-2 2 -3 2.5t-2 2.5q-7 10 -11 20t-9 26q-2 7 -9 30t-17 55.5
t-22 71t-25 78t-25.5 76.5t-22.5 66q5 13 21.5 18t55.5 5z" />
    <glyph glyph-name="z" unicode="z" horiz-adv-x="361" 
d="M49 474q18 -4 38.5 -4.5t48.5 -0.5h194v-3q0 -5 1 -9.5t1 -12.5q1 -12 -11 -37q-15 -29 -36 -68t-46 -83t-52.5 -92t-54.5 -95q22 -1 51 -1.5t58 -0.5q42 0 71.5 2.5t35.5 4.5q0 -8 -0.5 -17t-2.5 -17q-4 -31 -20 -36q-17 -3 -40.5 -4t-68.5 -1q-48 0 -97 0.5t-86 2.5
l-7 10.5t-7 20.5q1 10 9 24q21 35 47 78t53 89t53.5 92t48.5 87h-107q-12 0 -22.5 -0.5t-21.5 -0.5q-52 0 -52 10v2q6 56 22 60z" />
    <glyph glyph-name="bar" unicode="|" horiz-adv-x="306" 
d="M193 -215q-5 -4 -10.5 -6t-14.5 -3t-22 -1h-33v996q5 4 10.5 6.5t14 3.5t22 1h33.5v-997z" />
    <glyph glyph-name="exclamdown" unicode="&#xa1;" horiz-adv-x="193" 
d="M132 267q1 -37 3.5 -92.5t5 -115.5t5 -118.5t3.5 -100.5q-1 -14 -26.5 -19t-69.5 -5q-5 11 -7.5 25t-2.5 34q1 32 3 80.5t5 100t5.5 98.5t4.5 76q2 21 23.5 29t47.5 8zM97 367q-30 0 -38.5 13.5t-7.5 40.5q1 26 11 43t41 17q26 0 36.5 -14t10.5 -44q0 -56 -53 -56z" />
    <glyph glyph-name="cent" unicode="&#xa2;" 
d="M303 602q-1 -24 -1.5 -47t-2.5 -47q29 -4 49.5 -13.5t26.5 -20.5q0 -5 -2.5 -19.5t-8.5 -25.5q-6 -3 -16 -3q-7 0 -16 3q-17 7 -33 8q-5 1 -9 1.5t-8 0.5q-62 0 -91 -44.5t-29 -126.5q0 -48 9.5 -78.5t25 -47.5t36.5 -23.5t45 -6.5t47 5.5t42 15.5q0 -44 -11 -61
q0 -5 -6 -9q-11 -8 -30.5 -14t-45.5 -8q-1 -18 -1.5 -36t-1.5 -37q-1 -14 -8 -20t-23 -8q-20 -3 -43 -3l6 108q-21 4 -44 15.5t-42 35.5t-31.5 63.5t-12.5 100.5q0 65 15.5 109t38.5 72.5t50.5 43t50.5 20.5q1 17 1.5 33.5t1.5 33.5q1 14 8.5 20t27.5 8q8 1 17 1t19 1z" />
    <glyph glyph-name="fraction" unicode="&#x2044;" horiz-adv-x="503" 
d="M71 -41q-2 2 -8 5.5t-12 7.5t-11 9t-6 10q12 23 38.5 69.5t61.5 105.5t74.5 125.5t77.5 131.5t72 122.5t58 97.5q10 18 14 18t17 -8q9 -5 15.5 -12t8.5 -17q-10 -19 -34 -59.5t-55.5 -95t-69.5 -118.5t-76.5 -129t-75 -127t-66.5 -112q-15 -25 -20 -25q-2 0 -3 1z" />
    <glyph glyph-name="yen" unicode="&#xa5;" 
d="M187 292q-1 2 -1 3.5t-1 3.5q-8 22 -21 50.5t-32 64.5q-28 57 -61 119t-59 115l-1 2q0 4 8.5 5.5t38.5 1.5h50q6 -14 17 -37.5t23.5 -51.5t26 -57.5t25.5 -56t21.5 -48t14.5 -31.5l131 282q8 3 15 4.5t16 1.5q8 0 19 -0.5t28 -2.5q2 -8 2 -12q0 -9 -3 -17t-8 -19
q-11 -26 -31.5 -64.5t-43 -79t-42.5 -77t-29 -57.5q-3 -6 -6 -16t-4 -17l108 11q2 -27 -1.5 -46t-21.5 -21l-89 -9v-98q0 -42 0.5 -73.5t0.5 -54.5q-3 -4 -8 -7t-14 -4.5t-23.5 -2t-36.5 -0.5q-8 19 -8 45v186l-110 -11q-2 19 -1 37t6 24q5 3 10.5 4t12.5 2l82 9v0z" />
    <glyph glyph-name="quotesingle" unicode="'" horiz-adv-x="150" 
d="M94 520q-2 -2 -8 -4.5t-14 -4t-15.5 -2.5t-11.5 -1q0 13 -2 42t-4.5 61.5t-4 61t-1.5 40.5q9 5 25.5 9t31.5 4q8 0 14 -2q8 -2 10.5 -12.5t2.5 -24.5v-8q-1 -21 -3.5 -46t-5.5 -48t-7 -40.5t-7 -24.5z" />
    <glyph glyph-name="quotedblleft" unicode="&#x201c;" horiz-adv-x="342" 
d="M287 546q-5 -15 -19 -25.5t-33 -10.5q-10 0 -15 1q-16 2 -23.5 16.5t-7.5 36.5q0 8 1 12q1 19 6.5 39.5t13.5 38.5t18 33.5t19 26.5q16 18 36 18q16 0 26 -11q-17 -30 -26 -63.5t-10 -66.5q3 -2 7 -6q5 -17 7 -39zM131 546q-5 -15 -19 -25.5t-33 -10.5q-10 0 -15 1
q-16 2 -23.5 16.5t-7.5 35.5q0 8 1 13q1 19 7 39.5t14 38.5t18 33.5t19 26.5q18 18 35 18q16 0 26 -11q-17 -30 -26 -63.5t-10 -67.5q6 -2 7 -6q3 -9 4 -18.5t3 -19.5z" />
    <glyph glyph-name="guillemotleft" unicode="&#xab;" horiz-adv-x="452" 
d="M33 243q10 16 32 47t45.5 64.5t44.5 63t29 43.5q8 -1 15.5 -6t13 -12t9 -13t3.5 -9q0 -8 -7.5 -23.5t-18.5 -35t-24.5 -40t-25.5 -38.5t-20.5 -30.5t-10.5 -15.5q4 -5 20.5 -29.5t35.5 -54.5t34 -58t15 -41q0 -3 -3.5 -10t-9 -14.5t-13 -13t-16.5 -5.5q-7 12 -23.5 36.5
t-37 53.5t-42 59.5t-37.5 53.5q-8 16 -8 28zM214 242q11 16 33 46.5t46 63t45.5 61.5t31.5 43q7 -1 14.5 -6t13 -11.5t9 -13t3.5 -10.5q0 -8 -7.5 -23.5t-19 -34t-25 -39t-26 -37.5t-21.5 -29t-11 -15q3 -5 20.5 -28.5t37 -52.5t35 -56t15.5 -39q0 -3 -3.5 -10t-9.5 -14
t-13.5 -12.5t-15.5 -6.5q-8 14 -25 38t-37.5 51.5t-42 55.5t-37.5 51q-5 8 -7.5 15.5t-2.5 12.5z" />
    <glyph glyph-name="guilsinglleft" unicode="&#x2039;" horiz-adv-x="277" 
d="M33 241q12 17 34.5 49t47.5 67t46.5 66t31.5 45q8 -1 15.5 -6.5t13.5 -12.5t9.5 -13.5t3.5 -10.5q0 -8 -8 -24.5t-20 -36.5t-26.5 -41t-27.5 -39t-23 -31t-12 -16q2 -3 11.5 -16t22.5 -31t27 -39.5t26 -41t19.5 -35.5t7.5 -24q0 -4 -3.5 -11t-9 -14t-13 -13t-16.5 -7
q-9 14 -27 39.5t-39 55t-42.5 59.5t-38.5 54q-10 18 -10 28z" />
    <glyph glyph-name="guilsinglright" unicode="&#x203a;" horiz-adv-x="277" 
d="M243 232q-11 -17 -33.5 -49t-47.5 -66.5t-47.5 -65.5t-32.5 -45q-2 1 -9 4t-14.5 9t-13 14t-5.5 18q0 8 8 24t20.5 36t27 40.5t27.5 38.5t22.5 31t11.5 16q-2 3 -11.5 16t-21.5 31.5t-26 40t-26 41.5t-19.5 36.5t-7.5 24.5t5.5 15t13 12.5t14.5 9t10 4.5
q9 -14 26.5 -39.5t38.5 -55t42.5 -59.5t38.5 -54q9 -17 9 -28z" />
    <glyph glyph-name="fi" unicode="&#xfb01;" horiz-adv-x="465" 
d="M389 472q5 -11 6.5 -25t1.5 -46v-340q0 -34 -12 -53q-5 -8 -20 -9t-57 -2q0 38 0.5 81.5t0.5 89.5v236q-20 0 -42 -0.5t-42.5 -1t-36.5 -0.5h-24v-92t0.5 -101t1 -100t0.5 -89q0 -4 -1 -10.5t-7 -8.5q-12 -2 -30 -3t-27 -1q-6 0 -11.5 0.5t-10.5 1.5q-1 5 -1 10.5v12.5
q0 30 0.5 60.5t0.5 61.5q0 62 -0.5 126t-0.5 132q-48 1 -62 12q3 28 7 36t16 10q9 2 18.5 4.5t20.5 4.5q0 20 1 39t3 36q4 50 22 82t42.5 50.5t53.5 25.5t55 7q29 2 53 -4.5t42 -12.5q16 -6 23 -9t12 -9q3 -4 3 -8v-8q-1 -6 -2 -11.5t-3 -10.5q-6 -14 -12 -20q-5 0 -16 3.5
t-22 6.5q-14 5 -36 9.5t-41 4.5q-17 0 -32.5 -4.5t-28 -16.5t-20.5 -32.5t-9 -52.5q-1 -16 -1 -32v-33l167 2h32t25 1z" />
    <glyph glyph-name="fl" unicode="&#xfb02;" horiz-adv-x="457" 
d="M309 530q0 33 -0.5 57.5t-1.5 45.5q-12 3 -25.5 5t-25.5 2q-17 0 -32.5 -4.5t-28 -16.5t-20.5 -32.5t-9 -52.5q-1 -16 -1 -32v-33h54h32t25 1q-2 -35 -6.5 -46.5t-15.5 -15.5q-2 -1 -4.5 -2t-6.5 -2q-16 -2 -36 -2h-43v-92t0.5 -101t1 -100t0.5 -89q0 -4 -1 -10.5
t-7 -8.5q-12 -2 -30 -3t-27 -1q-6 0 -11.5 0.5t-10.5 1.5q-1 5 -1 10.5v12.5q0 30 0.5 60.5t0.5 61.5q0 62 -0.5 126t-0.5 132q-48 1 -62 12q3 28 7 36t16 10q9 2 18.5 4.5t20.5 4.5q0 20 1 39t3 36q4 50 22 82t42.5 50.5t53.5 25.5t55 7q29 2 53 -4.5t41 -12.5
q23 -8 30 -12.5t9 -10.5q5 -15 6 -35t1 -58v-482q-1 -14 2 -25q2 -9 8 -16t18 -5q-1 -11 -1 -22v-15q-6 -9 -19.5 -15.5t-33.5 -7.5q-9 0 -18.5 4t-17.5 9q-12 8 -18 21.5t-6 28.5v479z" />
    <glyph glyph-name="endash" unicode="&#x2013;" horiz-adv-x="488" 
d="M17 214q-1 12 -1 24v14q1 37 14 52t33 15h382q1 -13 0.5 -23t-0.5 -11q-3 -41 -14 -56t-31 -15h-383z" />
    <glyph glyph-name="periodcentered" unicode="&#xb7;" horiz-adv-x="202" 
d="M45 255q0 58 59 58q34 0 43.5 -14t8.5 -42q-1 -27 -12.5 -44.5t-46.5 -17.5q-29 0 -40.5 14.5t-11.5 45.5z" />
    <glyph glyph-name="bullet" unicode="&#x2022;" horiz-adv-x="247" 
d="M48 262q0 40 19.5 60.5t62.5 20.5q47 0 60.5 -20t12.5 -58q-1 -19 -4.5 -34.5t-12.5 -27t-25 -18t-40 -6.5q-41 0 -57 20t-16 63z" />
    <glyph glyph-name="quotesinglbase" unicode="&#x201a;" horiz-adv-x="176" 
d="M43 82q6 14 21.5 25.5t34.5 11.5q5 0 13 -2q17 -3 24 -19t7 -37q0 -23 -7 -47.5t-18 -46.5t-24 -40t-25 -27q-4 -2 -7 -4t-7 -3q-3 -1 -10 -1q-17 0 -30 10q20 32 30.5 66.5t11.5 66.5q-6 2 -7 6q-5 20 -7 41z" />
    <glyph glyph-name="quotedblbase" unicode="&#x201e;" horiz-adv-x="332" 
d="M201 60q0 18 6.5 31t16.5 17q2 1 4.5 2t5.5 3q12 4 27 4q20 0 29 -17t9 -38q0 -23 -7 -47.5t-18 -46.5t-24 -40t-25 -27q-11 -8 -23 -8q-16 0 -29 10q38 66 40 132q-12 7 -12 25zM43 82q6 14 21.5 25.5t34.5 11.5q4 0 12 -2q17 -3 24.5 -19t7.5 -36q0 -23 -7 -47.5
t-18 -46.5t-23.5 -40t-24.5 -27q-4 -2 -7 -4t-7 -3q-3 -1 -10 -1q-16 0 -29 10q20 32 29.5 66t10.5 66q-3 2 -7 6q-2 11 -4 21t-3 20z" />
    <glyph glyph-name="quotedblright" unicode="&#x201d;" horiz-adv-x="342" 
d="M211 692q4 14 16 23.5t29 11.5q4 1 12 1q7 0 10 -1q16 -2 23.5 -16.5t7.5 -36.5q0 -8 -1 -12q-2 -20 -7.5 -40t-13.5 -38.5t-18 -34t-19 -25.5q-15 -16 -31 -19q-8 0 -16.5 2.5t-13.5 8.5q17 31 25.5 65t9.5 67q-4 1 -7 6q-2 8 -3 18t-3 20zM55 692q6 15 21.5 26t33.5 11
q6 0 12 -2q17 -2 24 -16.5t7 -36.5q0 -8 -1 -12q-2 -20 -7.5 -40t-13.5 -38t-18 -34t-19 -26q-15 -16 -31 -19q-8 0 -16.5 2.5t-13.5 8.5q17 31 26 65t10 67q-6 2 -7 6q-3 8 -4 18t-3 20z" />
    <glyph glyph-name="guillemotright" unicode="&#xbb;" horiz-adv-x="451" 
d="M418 232q-11 -16 -32.5 -47.5t-45.5 -65t-45 -64t-30 -43.5l-9 4.5t-14 9t-12.5 13t-5.5 16.5q0 8 7.5 23.5t19 35t25 40t25.5 38t21 30t11 15.5q-2 3 -10.5 16t-20.5 30.5t-24.5 38t-23.5 40t-18 35.5t-7 25q0 8 5.5 15t12.5 12.5t14 8.5t10 3q7 -12 23.5 -36.5
t36.5 -53.5t40.5 -58.5t37.5 -51.5q9 -17 9 -29zM237 231q-11 -17 -33.5 -47t-47 -62.5t-46.5 -61.5t-31 -44q-2 1 -8.5 4.5t-13 9.5t-12 14t-5.5 18q0 8 7.5 23.5t19 33.5t25.5 37.5t26.5 36t21.5 28.5t12 15q-3 5 -20 29t-36.5 53.5t-35 57.5t-15.5 40q0 9 5.5 16t12 12.5
t13.5 9t10 4.5q8 -14 24.5 -38.5t37 -52.5t41.5 -57t38 -51q10 -17 10 -28z" />
    <glyph glyph-name="ellipsis" unicode="&#x2026;" horiz-adv-x="647" 
d="M56 50q0 58 59 58q34 0 43.5 -14t8.5 -42q-1 -27 -12.5 -44.5t-46.5 -17.5q-29 0 -40.5 14.5t-11.5 45.5zM268 50q0 58 59 58q34 0 43.5 -14t8.5 -42q-1 -27 -12.5 -44.5t-46.5 -17.5q-29 0 -40.5 14.5t-11.5 45.5zM485 50q0 58 59 58q34 0 43.5 -14t8.5 -42
q-1 -27 -12.5 -44.5t-46.5 -17.5q-29 0 -40.5 14.5t-11.5 45.5z" />
    <glyph glyph-name="perthousand" unicode="&#x2030;" horiz-adv-x="989" 
d="M682 161q0 38 9 70.5t26.5 56t44 37t61.5 13.5q30 0 54 -9t41.5 -29.5t26.5 -54t9 -82.5q0 -80 -34 -127.5t-101 -47.5q-30 0 -55.5 8t-43.5 27.5t-28 53t-10 84.5zM755 161q0 -61 16 -89t48 -28q29 0 46.5 28.5t17.5 90.5q0 65 -16 91.5t-47 26.5q-30 0 -47.5 -30
t-17.5 -90zM44 482q0 37 8.5 69.5t26 55.5t43.5 36.5t61 13.5h1q30 0 54 -8.5t41.5 -28.5t27 -53.5t9.5 -82.5q0 -80 -34 -128.5t-103 -48.5q-31 0 -56 8.5t-42.5 28.5t-27 54t-9.5 84zM380 162q0 38 9 70.5t26.5 56t43.5 37t61 13.5h1q30 0 54 -9t41.5 -29.5t26.5 -54
t9 -82.5q0 -80 -34 -127.5t-102 -47.5q-30 0 -55 8t-43 27.5t-28 53t-10 84.5zM157 -29q-1 0 -7 3t-13 7.5t-12.5 10t-5.5 10.5q12 23 39.5 69.5t62.5 105.5t75.5 126t80 132t74 122t58.5 97q10 17 14 17t17 -8q9 -6 15 -12t8 -14q-11 -19 -35 -60t-56.5 -95.5t-70.5 -119
t-77.5 -129.5t-77 -126.5t-68.5 -111.5q-14 -24 -21 -24zM452 161q0 -61 16 -89t48 -28q29 0 47 28.5t18 90.5q0 65 -16 91.5t-47 26.5t-48.5 -30t-17.5 -90zM117 481q0 -61 16 -89t47 -28q29 0 47 29t18 91q0 64 -16.5 90.5t-45.5 26.5h-1q-29 0 -47 -29.5t-18 -90.5z" />
    <glyph glyph-name="questiondown" unicode="&#xbf;" horiz-adv-x="318" 
d="M93 108q24 32 37 58.5t13 47.5q0 17 -3.5 31t-3.5 22v2q3 5 13.5 8t21.5 3q14 0 27.5 -9t18.5 -29q5 -22 5 -40q0 -30 -12 -58q-8 -17 -18.5 -33t-21.5 -32q-20 -28 -38 -56.5t-18 -60.5q0 -35 19.5 -51t48.5 -16q18 0 37.5 6t42.5 20q10 -1 17.5 -14t7.5 -40
q-7 -12 -21.5 -21.5t-32.5 -15.5t-38 -9t-38 -3q-37 0 -62.5 10t-41 27.5t-22.5 41.5t-7 53q0 49 20.5 86t48.5 72zM167 371q-30 0 -38.5 13.5t-7.5 40.5q1 26 11 43t41 17q26 0 36.5 -14t10.5 -44q0 -56 -53 -56z" />
    <glyph glyph-name="grave" unicode="`" horiz-adv-x="321" 
d="M187 554q-6 7 -22 22.5t-35.5 33.5t-38 35.5t-29.5 28.5q-1 2 -1 6q0 10 7 18q8 12 20 21t23 9h1q4 0 19 -15.5t32 -36.5t33 -43t23 -37q1 -2 1 -5q0 -11 -12 -23.5t-21 -13.5z" />
    <glyph glyph-name="acute" unicode="&#xb4;" horiz-adv-x="335" 
d="M215 725q8 0 17 -4.5t16.5 -11.5t12.5 -15.5t5 -15.5q-2 -3 -11 -12q-14 -14 -30 -29.5t-32 -31.5t-31 -30t-25 -24q-11 2 -21 13.5t-10 23.5q0 5 1 8q12 17 28.5 39.5t32.5 42.5t29 33.5t18 13.5z" />
    <glyph glyph-name="circumflex" unicode="&#x2c6;" horiz-adv-x="398" 
d="M209 709q9 -10 24 -27t30.5 -36.5t30 -39t23.5 -33.5q-7 -11 -19 -22.5t-23 -11.5q-9 0 -19 12q-8 9 -17 20.5t-17 22.5t-15 21t-11 17q-13 -22 -25.5 -40t-26.5 -36q-5 -7 -11 -11.5t-8 -4.5q-12 5 -23 11t-16 14q11 24 34 56.5t45 63.5q11 13 20 18q13 6 24 6z" />
    <glyph glyph-name="tilde" unicode="&#x2dc;" horiz-adv-x="440" 
d="M169 618q-23 -5 -37 -38q-6 -11 -11 -11q-6 0 -13 3.5t-13 8t-10 8.5l-5 5q15 45 38 69.5t60 24.5q21 0 34 -12t27 -26q7 -7 13 -11.5t13 -4.5q16 0 24.5 10.5t13.5 28.5q4 10 12 10q5 0 10.5 -4t10.5 -9t8.5 -10t4.5 -7q-2 -15 -9.5 -31t-19 -29t-27.5 -21.5t-35 -8.5
q-25 0 -37 13.5t-26 27.5q-8 8 -13 11t-13 3z" />
    <glyph glyph-name="dotaccent" unicode="&#x2d9;" horiz-adv-x="299" 
d="M104 630q0 54 50 54q29 0 37 -13t7 -39t-11 -42t-40 -16q-24 0 -33.5 13.5t-9.5 42.5z" />
    <glyph glyph-name="dieresis" unicode="&#xa8;" horiz-adv-x="364" 
d="M55 621q0 52 50 52q28 0 36 -12.5t7 -37.5t-10.5 -40.5t-38.5 -15.5q-24 0 -34 13t-10 41zM212 621q0 52 50 52q28 0 36 -12.5t7 -37.5t-10.5 -40.5t-38.5 -15.5q-24 0 -34 13t-10 41z" />
    <glyph glyph-name="ring" unicode="&#x2da;" horiz-adv-x="393" 
d="M102 666q0 41 27.5 70.5t72.5 29.5q22 0 39.5 -8.5t30.5 -22t20 -31t7 -36.5q0 -42 -28.5 -70t-72.5 -28q-39 0 -67.5 26.5t-28.5 69.5zM151 667q0 -23 14.5 -38t35.5 -15q23 0 36.5 16t13.5 37t-13.5 37.5t-37.5 16.5q-22 0 -35.5 -16.5t-13.5 -37.5z" />
    <glyph glyph-name="cedilla" unicode="&#xb8;" horiz-adv-x="275" 
d="M94 -29q15 1 31.5 0.5t31.5 -4.5q32 -8 53.5 -28t21.5 -49q0 -26 -13.5 -44t-34 -30t-43.5 -18.5t-42 -9.5q-11 2 -17 13t-6 18q0 10 13 13q42 14 60 26t18 32q0 10 -8 17.5t-20.5 12t-27.5 6.5t-29 2q2 9 4.5 22t7.5 21z" />
    <glyph glyph-name="caron" unicode="&#x2c7;" horiz-adv-x="357" 
d="M172 545q-9 10 -23.5 27t-30.5 36.5t-30 39t-23 33.5q6 11 18 22.5t23 11.5q9 0 20 -12q16 -19 33.5 -43t25.5 -38q13 22 26 40l26 36q7 7 12 11.5t7 4.5q12 -5 23 -11t16 -14q-11 -24 -34 -56.5t-45 -63.5q-10 -13 -20 -18q-7 -2 -13 -4t-11 -2z" />
    <glyph glyph-name="emdash" unicode="&#x2014;" horiz-adv-x="817" 
d="M779 244q-15 -12 -32 -15t-35 -3h-685q0 24 1.5 36.5t8.5 17.5q15 10 33.5 13.5t37.5 3.5h682q-1 -23 -2.5 -35.5t-8.5 -17.5z" />
    <glyph glyph-name="AE" unicode="&#xc6;" horiz-adv-x="703" 
d="M469 71q17 -2 40 -2.5t50 -0.5h66.5t59.5 2l1 -1q-2 -38 -9.5 -52t-23.5 -18q-20 -1 -47 -1.5t-65 -0.5q-51 0 -88.5 1.5t-62.5 3.5q-2 10 -3.5 19.5t-3.5 19.5q-3 48 -6 94.5t-5 94.5h-169q-21 -47 -37 -81.5t-27.5 -60.5t-19.5 -45t-15 -34q-3 -7 -8 -11.5t-21 -4.5
q-11 0 -18 1.5t-15 3.5q-5 2 -12 4.5t-15 5.5q18 39 40 87t46 101.5t49.5 109t50 109t46.5 103t41 89.5q5 12 9.5 22t8.5 21q9 5 26.5 8t33.5 4h291q-1 -34 -5 -47.5t-13 -18.5q-16 -2 -37 -3.5t-47 -1.5h-110q2 -53 5 -104.5t5 -104.5h188q-4 -42 -11.5 -56.5t-24.5 -14.5
h-149l6 -120t5 -120zM306 464q-23 -48 -40.5 -87.5t-34.5 -77.5h137l-9 285q-11 -23 -24.5 -53.5t-28.5 -66.5z" />
    <glyph glyph-name="Oslash" unicode="&#xd8;" horiz-adv-x="593" 
d="M103 -28q-5 -4 -12 -4q-10 0 -17 6q-7 5 -12.5 11.5t-7.5 14.5q7 13 21.5 39t28.5 49q-34 46 -48 108.5t-14 131.5q0 102 23.5 173t68.5 113q63 63 165 63q45 0 82 -11.5t66 -37.5q8 13 15 24.5t14 22.5q10 15 13 17h3q13 0 26 -11t14 -20q-2 -7 -7 -18t-11 -23.5
t-13 -25.5t-13 -24q32 -45 47 -104.5t15 -128.5q0 -83 -15 -148.5t-46.5 -110.5t-80 -69t-114.5 -24q-47 0 -85 12t-66 38q-11 -19 -21.5 -35.5t-18.5 -27.5zM137 321q0 -50 8 -90.5t22 -70.5l225 405q-35 38 -97 38q-34 0 -63 -16.5t-50 -51t-33 -88t-12 -126.5zM457 336
q0 51 -8.5 93t-23.5 73q-27 -48 -57 -103t-59.5 -109t-57.5 -104t-52 -88q39 -39 95 -39q36 0 66 13.5t51.5 46t33.5 85.5t12 132z" />
    <glyph glyph-name="OE" unicode="&#x152;" horiz-adv-x="772" 
d="M535 72q15 -2 37.5 -3t45.5 -1h68t65 2l1 -1q-2 -38 -9.5 -52t-22.5 -18q-12 -1 -32 -1.5t-55 -0.5q-54 0 -97 1.5t-73 3.5q-2 5 -3.5 10t-3.5 10v47q-29 -42 -74.5 -61.5t-101.5 -19.5q-68 0 -115 23t-76.5 66.5t-43 106.5t-13.5 143q0 109 26.5 181.5t76.5 114.5
q32 26 69 38.5t84 12.5q55 0 97.5 -18t70.5 -55v47q6 2 18.5 7.5t29.5 6.5h236q-2 -35 -6.5 -48.5t-15.5 -18.5q-11 -3 -26.5 -3.5t-39.5 -0.5h-117v-204h187q-2 -24 -5.5 -38t-8 -21.5t-11 -10t-15.5 -2.5h-147v-243zM128 322q0 -70 12 -120t33.5 -81.5t50.5 -46.5t63 -15
t63 15t50 48t33 85.5t12 126.5q0 77 -12 128.5t-33.5 83t-50 44.5t-61.5 13t-62.5 -16t-51 -50.5t-34 -87.5t-12.5 -126v-1z" />
    <glyph glyph-name="ae" unicode="&#xe6;" horiz-adv-x="625" 
d="M517 213q-12 -1 -26 -1.5t-29 -0.5q-31 0 -63.5 1.5t-58.5 3.5q0 -44 8.5 -73.5t24 -47.5t37.5 -26t50 -8q35 0 63.5 7.5t46.5 16.5q2 -7 3.5 -19t2.5 -21q-1 -14 -15 -27t-28 -18t-38.5 -9t-53.5 -4q-40 0 -76 14t-58 43q-26 -24 -66.5 -40.5t-99.5 -16.5q-48 2 -80 34
t-32 104q0 34 13 64t36 52t54 35t66 13q15 0 28.5 -0.5t27.5 -2.5v31q0 10 -0.5 19t-1.5 17q-7 56 -72 56q-26 0 -49.5 -8t-42.5 -17q-19 -10 -33 -11q-7 10 -11 21t-4 23q0 10 3 16q17 16 61 32.5t102 16.5q83 0 108 -65q23 35 56.5 50t75.5 15q37 0 64.5 -12.5t45.5 -34.5
t27 -52t10 -65q0 -22 -1.5 -44t-5.5 -39q-8 -6 -28.5 -13t-40.5 -9zM175 57q52 0 85 39q-3 29 -5 65t-2 68q-5 1 -11.5 1h-12.5h-9.5t-9.5 -1q-38 -5 -65.5 -26.5t-27.5 -71.5q0 -74 58 -74zM342 278q27 -2 57 -4t56 -2q13 0 23 0.5t18 1.5q9 8 11 26q0 58 -15.5 87
t-55.5 29h-1q-17 0 -32 -7t-28 -23.5t-21.5 -43t-11.5 -64.5z" />
    <glyph glyph-name="dotlessi" unicode="&#x131;" horiz-adv-x="202" 
d="M137 472q5 -11 6.5 -25t1.5 -46v-340q0 -34 -12 -53q-5 -8 -20 -9t-57 -2q0 38 0.5 81.5t0.5 89.5v177q0 35 -0.5 59t-1.5 44q8 16 29.5 20t52.5 4z" />
    <glyph glyph-name="oslash" unicode="&#xf8;" horiz-adv-x="464" 
d="M117 20q-6 -8 -13 -18.5l-13 -19.5t-11 -14.5t-8 -5.5q-11 2 -22 11t-13 22q3 7 16 28t29 45q-21 29 -31.5 70.5t-10.5 93.5q0 125 62 190q53 59 134 59q70 0 111 -35q7 9 13.5 19t12.5 18.5t11 13.5t7 5q13 -2 23.5 -11.5t12.5 -23.5q-5 -10 -17.5 -32t-25.5 -42
q21 -29 31.5 -69t10.5 -88q0 -66 -17 -111.5t-40 -74.5q-23 -32 -57.5 -48.5t-76.5 -16.5q-38 0 -67 8t-51 27zM130 233q0 -53 16 -85q38 58 75.5 117t75.5 118q-12 18 -28 25t-36 7q-43 0 -73 -42.5t-30 -139.5zM235 50q20 0 38.5 9.5t32.5 31t22 56.5t8 86q0 55 -16 93
q-18 -29 -38 -60.5t-40 -62.5t-39.5 -60.5t-35.5 -54.5q13 -23 30 -30.5t38 -7.5z" />
    <glyph glyph-name="oe" unicode="&#x153;" horiz-adv-x="692" 
d="M588 212q-12 -1 -26 -1h-29q-31 0 -63.5 1t-58.5 3q0 -44 8.5 -73.5t24 -47.5t37.5 -25.5t50 -7.5q35 0 63.5 7t46.5 17q2 -8 3.5 -19.5t2.5 -21.5q-1 -14 -15 -27t-28 -18q-14 -4 -38.5 -8t-53.5 -4q-44 0 -83 19.5t-66 54.5q-23 -37 -60.5 -56.5t-83.5 -19.5
t-81.5 13.5t-60 43.5t-37 77t-12.5 113q0 134 69 200q25 23 57.5 36t69.5 13h1q49 0 86.5 -19t60.5 -58q24 40 61.5 58.5t83.5 18.5q37 0 64.5 -12.5t45.5 -34.5t27 -52t10 -65q0 -22 -1.5 -43.5t-5.5 -38.5q-8 -7 -28.5 -14t-40.5 -9zM222 50q19 0 37.5 9.5t32.5 31
t22.5 57t8.5 88.5q0 49 -7.5 83t-20.5 55t-32 30.5t-41 9.5q-21 0 -39 -9.5t-32 -31t-22 -55.5t-8 -83q0 -53 8 -88t21.5 -57t32 -31t39.5 -9zM413 278q27 -3 57 -5t56 -2t41 3q9 6 11 25q0 58 -15.5 87t-55.5 29h-1q-17 0 -32 -7t-28 -23.5t-21.5 -42.5t-11.5 -64z" />
    <glyph glyph-name="germandbls" unicode="&#xdf;" horiz-adv-x="497" 
d="M386 129q-2 17 -9.5 32t-18.5 28q-17 20 -36.5 39t-37.5 36q-21 20 -35.5 44.5t-14.5 55.5q0 38 26 67.5t67 55.5q9 10 16 23.5t7 29.5q0 33 -17.5 53.5t-49.5 25.5q-14 3 -28 3q-5 0 -10.5 -0.5t-11.5 -1.5q-38 -6 -57 -36.5t-24 -90.5q-3 -51 -3 -108q1 -90 1 -171.5
t1 -162.5q0 -15 -0.5 -27.5t-2.5 -23.5q-8 -6 -22.5 -8t-31.5 -2q-18 0 -26.5 3t-8.5 4q0 3 2 13t2 28q0 29 0.5 57.5t0.5 57.5q0 60 -0.5 120.5t-0.5 123.5q-16 16 -22 35.5t-6 40.5q5 5 12 9t17 9v13.5t1 13.5q5 51 27 86.5t58 56.5q25 15 53.5 21.5t57.5 6.5
q8 0 16.5 -0.5t16.5 -1.5q37 -3 64 -16t45 -32.5t27 -43.5t9 -51q0 -29 -10 -47t-22 -29q-15 -11 -30 -21t-27 -21t-19.5 -23.5t-7.5 -27.5q0 -17 11.5 -33t28.5 -32q14 -11 30 -24.5t30 -27.5q25 -24 40 -53t15 -67q0 -36 -12.5 -64t-34.5 -47t-52 -29t-66 -10
q-45 0 -74.5 11t-37.5 24q1 24 12 41q8 12 22 12q11 -6 29 -13t42 -7q17 0 32.5 5t27 14.5t17 23t3.5 30.5z" />
    <glyph glyph-name="trademark" unicode="&#x2122;" horiz-adv-x="478" 
d="M222 421q3 48 8 104t10 111v9t-1 8v5q1 2 11 4q8 0 16 0.5t13 0.5q4 -7 7.5 -15.5t9.5 -23.5q5 -15 11 -30t11 -30q4 -11 8.5 -25t6.5 -18q2 3 6 17t9 25q9 23 18.5 46.5t17.5 45.5q0 5 5 6q3 0 6 1q8 0 16 0.5t14 0.5q2 -5 2 -18q2 -34 3.5 -67t3.5 -67q4 -48 6 -86
q-3 -4 -11 -5t-28 -1q-4 8 -4 18q-1 16 -1 31.5t-1 32.5q-1 10 -0.5 22.5t0.5 25.5v25t-1 21q-5 -15 -11 -32.5t-10 -27.5q-7 -18 -14 -37.5t-15 -39.5q-8 -3 -10 -3h-17q-5 15 -13.5 37.5t-16.5 43.5q-3 8 -8.5 25t-10.5 31q0 -4 0.5 -19.5t0.5 -32.5q0 -28 -2.5 -52.5
t-4.5 -48.5q0 -9 -3 -16q-6 -3 -14 -3q-4 0 -9.5 0.5t-13.5 0.5zM141 627v-151q0 -15 0.5 -27.5t0.5 -23.5q-5 -4 -11.5 -4.5t-26.5 -0.5q-3 7 -3 18v189h-55h-9t-8 1v11q1 5 1.5 8.5t1.5 7.5t3 5.5t4 1.5h4h169q0 -12 -3 -24q-2 -6 -5.5 -8t-5.5 -3h-57z" />
    <glyph glyph-name="divide" unicode="&#xf7;" horiz-adv-x="499" 
d="M48 231q1 35 5.5 51.5t18.5 16.5h379q0 -35 -4.5 -51.5t-20.5 -16.5h-378zM199 111q0 52 52 52q30 0 38.5 -12.5t7.5 -37.5q-1 -24 -10.5 -39.5t-41.5 -15.5q-26 0 -36 13t-10 40zM199 418q0 52 52 52q30 0 38.5 -12.5t7.5 -37.5q-1 -24 -10.5 -39.5t-41.5 -15.5
q-26 0 -36 13t-10 40z" />
    <glyph glyph-name="registered" unicode="&#xae;" horiz-adv-x="396" 
d="M33 524q0 85 44.5 130.5t123.5 45.5t120.5 -43.5t41.5 -131.5q0 -81 -43.5 -129t-122.5 -48q-80 0 -122 43.5t-42 132.5zM81 524q0 -69 30.5 -101t84.5 -32q51 0 85 33.5t34 101.5q0 64 -30 98t-84 34h-1q-53 0 -86 -32.5t-33 -101.5zM170 623h14.5t13.5 -1q61 -1 61 -56
q0 -19 -8.5 -31.5t-20.5 -19.5q8 -9 20 -29.5t18 -47.5v-2q0 -4 -1 -5q-5 -2 -18 -2q-4 0 -5 1q-3 0 -7.5 0.5t-8.5 2.5q-4 26 -12 42t-16 26h-6q-4 4 -13 4h-4v-71q-4 -3 -10.5 -3.5t-23.5 -0.5v188q2 1 3 2t6 1q2 0 3 0.5t3 0.5q4 1 12 1zM223 567q0 13 -7.5 21t-21.5 8
q-5 0 -9 -0.5t-8 -0.5v-63h12q10 0 18 3q16 8 16 32z" />
    <glyph glyph-name="minus" unicode="&#x2212;" horiz-adv-x="499" 
d="M48 231q1 35 5.5 51.5t18.5 16.5h379q-1 -34 -5 -51t-20 -17h-378v0z" />
    <glyph glyph-name="multiply" unicode="&#xd7;" horiz-adv-x="499" 
d="M199 263q-31 32 -61 64.5t-61 64.5q4 16 14 29q16 21 35 21q30 -32 60.5 -64t60.5 -64q26 27 51 53.5t51 53.5q6 6 14 13.5t13 7.5q7 0 18 -9q8 -7 16.5 -16.5t13.5 -16.5q-32 -35 -64.5 -68.5t-64.5 -68.5q28 -29 55.5 -58t55.5 -58q5 -5 8.5 -10.5t6.5 -10.5
q-8 -14 -17 -23q-18 -21 -36 -21q-30 33 -60.5 65.5t-61.5 64.5q-30 -32 -60 -64.5t-60 -65.5q-8 0 -16 5t-19 17q-6 8 -8.5 15.5t-3.5 15.5l60 64z" />
    <glyph glyph-name="copyright" unicode="&#xa9;" horiz-adv-x="578" 
d="M36 428q0 63 19 113t52.5 84t81 52t104.5 18q56 0 102 -17t78.5 -50.5t50 -83.5t17.5 -115q0 -62 -18.5 -111.5t-51.5 -84.5t-79.5 -53.5t-102.5 -18.5q-57 0 -103.5 17t-80 51t-51.5 83.5t-18 115.5zM95 428q0 -103 52 -159.5t142 -56.5q42 0 77.5 15t61 43t40 68.5
t14.5 91.5q0 49 -13 89t-37.5 68.5t-59.5 43.5t-79 15t-80 -14.5t-62.5 -42t-41 -67.5t-14.5 -91v-3zM377 554q0 -6 -2.5 -16t-4.5 -15q-4 -2 -7 -2q-6 0 -12 3q-5 2 -10 3t-12 2q-6 1 -12.5 1h-14.5q-27 -2 -50 -25.5t-23 -79.5q0 -11 3 -20q5 -44 26 -60t56 -16q15 0 30 4
t24 7q2 -5 4 -11l3 -9q-2 -13 -13 -23q-7 -4 -21 -8.5t-38 -4.5q-62 0 -95 32t-33 107q0 42 11 70.5t29.5 46.5t42.5 26t51 8q26 0 45 -6.5t23 -13.5z" />
    <glyph glyph-name="Aacute" unicode="&#xc1;" horiz-adv-x="532" 
d="M421 13q-14 41 -25 80t-28 90h-208q-17 -50 -32.5 -94.5t-26.5 -78.5q-2 -7 -8 -10.5t-23 -3.5q-11 0 -28.5 2t-31.5 5q1 10 3 18.5t5 16.5q21 63 50 144.5t59 165t57 160.5t44 131q5 21 10 21q5 1 10.5 2.5t10.5 1.5q8 2 15 2h12q14 -3 19 -10q17 -51 36.5 -110
t39.5 -119t39 -117.5t35 -105.5q21 -60 36 -106.5t28 -84.5v-2q0 -1 1 -1q0 -3 -4 -7q-9 -3 -26 -5t-30 -2q-9 0 -18 3t-21 14zM182 254h165q-11 35 -20 67.5t-19 62.5q-16 50 -25.5 85.5t-16.5 61.5q-13 -47 -27 -95.5t-35 -111.5zM232 716q-5 1 -9.5 7t-8 12.5t-5.5 12.5
t-2 8l8 10t10 10q16 14 36.5 29.5t40 28t35.5 21t22 8.5q7 -1 13.5 -7t11.5 -14.5t8.5 -18t5.5 -16.5q0 -9 -14 -16q-18 -8 -39 -19t-42 -21.5t-39.5 -19.5t-31.5 -15z" />
    <glyph glyph-name="Acircumflex" unicode="&#xc2;" horiz-adv-x="532" 
d="M421 13q-14 41 -25 80t-28 90h-208q-17 -50 -32.5 -94.5t-26.5 -78.5q-2 -7 -8 -10.5t-23 -3.5q-11 0 -28.5 2t-31.5 5q1 10 3 18.5t5 16.5q21 63 50 144.5t59 165t57 160.5t44 131q5 21 10 21q5 1 10.5 2.5t10.5 1.5q8 2 15 2h12q14 -3 19 -10q17 -51 36.5 -110
t39.5 -119t39 -117.5t35 -105.5q21 -60 36 -106.5t28 -84.5v-2q0 -1 1 -1q0 -3 -4 -7q-9 -3 -26 -5t-30 -2q-9 0 -18 3t-21 14zM182 254h165q-11 35 -20 67.5t-19 62.5q-16 50 -25.5 85.5t-16.5 61.5q-13 -47 -27 -95.5t-35 -111.5zM277 868q10 -7 26 -21t33 -30.5t32.5 -32
t26.5 -25.5q-5 -13 -16.5 -26t-22.5 -13q-12 0 -22 9q-16 13 -36 34t-31 31q-19 -23 -37 -40t-31 -27q-1 -1 -3.5 -2.5t-4.5 -2.5t-4 -1h-1q-14 4 -24.5 13t-13.5 17q7 8 19 21.5t26.5 28.5t28.5 29.5t26 26.5q4 6 14 8.5t15 2.5z" />
    <glyph glyph-name="Adieresis" unicode="&#xc4;" horiz-adv-x="532" 
d="M421 13q-14 41 -25 80t-28 90h-208q-17 -50 -32.5 -94.5t-26.5 -78.5q-2 -7 -8 -10.5t-23 -3.5q-11 0 -28.5 2t-31.5 5q1 10 3 18.5t5 16.5q21 63 50 144.5t59 165t57 160.5t44 131q5 21 10 21q5 1 10.5 2.5t10.5 1.5q8 2 15 2h12q14 -3 19 -10q17 -51 36.5 -110
t39.5 -119t39 -117.5t35 -105.5q21 -60 36 -106.5t28 -84.5v-2q0 -1 1 -1q0 -3 -4 -7q-9 -3 -26 -5t-30 -2q-9 0 -18 3t-21 14zM182 254h165q-11 35 -20 67.5t-19 62.5q-16 50 -25.5 85.5t-16.5 61.5q-13 -47 -27 -95.5t-35 -111.5zM136 787q0 52 50 52q28 0 36 -12.5
t7 -37.5t-10.5 -40.5t-38.5 -15.5q-24 0 -34 13t-10 41zM303 787q0 52 50 52q28 0 36 -12.5t7 -37.5t-10.5 -40.5t-38.5 -15.5q-24 0 -34 13t-10 41z" />
    <glyph glyph-name="Agrave" unicode="&#xc0;" horiz-adv-x="532" 
d="M296 738q-9 4 -26.5 13.5t-38.5 21.5t-43 25t-40 22q-8 5 -11 9q0 10 4 18q3 8 10 16t14 8q2 7 6.5 12t9.5 5t20.5 -9.5t35 -24t39.5 -31t34 -29.5q5 -5 8 -8.5t5 -7.5v-1q0 -3 -3 -9.5t-7 -12.5t-9 -11t-8 -6zM421 13q-14 41 -25 80t-28 90h-208q-17 -50 -32.5 -94.5
t-26.5 -78.5q-2 -7 -8 -10.5t-23 -3.5q-11 0 -28.5 2t-31.5 5q1 10 3 18.5t5 16.5q21 63 50 144.5t59 165t57 160.5t44 131q5 21 10 21q5 1 10.5 2.5t10.5 1.5q8 2 15 2h12q14 -3 19 -10q17 -51 36.5 -110t39.5 -119t39 -117.5t35 -105.5q21 -60 36 -106.5t28 -84.5v-2
q0 -1 1 -1q0 -3 -4 -7q-9 -3 -26 -5t-30 -2q-9 0 -18 3t-21 14zM182 254h165q-11 35 -20 67.5t-19 62.5q-16 50 -25.5 85.5t-16.5 61.5q-13 -47 -27 -95.5t-35 -111.5z" />
    <glyph glyph-name="Aring" unicode="&#xc5;" horiz-adv-x="532" 
d="M168 815q0 41 27.5 70.5t72.5 29.5q22 0 39.5 -8.5t30.5 -22t20 -31t7 -36.5q0 -42 -28.5 -70t-72.5 -28q-39 0 -67.5 26.5t-28.5 69.5zM217 816q0 -23 14.5 -38t35.5 -15q23 0 36.5 16t13.5 37t-13.5 37.5t-37.5 16.5q-22 0 -35.5 -16.5t-13.5 -37.5zM421 13
q-14 41 -25 80t-28 90h-208q-17 -50 -32.5 -94.5t-26.5 -78.5q-2 -7 -8 -10.5t-23 -3.5q-11 0 -28.5 2t-31.5 5q1 10 3 18.5t5 16.5q21 63 50 144.5t59 165t57 160.5t44 131q5 21 10 21q5 1 10.5 2.5t10.5 1.5q8 2 15 2h12q14 -3 19 -10q17 -51 36.5 -110t39.5 -119
t39 -117.5t35 -105.5q21 -60 36 -106.5t28 -84.5v-2q0 -1 1 -1q0 -3 -4 -7q-9 -3 -26 -5t-30 -2q-9 0 -18 3t-21 14zM182 254h165q-11 35 -20 67.5t-19 62.5q-16 50 -25.5 85.5t-16.5 61.5q-13 -47 -27 -95.5t-35 -111.5z" />
    <glyph glyph-name="Atilde" unicode="&#xc3;" horiz-adv-x="532" 
d="M421 13q-14 41 -25 80t-28 90h-208q-17 -50 -32.5 -94.5t-26.5 -78.5q-2 -7 -8 -10.5t-23 -3.5q-11 0 -28.5 2t-31.5 5q1 10 3 18.5t5 16.5q21 63 50 144.5t59 165t57 160.5t44 131q5 21 10 21q5 1 10.5 2.5t10.5 1.5q8 2 15 2h12q14 -3 19 -10q17 -51 36.5 -110
t39.5 -119t39 -117.5t35 -105.5q21 -60 36 -106.5t28 -84.5v-2q0 -1 1 -1q0 -3 -4 -7q-9 -3 -26 -5t-30 -2q-9 0 -18 3t-21 14zM182 254h165q-11 35 -20 67.5t-19 62.5q-16 50 -25.5 85.5t-16.5 61.5q-13 -47 -27 -95.5t-35 -111.5zM219 780q-23 -5 -37 -38q-6 -11 -11 -11
q-6 0 -13 3.5t-13 8t-10 8.5l-5 5q15 45 38 69.5t60 24.5q21 0 34 -12t27 -26q7 -7 13 -11.5t13 -4.5q16 0 24.5 10.5t13.5 28.5q4 10 12 10q5 0 10.5 -4t10.5 -9t8.5 -10t4.5 -7q-2 -15 -9.5 -31t-19 -29t-27.5 -21.5t-35 -8.5q-25 0 -37 13.5t-26 27.5q-8 8 -13 11t-13 3z
" />
    <glyph glyph-name="Ccedilla" unicode="&#xc7;" horiz-adv-x="465" 
d="M227 -29q15 1 31.5 0.5t31.5 -4.5q32 -8 53.5 -28t21.5 -49q0 -26 -13.5 -44t-34 -30t-43.5 -18.5t-42 -9.5q-11 2 -17 13t-6 18q0 10 13 13q42 14 60 26t18 32q0 10 -8 17.5t-20.5 12t-27.5 6.5t-29 2q2 9 4.5 22t7.5 21zM308 677q31 0 55 -5.5t41 -13t27.5 -16
t13.5 -15.5q0 -17 -4 -29.5t-10 -20.5h-4q-5 -1 -12 2t-16 7q-21 10 -47 14q-8 1 -15.5 1.5t-16.5 0.5h-10.5t-10.5 -1q-35 -3 -66 -20t-54 -51t-37 -86t-14 -124q0 -132 48 -193.5t136 -61.5q36 0 69.5 9t50.5 20q6 -11 8 -31q-3 -29 -23 -46q-14 -12 -46 -22t-73 -10
q-61 0 -109.5 16t-83 54.5t-53 101.5t-18.5 157q0 194 86 287q41 44 89 60t99 16z" />
    <glyph glyph-name="Eacute" unicode="&#xc9;" horiz-adv-x="385" 
d="M148 71q15 -2 37.5 -2.5t46.5 -0.5h66t65 2l1 -1q-4 -38 -11 -52t-22 -18q-20 -1 -48 -1.5t-70 -0.5q-47 0 -84.5 1.5t-61.5 3.5q-2 11 -3.5 20.5t-3.5 20.5v479v64t-2 61q8 2 21 8t30 7h242q-2 -36 -6.5 -49t-15.5 -18q-18 -3 -40.5 -3.5t-51.5 -0.5h-89v-204h186
q-3 -24 -6 -38t-7.5 -21.5t-10.5 -10t-15 -2.5h-147v-244zM182 716q-5 1 -9.5 7t-8 12.5t-5.5 12.5t-2 8l8 10t10 10q16 14 36.5 29.5t40 28t35.5 21t22 8.5q7 -1 13.5 -7t11.5 -14.5t8.5 -18t5.5 -16.5q0 -9 -14 -16q-18 -8 -39 -19t-42 -21.5t-39.5 -19.5t-31.5 -15z" />
    <glyph glyph-name="Ecircumflex" unicode="&#xca;" horiz-adv-x="385" 
d="M148 71q15 -2 37.5 -2.5t46.5 -0.5h66t65 2l1 -1q-4 -38 -11 -52t-22 -18q-20 -1 -48 -1.5t-70 -0.5q-47 0 -84.5 1.5t-61.5 3.5q-2 11 -3.5 20.5t-3.5 20.5v479v64t-2 61q8 2 21 8t30 7h242q-2 -36 -6.5 -49t-15.5 -18q-18 -3 -40.5 -3.5t-51.5 -0.5h-89v-204h186
q-3 -24 -6 -38t-7.5 -21.5t-10.5 -10t-15 -2.5h-147v-244zM213 868q10 -7 26 -21t33 -30.5t32.5 -32t26.5 -25.5q-5 -13 -16.5 -26t-22.5 -13q-12 0 -22 9q-16 13 -36 34t-31 31q-19 -23 -37 -40t-31 -27q-1 -1 -3.5 -2.5t-4.5 -2.5t-4 -1h-1q-14 4 -24.5 13t-13.5 17
q7 8 19 21.5t26.5 28.5t28.5 29.5t26 26.5q4 6 14 8.5t15 2.5z" />
    <glyph glyph-name="Edieresis" unicode="&#xcb;" horiz-adv-x="385" 
d="M148 71q15 -2 37.5 -2.5t46.5 -0.5h66t65 2l1 -1q-4 -38 -11 -52t-22 -18q-20 -1 -48 -1.5t-70 -0.5q-47 0 -84.5 1.5t-61.5 3.5q-2 11 -3.5 20.5t-3.5 20.5v479v64t-2 61q8 2 21 8t30 7h242q-2 -36 -6.5 -49t-15.5 -18q-18 -3 -40.5 -3.5t-51.5 -0.5h-89v-204h186
q-3 -24 -6 -38t-7.5 -21.5t-10.5 -10t-15 -2.5h-147v-244zM75 787q0 52 50 52q28 0 36 -12.5t7 -37.5t-10.5 -40.5t-38.5 -15.5q-24 0 -34 13t-10 41zM242 787q0 52 50 52q28 0 36 -12.5t7 -37.5t-10.5 -40.5t-38.5 -15.5q-24 0 -34 13t-10 41z" />
    <glyph glyph-name="Egrave" unicode="&#xc8;" horiz-adv-x="385" 
d="M247 735q-9 4 -26.5 13.5t-38.5 21.5t-43 25t-40 22q-9 7 -11 10q0 9 4 17q3 8 10 16t14 8q2 7 6.5 12t9.5 5t20.5 -9.5t35 -24t39.5 -31t34 -29.5q5 -4 8 -8t5 -8q0 -3 -3 -9t-7 -12.5t-8.5 -12t-8.5 -6.5zM148 71q15 -2 37.5 -2.5t46.5 -0.5h66t65 2l1 -1
q-4 -38 -11 -52t-22 -18q-20 -1 -48 -1.5t-70 -0.5q-47 0 -84.5 1.5t-61.5 3.5q-2 11 -3.5 20.5t-3.5 20.5v479v64t-2 61q8 2 21 8t30 7h242q-2 -36 -6.5 -49t-15.5 -18q-18 -3 -40.5 -3.5t-51.5 -0.5h-89v-204h186q-3 -24 -6 -38t-7.5 -21.5t-10.5 -10t-15 -2.5h-147v-244z
" />
    <glyph glyph-name="Iacute" unicode="&#xcd;" horiz-adv-x="207" 
d="M68 -3q-9 0 -9 19q0 57 0.5 140.5t0.5 175.5q0 57 -0.5 112.5t-0.5 100.5q0 41 -0.5 65t-1.5 31q6 15 25.5 19t56.5 4q6 0 7.5 -15.5t1.5 -50.5q0 -60 -0.5 -129t-0.5 -135q0 -65 0.5 -124t0.5 -107q0 -42 0.5 -64t0.5 -30q-6 -8 -25 -10t-56 -2zM62 716q-5 1 -9.5 7
t-8 12.5t-5.5 12.5t-2 8l8 10t10 10q16 14 36.5 29.5t40 28t35.5 21t22 8.5q7 -1 13.5 -7t11.5 -14.5t8.5 -18t5.5 -16.5q0 -9 -14 -16q-18 -8 -39 -19t-42 -21.5t-39.5 -19.5t-31.5 -15z" />
    <glyph glyph-name="Icircumflex" unicode="&#xce;" horiz-adv-x="207" 
d="M68 -3q-9 0 -9 19q0 57 0.5 140.5t0.5 175.5q0 57 -0.5 112.5t-0.5 100.5q0 41 -0.5 65t-1.5 31q6 15 25.5 19t56.5 4q6 0 7.5 -15.5t1.5 -50.5q0 -60 -0.5 -129t-0.5 -135q0 -65 0.5 -124t0.5 -107q0 -42 0.5 -64t0.5 -30q-6 -8 -25 -10t-56 -2zM113 868q10 -7 26 -21
t33 -30.5t32.5 -32t26.5 -25.5q-5 -13 -16.5 -26t-22.5 -13q-12 0 -22 9q-16 13 -36 34t-31 31q-19 -23 -37 -40t-31 -27q-1 -1 -3.5 -2.5t-4.5 -2.5t-4 -1h-1q-14 4 -24.5 13t-13.5 17q7 8 19 21.5t26.5 28.5t28.5 29.5t26 26.5q4 6 14 8.5t15 2.5z" />
    <glyph glyph-name="Idieresis" unicode="&#xcf;" horiz-adv-x="207" 
d="M68 -3q-9 0 -9 19q0 57 0.5 140.5t0.5 175.5q0 57 -0.5 112.5t-0.5 100.5q0 41 -0.5 65t-1.5 31q6 15 25.5 19t56.5 4q6 0 7.5 -15.5t1.5 -50.5q0 -60 -0.5 -129t-0.5 -135q0 -65 0.5 -124t0.5 -107q0 -42 0.5 -64t0.5 -30q-6 -8 -25 -10t-56 -2zM-28 785q0 22 13 37
t36 15h1q24 0 35.5 -15t11.5 -35q0 -23 -13 -37.5t-36 -14.5t-35.5 12.5t-12.5 37.5zM139 785q0 22 13 37t37 15q25 0 36 -15t11 -35q0 -23 -13 -37.5t-36 -14.5t-35.5 12.5t-12.5 37.5z" />
    <glyph glyph-name="Igrave" unicode="&#xcc;" horiz-adv-x="207" 
d="M144 735q-9 4 -26.5 13.5t-38.5 21.5t-42.5 25t-39.5 22q-8 5 -11 10q0 9 4 17q3 8 9.5 16t13.5 8q2 7 6.5 12t9.5 5t20.5 -9.5t35 -24t39.5 -31t34 -29.5q10 -8 13 -16v-1q0 -3 -3 -9.5t-7 -12.5t-9 -11t-8 -6zM68 -3q-9 0 -9 19q0 57 0.5 140.5t0.5 175.5
q0 57 -0.5 112.5t-0.5 100.5q0 41 -0.5 65t-1.5 31q6 15 25.5 19t56.5 4q6 0 7.5 -15.5t1.5 -50.5q0 -60 -0.5 -129t-0.5 -135q0 -65 0.5 -124t0.5 -107q0 -42 0.5 -64t0.5 -30q-6 -8 -25 -10t-56 -2z" />
    <glyph glyph-name="Ntilde" unicode="&#xd1;" horiz-adv-x="557" 
d="M327 336q26 -49 49.5 -99t40.5 -89v8v10.5t-1 10.5q-1 17 -2 39t-1.5 46t-1 47.5t-0.5 44.5v245q0 19 2 31t7 23q6 4 11.5 6.5t13 3.5t19.5 1h32q-1 -45 -1.5 -96t-0.5 -111v-447q-2 -2 -15.5 -9t-27.5 -7q-7 0 -20 1t-21 4q-32 58 -68.5 121t-74.5 131l-41 75
q-16 32 -32.5 68.5t-32.5 70.5q-8 17 -12.5 27t-11.5 25q3 -57 4.5 -115.5t2.5 -101.5v-236q0 -20 -2 -31.5t-7 -22.5q-4 -5 -9 -7.5t-13.5 -3.5t-21.5 -1.5t-33 -0.5q1 44 1.5 95t0.5 111v427q-3 4 -7.5 9.5t-4.5 7.5v3q0 4 1 6q4 2 12.5 3.5t19 2.5t20.5 1.5t16 0.5
q15 0 30 -9q17 -32 40.5 -73.5t51.5 -89.5q14 -23 27 -46.5t27 -48.5zM232 780q-23 -5 -37 -38q-6 -11 -11 -11q-6 0 -13 3.5t-13 8t-10 8.5l-5 5q15 45 38 69.5t60 24.5q21 0 34 -12t27 -26q7 -7 13 -11.5t13 -4.5q16 0 24.5 10.5t13.5 28.5q4 10 12 10q5 0 10.5 -4
t10.5 -9t8.5 -10t4.5 -7q-2 -15 -9.5 -31t-19 -29t-27.5 -21.5t-35 -8.5q-25 0 -37 13.5t-26 27.5q-8 8 -13 11t-13 3z" />
    <glyph glyph-name="Oacute" unicode="&#xd3;" horiz-adv-x="572" 
d="M129 324q0 -134 44.5 -199.5t114.5 -65.5q73 0 115 66.5t42 208.5q0 71 -12 122t-33.5 83.5t-50.5 48t-63 15.5h-1q-70 0 -113 -67t-43 -212zM289 677q64 0 111.5 -23t78.5 -66.5t46 -107t15 -143.5q0 -167 -63.5 -259.5t-193.5 -92.5q-68 0 -115.5 24t-77.5 68.5
t-44 108t-14 143.5q0 173 66 260.5t191 87.5zM248 719q-5 1 -9.5 7t-8 12.5t-5.5 12.5t-2 8l8 10t10 10q16 14 36.5 29.5t40 28t35.5 21t22 8.5q7 -1 13.5 -7t11.5 -14.5t8.5 -18t5.5 -16.5q0 -9 -14 -16q-18 -8 -39 -19t-42 -21.5t-39.5 -19.5t-31.5 -15z" />
    <glyph glyph-name="Ocircumflex" unicode="&#xd4;" horiz-adv-x="572" 
d="M129 324q0 -134 44.5 -199.5t114.5 -65.5q73 0 115 66.5t42 208.5q0 71 -12 122t-33.5 83.5t-50.5 48t-63 15.5h-1q-70 0 -113 -67t-43 -212zM289 677q64 0 111.5 -23t78.5 -66.5t46 -107t15 -143.5q0 -167 -63.5 -259.5t-193.5 -92.5q-68 0 -115.5 24t-77.5 68.5
t-44 108t-14 143.5q0 173 66 260.5t191 87.5zM296 871q10 -7 26 -21t33 -30.5t32.5 -32t26.5 -25.5q-5 -13 -16.5 -26t-22.5 -13q-12 0 -22 9q-16 13 -36 34t-31 31q-19 -23 -37 -40t-31 -27q-1 -1 -3.5 -2.5t-4.5 -2.5t-4 -1h-1q-14 4 -24.5 13t-13.5 17q7 8 19 21.5
t26.5 28.5t28.5 29.5t26 26.5q4 6 14 8.5t15 2.5z" />
    <glyph glyph-name="Odieresis" unicode="&#xd6;" horiz-adv-x="572" 
d="M130 324q0 -134 44.5 -199.5t114.5 -65.5q73 0 115 66.5t42 208.5q0 71 -12 122t-33.5 83.5t-50.5 48t-63 15.5h-1q-70 0 -113 -67t-43 -212zM290 677q64 0 111.5 -23t78.5 -66.5t46 -107t15 -143.5q0 -167 -63.5 -259.5t-193.5 -92.5q-68 0 -115.5 24t-77.5 68.5
t-44 108t-14 143.5q0 173 66 260.5t191 87.5zM157 787q0 52 50 52q28 0 36 -12.5t7 -37.5t-10.5 -40.5t-38.5 -15.5q-24 0 -34 13t-10 41zM324 787q0 52 50 52q28 0 36 -12.5t7 -37.5t-10.5 -40.5t-38.5 -15.5q-24 0 -34 13t-10 41z" />
    <glyph glyph-name="Ograve" unicode="&#xd2;" horiz-adv-x="572" 
d="M330 739q-9 4 -26.5 13.5t-38.5 21.5t-43 24.5t-40 22.5q-8 5 -11 9q0 10 4 18q3 8 10 15.5t14 7.5q2 7 6.5 12.5t9.5 5.5t20.5 -9.5t35 -24t39.5 -31t34 -29.5q8 -9 13 -16q0 -3 -3 -9t-7 -12.5t-8.5 -12t-8.5 -6.5zM129 324q0 -134 44.5 -199.5t114.5 -65.5
q73 0 115 66.5t42 208.5q0 71 -12 122t-33.5 83.5t-50.5 48t-63 15.5h-1q-70 0 -113 -67t-43 -212zM289 677q64 0 111.5 -23t78.5 -66.5t46 -107t15 -143.5q0 -167 -63.5 -259.5t-193.5 -92.5q-68 0 -115.5 24t-77.5 68.5t-44 108t-14 143.5q0 173 66 260.5t191 87.5z" />
    <glyph glyph-name="Otilde" unicode="&#xd5;" horiz-adv-x="572" 
d="M129 324q0 -134 44.5 -199.5t114.5 -65.5q73 0 115 66.5t42 208.5q0 71 -12 122t-33.5 83.5t-50.5 48t-63 15.5h-1q-70 0 -113 -67t-43 -212zM289 677q64 0 111.5 -23t78.5 -66.5t46 -107t15 -143.5q0 -167 -63.5 -259.5t-193.5 -92.5q-68 0 -115.5 24t-77.5 68.5
t-44 108t-14 143.5q0 173 66 260.5t191 87.5zM238 780q-23 -5 -37 -38q-6 -11 -11 -11q-6 0 -13 3.5t-13 8t-10 8.5l-5 5q15 45 38 69.5t60 24.5q21 0 34 -12t27 -26q7 -7 13 -11.5t13 -4.5q16 0 24.5 10.5t13.5 28.5q4 10 12 10q5 0 10.5 -4t10.5 -9t8.5 -10t4.5 -7
q-2 -15 -9.5 -31t-19 -29t-27.5 -21.5t-35 -8.5q-25 0 -37 13.5t-26 27.5q-8 8 -13 11t-13 3z" />
    <glyph glyph-name="Scaron" unicode="&#x160;" horiz-adv-x="390" 
d="M194 730q-10 7 -26 21t-33 30.5t-33 32t-26 25.5q5 13 16.5 26t22.5 13t22 -9q16 -13 36 -34t31 -31q19 23 37 40t31 27q3 3 8 5q1 0 2 0.5t2 0.5h1q14 -4 24.5 -13t13.5 -17q-7 -8 -19 -21.5t-26.5 -28.5t-28.5 -29.5t-26 -26.5q-4 -6 -14 -8.5t-15 -2.5zM214 677
q60 0 92 -14.5t39 -25.5q0 -24 -15 -48q-5 -3 -11 -3t-18 5q-14 7 -34.5 12t-43.5 5q-44 0 -69.5 -20.5t-25.5 -60.5v-14q3 -18 12.5 -34.5t24.5 -33.5q17 -19 36 -37.5t41 -38.5q17 -16 32 -30t29 -29q31 -32 45 -65t14 -78q0 -82 -49 -132t-143 -50q-50 0 -83 11t-47 24
q-12 11 -12 22q0 13 5.5 29.5t13.5 28.5q21 -18 52.5 -29t67.5 -11q45 0 73 26t28 74q0 32 -14 58t-50 60q-11 13 -24 25.5t-27 26.5q-22 21 -41 39.5t-33 36.5q-25 32 -34.5 59.5t-9.5 55.5q0 29 10 57t31.5 50t55.5 35.5t82 13.5z" />
    <glyph glyph-name="Uacute" unicode="&#xda;" horiz-adv-x="552" 
d="M280 57q49 0 72.5 7t35.5 15q11 51 15.5 113t4.5 125l1 274q0 20 2.5 34.5t7.5 27.5q6 4 11 6t13 3t20 1.5t32 0.5q-1 -39 -1.5 -85.5t-0.5 -102.5v-159q0 -81 -6.5 -147t-20.5 -123q-29 -35 -81 -48.5t-111 -13.5q-57 0 -95.5 16t-62.5 44.5t-36.5 67.5t-17.5 85
q-2 25 -3.5 51t-1.5 55v190q0 49 -0.5 87.5t-1.5 69.5q6 8 25 10.5t57 2.5q7 -12 8.5 -28.5t1.5 -46.5v-277q0 -32 1.5 -59t5.5 -52q11 -66 39 -105t87 -39zM231 716q-5 1 -9.5 7t-8 12.5t-5.5 12.5t-2 8l8 10t10 10q16 14 36.5 29.5t40 28t35.5 21t22 8.5q7 -1 13.5 -7
t11.5 -14.5t8.5 -18t5.5 -16.5q0 -9 -14 -16q-18 -8 -39 -19t-42 -21.5t-39.5 -19.5t-31.5 -15z" />
    <glyph glyph-name="Ucircumflex" unicode="&#xdb;" horiz-adv-x="552" 
d="M280 57q49 0 72.5 7t35.5 15q11 51 15.5 113t4.5 125l1 274q0 20 2.5 34.5t7.5 27.5q6 4 11 6t13 3t20 1.5t32 0.5q-1 -39 -1.5 -85.5t-0.5 -102.5v-159q0 -81 -6.5 -147t-20.5 -123q-29 -35 -81 -48.5t-111 -13.5q-57 0 -95.5 16t-62.5 44.5t-36.5 67.5t-17.5 85
q-2 25 -3.5 51t-1.5 55v190q0 49 -0.5 87.5t-1.5 69.5q6 8 25 10.5t57 2.5q7 -12 8.5 -28.5t1.5 -46.5v-277q0 -32 1.5 -59t5.5 -52q11 -66 39 -105t87 -39zM285 867q10 -7 26 -21t33 -30.5t32.5 -32t26.5 -25.5q-5 -13 -16.5 -26t-22.5 -13q-12 0 -22 9q-16 13 -36 34
t-31 31q-19 -23 -37 -40t-31 -27q-1 -1 -3.5 -2.5t-4.5 -2.5t-4 -1h-1q-14 4 -24.5 13t-13.5 17q7 8 19 21.5t26.5 28.5t28.5 29.5t26 26.5q4 6 14 8.5t15 2.5z" />
    <glyph glyph-name="Udieresis" unicode="&#xdc;" horiz-adv-x="552" 
d="M280 57q49 0 72.5 7t35.5 15q11 51 15.5 113t4.5 125l1 274q0 20 2.5 34.5t7.5 27.5q6 4 11 6t13 3t20 1.5t32 0.5q-1 -39 -1.5 -85.5t-0.5 -102.5v-159q0 -81 -6.5 -147t-20.5 -123q-29 -35 -81 -48.5t-111 -13.5q-57 0 -95.5 16t-62.5 44.5t-36.5 67.5t-17.5 85
q-2 25 -3.5 51t-1.5 55v190q0 49 -0.5 87.5t-1.5 69.5q6 8 25 10.5t57 2.5q7 -12 8.5 -28.5t1.5 -46.5v-277q0 -32 1.5 -59t5.5 -52q11 -66 39 -105t87 -39zM148 787q0 52 50 52q28 0 36 -12.5t7 -37.5t-10.5 -40.5t-38.5 -15.5q-24 0 -34 13t-10 41zM315 787q0 52 50 52
q28 0 36 -12.5t7 -37.5t-10.5 -40.5t-38.5 -15.5q-24 0 -34 13t-10 41z" />
    <glyph glyph-name="Ugrave" unicode="&#xd9;" horiz-adv-x="552" 
d="M313 731q-9 4 -26.5 13.5t-38.5 21.5t-43 25t-40 22q-10 6 -12 10q0 4 2.5 10.5t6 13.5t8.5 12t11 5q3 7 7 12t9 5t20.5 -9.5t35 -24t39.5 -31t34 -29.5q10 -8 13 -16v-1q0 -5 -7 -17q-5 -8 -9.5 -14t-9.5 -8zM280 57q49 0 72.5 7t35.5 15q11 51 15.5 113t4.5 125l1 274
q0 20 2.5 34.5t7.5 27.5q6 4 11 6t13 3t20 1.5t32 0.5q-1 -39 -1.5 -85.5t-0.5 -102.5v-159q0 -81 -6.5 -147t-20.5 -123q-29 -35 -81 -48.5t-111 -13.5q-57 0 -95.5 16t-62.5 44.5t-36.5 67.5t-17.5 85q-2 25 -3.5 51t-1.5 55v190q0 49 -0.5 87.5t-1.5 69.5q6 8 25 10.5
t57 2.5q7 -12 8.5 -28.5t1.5 -46.5v-277q0 -32 1.5 -59t5.5 -52q11 -66 39 -105t87 -39z" />
    <glyph glyph-name="Yacute" unicode="&#xdd;" horiz-adv-x="462" 
d="M208 712q-6 2 -10.5 8t-8.5 14q-6 10 -6 17v1q6 9 17 20q16 14 36.5 29.5t40 28t35.5 21t22 8.5q7 -1 14 -7t12 -14.5t8.5 -18t5.5 -16.5q0 -9 -14 -16q-18 -8 -39 -19t-42 -21.5t-39.5 -19.5t-31.5 -15zM367 657q8 3 15 4.5t16 1.5q8 0 19 -0.5t28 -2.5q2 -8 2 -12
q0 -9 -3 -17t-8 -19q-11 -26 -31.5 -64.5t-43 -79t-42.5 -77t-29 -57.5q-5 -12 -8.5 -25t-5.5 -25v-146q0 -42 0.5 -73.5t0.5 -54.5q-3 -4 -8 -7t-14 -4.5t-23.5 -2t-36.5 -0.5q-8 19 -8 45v235v13t-2 10q-8 22 -21 50.5t-32 64.5q-28 57 -61 119t-59 115l-1 2q0 4 8.5 5.5
t38.5 1.5h50q6 -14 17 -37.5t23.5 -51.5t26 -57.5t25.5 -56t21.5 -48t14.5 -31.5z" />
    <glyph glyph-name="Ydieresis" unicode="&#x178;" horiz-adv-x="462" 
d="M367 657q8 3 15 4.5t16 1.5q8 0 19 -0.5t28 -2.5q2 -8 2 -12q0 -9 -3 -17t-8 -19q-11 -26 -31.5 -64.5t-43 -79t-42.5 -77t-29 -57.5q-5 -12 -8.5 -25t-5.5 -25v-146q0 -42 0.5 -73.5t0.5 -54.5q-3 -4 -8 -7t-14 -4.5t-23.5 -2t-36.5 -0.5q-8 19 -8 45v235v13t-2 10
q-8 22 -21 50.5t-32 64.5q-28 57 -61 119t-59 115l-1 2q0 4 8.5 5.5t38.5 1.5h50q6 -14 17 -37.5t23.5 -51.5t26 -57.5t25.5 -56t21.5 -48t14.5 -31.5zM103 787q0 52 50 52q28 0 36 -12.5t7 -37.5t-10.5 -40.5t-38.5 -15.5q-24 0 -34 13t-10 41zM270 787q0 52 50 52
q28 0 36 -12.5t7 -37.5t-10.5 -40.5t-38.5 -15.5q-24 0 -34 13t-10 41z" />
    <glyph glyph-name="Zcaron" unicode="&#x17d;" horiz-adv-x="467" 
d="M228 725q-10 7 -26 21t-33 30.5t-33 32t-26 25.5q5 13 16.5 26t22.5 13t22 -9q16 -13 36 -34t31 -31q19 23 37 40t31 27q3 3 8 5q1 0 2 0.5t2 0.5h1q14 -4 24.5 -13t13.5 -17q-7 -8 -19 -21.5t-26.5 -28.5t-28.5 -29.5t-26 -26.5q-4 -6 -14 -8.5t-15 -2.5zM45 606
q2 12 4 22.5t4 20.5q2 3 5 9t11 8q12 -2 26.5 -3t34.5 -1h298v-3q0 -4 0.5 -8.5t0.5 -10.5q0 -23 -12 -48q-20 -44 -51 -104.5t-68.5 -130t-78.5 -143.5t-81 -144q44 -2 106 -2.5t120 -0.5q31 0 52 2t29 3q3 -13 1 -32q-5 -14 -14.5 -26t-20.5 -14q-8 -1 -18.5 -1.5t-25 -1
t-34.5 -0.5h-48q-92 0 -151.5 1t-97.5 3q-2 2 -5.5 7.5t-5.5 13.5q0 4 -0.5 7t-0.5 6t0.5 6t0.5 6q40 67 82 140.5t82 145t75.5 138t62.5 121.5h-231q-29 0 -40 3t-11 9v2z" />
    <glyph glyph-name="aacute" unicode="&#xe1;" horiz-adv-x="395" 
d="M57 412q-1 3 -1 11q0 5 2 11q16 15 57 30.5t91 17.5h17t18 -1q56 -4 77 -39.5t21 -99.5v-45q0 -52 -1 -107t-1 -95q-1 -14 2 -25q2 -9 8 -16t18 -5q-1 -11 -1 -21.5v-15.5q-6 -8 -19.5 -15t-33.5 -8q-18 0 -35 12.5t-25 23.5q-5 -5 -13 -11.5t-16 -11.5q-17 -8 -35 -10.5
t-38 -2.5q-24 0 -46.5 7.5t-40 24t-28 41t-10.5 59.5q0 46 18 76t44 48t55 26t52 10q8 1 14.5 1h13.5q19 0 33 -3v57q0 34 -8 52t-40 18q-26 0 -54.5 -8.5t-50.5 -17.5q-18 -8 -29 -8q-7 8 -10 19.5t-5 20.5zM252 103q2 9 2 20.5v27.5v71q-5 1 -10 1h-10q-9 0 -17 -0.5
t-16 -1.5q-18 -3 -34 -9t-28.5 -16.5t-19.5 -26.5t-7 -40q0 -38 15 -53.5t38 -17.5h7q23 0 44.5 9t32.5 22q1 2 1.5 5.5t1.5 8.5zM249 730q8 0 17 -4.5t16.5 -11.5t12.5 -15.5t5 -15.5q-2 -3 -11 -12q-14 -14 -30 -29.5t-32 -31.5t-31 -30t-25 -24q-11 2 -21 13.5t-10 23.5
q0 5 1 8q12 17 28.5 39.5t32.5 42.5t29 33.5t18 13.5z" />
    <glyph glyph-name="acircumflex" unicode="&#xe2;" horiz-adv-x="395" 
d="M57 412q-1 3 -1 11q0 5 2 11q16 15 57 30.5t91 17.5h17t18 -1q56 -4 77 -39.5t21 -99.5v-45q0 -52 -1 -107t-1 -95q-1 -14 2 -25q2 -9 8 -16t18 -5q-1 -11 -1 -21.5v-15.5q-6 -8 -19.5 -15t-33.5 -8q-18 0 -35 12.5t-25 23.5q-5 -5 -13 -11.5t-16 -11.5q-17 -8 -35 -10.5
t-38 -2.5q-24 0 -46.5 7.5t-40 24t-28 41t-10.5 59.5q0 46 18 76t44 48t55 26t52 10q8 1 14.5 1h13.5q19 0 33 -3v57q0 34 -8 52t-40 18q-26 0 -54.5 -8.5t-50.5 -17.5q-18 -8 -29 -8q-7 8 -10 19.5t-5 20.5zM252 103q2 9 2 20.5v27.5v71q-5 1 -10 1h-10q-9 0 -17 -0.5
t-16 -1.5q-18 -3 -34 -9t-28.5 -16.5t-19.5 -26.5t-7 -40q0 -38 15 -53.5t38 -17.5h7q23 0 44.5 9t32.5 22q1 2 1.5 5.5t1.5 8.5zM206 729q9 -10 24 -27t30.5 -36.5t30 -39t23.5 -33.5q-7 -11 -19 -22.5t-23 -11.5q-9 0 -19 12q-8 9 -17 20.5t-17 22.5t-15 21t-11 17
q-13 -22 -25.5 -40t-26.5 -36q-5 -7 -11 -11.5t-8 -4.5q-12 5 -23 11t-16 14q11 24 34 56.5t45 63.5q11 13 20 18q13 6 24 6z" />
    <glyph glyph-name="adieresis" unicode="&#xe4;" horiz-adv-x="395" 
d="M57 412q-1 3 -1 11q0 5 2 11q16 15 57 30.5t91 17.5h17t18 -1q56 -4 77 -39.5t21 -99.5v-45q0 -52 -1 -107t-1 -95q-1 -14 2 -25q2 -9 8 -16t18 -5q-1 -11 -1 -21.5v-15.5q-6 -8 -19.5 -15t-33.5 -8q-18 0 -35 12.5t-25 23.5q-5 -5 -13 -11.5t-16 -11.5q-17 -8 -35 -10.5
t-38 -2.5q-24 0 -46.5 7.5t-40 24t-28 41t-10.5 59.5q0 46 18 76t44 48t55 26t52 10q8 1 14.5 1h13.5q19 0 33 -3v57q0 34 -8 52t-40 18q-26 0 -54.5 -8.5t-50.5 -17.5q-18 -8 -29 -8q-7 8 -10 19.5t-5 20.5zM252 103q2 9 2 20.5v27.5v71q-5 1 -10 1h-10q-9 0 -17 -0.5
t-16 -1.5q-18 -3 -34 -9t-28.5 -16.5t-19.5 -26.5t-7 -40q0 -38 15 -53.5t38 -17.5h7q23 0 44.5 9t32.5 22q1 2 1.5 5.5t1.5 8.5zM65 620q0 52 50 52q28 0 36 -12.5t7 -37.5t-10.5 -40.5t-38.5 -15.5q-24 0 -34 13t-10 41zM222 620q0 52 50 52q28 0 36 -12.5t7 -37.5
t-10.5 -40.5t-38.5 -15.5q-24 0 -34 13t-10 41z" />
    <glyph glyph-name="agrave" unicode="&#xe0;" horiz-adv-x="395" 
d="M57 412q2 -9 5 -20.5t10 -19.5q11 0 29 8q22 9 50.5 17.5t54.5 8.5q32 0 40 -18t8 -52v-57q-14 3 -33 3h-13.5t-14.5 -1q-23 -2 -52 -10t-55 -26t-44 -48t-18 -76q0 -35 10.5 -59.5t28 -41t40 -24t46.5 -7.5q20 0 38 2.5t35 10.5q8 5 16 11.5t13 11.5q8 -11 25 -23.5
t35 -12.5q20 1 33.5 8t19.5 15v15.5t1 21.5q-12 -2 -18 5t-8 16q-3 11 -2 25q0 40 1 95t1 107v45q0 64 -21 99.5t-77 39.5q-13 1 -18 1h-17q-50 -2 -91 -17.5t-57 -30.5q-2 -6 -2 -11q0 -8 1 -11zM252 103q-1 -5 -1.5 -8.5t-1.5 -5.5q-11 -13 -32.5 -22t-44.5 -9h-7
q-23 2 -38 17.5t-15 53.5q0 24 7 40t19.5 26.5t28.5 16.5t34 9q8 1 16 1.5t17 0.5h10t10 -1v-71v-27.5t-2 -20.5zM167 729q5 0 18 -13.5t29 -33.5t32.5 -42.5t28.5 -39.5q1 -3 1 -8q0 -12 -10 -23.5t-21 -13.5q-11 10 -25.5 24t-30.5 30t-32.5 31.5t-29.5 29.5q-9 9 -11 12
q0 7 5 15.5t12.5 15.5t16.5 11.5t17 4.5z" />
    <glyph glyph-name="aring" unicode="&#xe5;" horiz-adv-x="395" 
d="M57 412q-1 3 -1 11q0 5 2 11q16 15 57 30.5t91 17.5h17t18 -1q56 -4 77 -39.5t21 -99.5v-45q0 -52 -1 -107t-1 -95q-1 -14 2 -25q2 -9 8 -16t18 -5q-1 -11 -1 -21.5v-15.5q-6 -8 -19.5 -15t-33.5 -8q-18 0 -35 12.5t-25 23.5q-5 -5 -13 -11.5t-16 -11.5q-17 -8 -35 -10.5
t-38 -2.5q-24 0 -46.5 7.5t-40 24t-28 41t-10.5 59.5q0 46 18 76t44 48t55 26t52 10q8 1 14.5 1h13.5q19 0 33 -3v57q0 34 -8 52t-40 18q-26 0 -54.5 -8.5t-50.5 -17.5q-18 -8 -29 -8q-7 8 -10 19.5t-5 20.5zM252 103q2 9 2 20.5v27.5v71q-5 1 -10 1h-10q-9 0 -17 -0.5
t-16 -1.5q-18 -3 -34 -9t-28.5 -16.5t-19.5 -26.5t-7 -40q0 -38 15 -53.5t38 -17.5h7q23 0 44.5 9t32.5 22q1 2 1.5 5.5t1.5 8.5zM93 645q0 42 28 71.5t72 29.5h1q22 0 40.5 -8.5t31.5 -22.5t20 -32t7 -37q0 -43 -29 -71.5t-72 -28.5q-41 0 -70 27t-29 72zM143 646
q0 -23 14.5 -38.5t36.5 -15.5q23 0 36.5 16t13.5 37t-13.5 38t-37.5 17q-23 0 -36.5 -16.5t-13.5 -37.5z" />
    <glyph glyph-name="atilde" unicode="&#xe3;" horiz-adv-x="397" 
d="M57 412q-1 3 -1 11q0 5 2 11q16 15 57 30.5t91 17.5h17t18 -1q56 -4 77 -39.5t21 -99.5v-45q0 -52 -1 -107t-1 -95q-1 -14 2 -25q2 -9 8 -16t18 -5q-1 -11 -1 -21.5v-15.5q-6 -8 -19.5 -15t-33.5 -8q-18 0 -35 12.5t-25 23.5q-5 -5 -13 -11.5t-16 -11.5q-17 -8 -35 -10.5
t-38 -2.5q-24 0 -46.5 7.5t-40 24t-28 41t-10.5 59.5q0 46 18 76t44 48t55 26t52 10q8 1 14.5 1h13.5q19 0 33 -3v57q0 34 -8 52t-40 18q-26 0 -54.5 -8.5t-50.5 -17.5q-18 -8 -29 -8q-7 8 -10 19.5t-5 20.5zM252 103q2 9 2 20.5v27.5v71q-5 1 -10 1h-10q-9 0 -17 -0.5
t-16 -1.5q-18 -3 -34 -9t-28.5 -16.5t-19.5 -26.5t-7 -40q0 -38 15 -53.5t38 -17.5h7q23 0 44.5 9t32.5 22q1 2 1.5 5.5t1.5 8.5zM147 618q-23 -5 -37 -38q-6 -11 -11 -11q-6 0 -13 3.5t-13 8t-10 8.5l-5 5q15 45 38 69.5t60 24.5q21 0 34 -12t27 -26q7 -7 13 -11.5t13 -4.5
q16 0 24.5 10.5t13.5 28.5q4 10 12 10q5 0 10.5 -4t10.5 -9t8.5 -10t4.5 -7q-2 -15 -9.5 -31t-19 -29t-27.5 -21.5t-35 -8.5q-25 0 -37 13.5t-26 27.5q-8 8 -13 11t-13 3z" />
    <glyph glyph-name="ccedilla" unicode="&#xe7;" horiz-adv-x="373" 
d="M349 442q0 -10 -3.5 -24t-9.5 -25h-5q-5 0 -12 2t-15 4q-29 13 -60 13q-9 0 -14 -1q-47 -4 -77.5 -47t-30.5 -133q0 -54 11 -88t29 -53t41 -26t47 -7q25 0 47.5 5.5t38.5 13.5q2 -8 4 -15.5t2 -12.5q-1 -11 -7 -22t-15 -18q-14 -10 -37.5 -16t-50.5 -6q-41 0 -77 9.5
t-63.5 35.5t-43.5 73t-16 122q0 80 22 130t51 77q29 28 65 38.5t72 10.5q22 0 41 -4.5t33 -10.5t22.5 -13t10.5 -12zM163 -29q15 1 31.5 0.5t31.5 -4.5q32 -8 53.5 -28t21.5 -49q0 -26 -13.5 -44t-34 -30t-43.5 -18.5t-42 -9.5q-11 2 -17 13t-6 18q0 10 13 13q42 14 60 26
t18 32q0 10 -8 17.5t-20.5 12t-27.5 6.5t-29 2q2 9 4.5 22t7.5 21z" />
    <glyph glyph-name="eacute" unicode="&#xe9;" horiz-adv-x="396" 
d="M238 61q32 0 59.5 5.5t51.5 18.5q2 -7 3.5 -19t2.5 -21q-1 -15 -19 -29t-39 -19q-11 -3 -32 -6.5t-44 -3.5q-35 0 -71 9.5t-65 38.5q-53 55 -53 182q0 72 14.5 122.5t40 82t61 46t76.5 14.5q68 0 103 -38t42 -103q1 -11 1.5 -23t0.5 -25q0 -16 -1.5 -31.5t-4.5 -27.5
q-8 -6 -29 -13t-41 -10q-23 -3 -59 -4.5t-71 -1.5h-22.5t-22.5 1q0 -41 9 -69t24.5 -45t37 -24t47.5 -7zM214 417q-6 0 -9 -1q-30 -5 -54.5 -40t-28.5 -108h38q29 0 57 0.5t42 2.5q7 1 12.5 2t10.5 4q5 13 5 33q0 6 -0.5 11.5t-0.5 10.5q-4 42 -21 63.5t-51 21.5zM263 729
q8 0 17 -4.5t16.5 -11.5t12.5 -15.5t5 -15.5q-2 -3 -11 -12q-14 -14 -30 -29.5t-32 -31.5t-31 -30t-25 -24q-11 2 -21 13.5t-10 23.5q0 5 1 8q12 17 28.5 39.5t32.5 42.5t29 33.5t18 13.5z" />
    <glyph glyph-name="ecircumflex" unicode="&#xea;" horiz-adv-x="396" 
d="M238 61q32 0 59.5 5.5t51.5 18.5q2 -7 3.5 -19t2.5 -21q-1 -15 -19 -29t-39 -19q-11 -3 -32 -6.5t-44 -3.5q-35 0 -71 9.5t-65 38.5q-53 55 -53 182q0 72 14.5 122.5t40 82t61 46t76.5 14.5q68 0 103 -38t42 -103q1 -11 1.5 -23t0.5 -25q0 -16 -1.5 -31.5t-4.5 -27.5
q-8 -6 -29 -13t-41 -10q-23 -3 -59 -4.5t-71 -1.5h-22.5t-22.5 1q0 -41 9 -69t24.5 -45t37 -24t47.5 -7zM214 417q-6 0 -9 -1q-30 -5 -54.5 -40t-28.5 -108h38q29 0 57 0.5t42 2.5q7 1 12.5 2t10.5 4q5 13 5 33q0 6 -0.5 11.5t-0.5 10.5q-4 42 -21 63.5t-51 21.5zM220 729
q9 -10 24 -27t30.5 -36.5t30 -39t23.5 -33.5q-7 -11 -19 -22.5t-23 -11.5q-9 0 -19 12q-8 9 -17 20.5t-17 22.5t-15 21t-11 17q-13 -22 -25.5 -40t-26.5 -36q-5 -7 -11 -11.5t-8 -4.5q-12 5 -23 11t-16 14q11 24 34 56.5t45 63.5q11 13 20 18q13 6 24 6z" />
    <glyph glyph-name="edieresis" unicode="&#xeb;" horiz-adv-x="396" 
d="M238 61q32 0 59.5 5.5t51.5 18.5q2 -7 3.5 -19t2.5 -21q-1 -15 -19 -29t-39 -19q-11 -3 -32 -6.5t-44 -3.5q-35 0 -71 9.5t-65 38.5q-53 55 -53 182q0 72 14.5 122.5t40 82t61 46t76.5 14.5q68 0 103 -38t42 -103q1 -11 1.5 -23t0.5 -25q0 -16 -1.5 -31.5t-4.5 -27.5
q-8 -6 -29 -13t-41 -10q-23 -3 -59 -4.5t-71 -1.5h-22.5t-22.5 1q0 -41 9 -69t24.5 -45t37 -24t47.5 -7zM214 417q-6 0 -9 -1q-30 -5 -54.5 -40t-28.5 -108h38q29 0 57 0.5t42 2.5q7 1 12.5 2t10.5 4q5 13 5 33q0 6 -0.5 11.5t-0.5 10.5q-4 42 -21 63.5t-51 21.5zM86 620
q0 52 50 52q28 0 36 -12.5t7 -37.5t-10.5 -40.5t-38.5 -15.5q-24 0 -34 13t-10 41zM243 620q0 52 50 52q28 0 36 -12.5t7 -37.5t-10.5 -40.5t-38.5 -15.5q-24 0 -34 13t-10 41z" />
    <glyph glyph-name="egrave" unicode="&#xe8;" horiz-adv-x="396" 
d="M238 61q-26 0 -47.5 7t-37 24t-24.5 45t-9 69q12 -1 22.5 -1h22.5q35 0 71 1.5t59 4.5q20 3 41 10t29 13q3 12 4.5 27.5t1.5 31.5q0 13 -0.5 25t-1.5 23q-7 65 -42 103t-103 38q-41 0 -76.5 -14.5t-61 -46t-40 -82t-14.5 -122.5q0 -127 53 -182q29 -29 65 -38.5t71 -9.5
q23 0 44 3.5t32 6.5q21 5 39 19t19 29q-1 9 -2.5 21t-3.5 19q-24 -13 -51.5 -18.5t-59.5 -5.5zM214 417q34 0 51 -21.5t21 -63.5q0 -5 0.5 -10.5t0.5 -11.5q0 -20 -5 -33q-5 -3 -10.5 -4t-12.5 -2q-14 -2 -42 -2.5t-57 -0.5h-38q4 73 28.5 108t54.5 40q3 1 9 1zM174 729
q5 0 18 -13.5t29 -33.5t32.5 -42.5t28.5 -39.5q1 -3 1 -8q0 -12 -10 -23.5t-21 -13.5q-11 10 -25.5 24t-30.5 30t-32.5 31.5t-29.5 29.5q-9 9 -11 12q0 7 5 15.5t12.5 15.5t16.5 11.5t17 4.5z" />
    <glyph glyph-name="iacute" unicode="&#xed;" horiz-adv-x="202" 
d="M137 472q5 -11 6.5 -25t1.5 -46v-340q0 -34 -12 -53q-5 -8 -20 -9t-57 -2q0 38 0.5 81.5t0.5 89.5v177q0 35 -0.5 59t-1.5 44q8 16 29.5 20t52.5 4zM155 729q8 0 17 -4.5t16.5 -11.5t12.5 -15.5t5 -15.5q-2 -3 -11 -12q-14 -14 -30 -29.5t-32 -31.5t-31 -30t-25 -24
q-11 2 -21 13.5t-10 23.5q0 5 1 8q12 17 28.5 39.5t32.5 42.5t29 33.5t18 13.5z" />
    <glyph glyph-name="icircumflex" unicode="&#xee;" horiz-adv-x="202" 
d="M137 472q5 -11 6.5 -25t1.5 -46v-340q0 -34 -12 -53q-5 -8 -20 -9t-57 -2q0 38 0.5 81.5t0.5 89.5v177q0 35 -0.5 59t-1.5 44q8 16 29.5 20t52.5 4zM112 729q9 -10 24 -27t30.5 -36.5t30 -39t23.5 -33.5q-7 -11 -19 -22.5t-23 -11.5q-9 0 -19 12q-8 9 -17 20.5t-17 22.5
t-15 21t-11 17q-13 -22 -25.5 -40t-26.5 -36q-5 -7 -11 -11.5t-8 -4.5q-12 5 -23 11t-16 14q11 24 34 56.5t45 63.5q11 13 20 18q13 6 24 6z" />
    <glyph glyph-name="idieresis" unicode="&#xef;" horiz-adv-x="202" 
d="M137 472q5 -11 6.5 -25t1.5 -46v-340q0 -34 -12 -53q-5 -8 -20 -9t-57 -2q0 38 0.5 81.5t0.5 89.5v177q0 35 -0.5 59t-1.5 44q8 16 29.5 20t52.5 4zM-22 620q0 52 50 52q28 0 36 -12.5t7 -37.5t-10.5 -40.5t-38.5 -15.5q-24 0 -34 13t-10 41zM135 620q0 52 50 52
q28 0 36 -12.5t7 -37.5t-10.5 -40.5t-38.5 -15.5q-24 0 -34 13t-10 41z" />
    <glyph glyph-name="igrave" unicode="&#xec;" horiz-adv-x="202" 
d="M137 472q-31 0 -52.5 -4t-29.5 -20q1 -20 1.5 -44t0.5 -59v-177q0 -46 -0.5 -89.5t-0.5 -81.5q42 1 57 2t20 9q12 19 12 53v340q0 32 -1.5 46t-6.5 25zM36 729q5 0 18 -13.5t29 -33.5t32.5 -42.5t28.5 -39.5q1 -3 1 -8q0 -12 -10 -23.5t-21 -13.5q-11 10 -25.5 24
t-30.5 30t-32.5 31.5t-29.5 29.5q-9 9 -11 12q0 7 5 15.5t12.5 15.5t16.5 11.5t17 4.5z" />
    <glyph glyph-name="ntilde" unicode="&#xf1;" horiz-adv-x="452" 
d="M231 408q-27 0 -48.5 -12.5t-37.5 -29.5v-312q0 -16 -2 -26.5t-9 -20.5q-5 -4 -10 -6t-13 -2.5t-21 -1t-33 -0.5q1 41 1.5 89t0.5 106v170q0 24 -3.5 42t-8.5 33q6 8 40 23q3 1 7 1q14 0 21 -8.5t10 -21.5q18 15 35 24.5t34 14.5q16 5 30.5 8t31.5 3q45 0 72.5 -11.5
t43 -34t21 -55.5t5.5 -75v-153q0 -42 0.5 -77.5t1.5 -65.5q-4 -3 -9 -5.5t-14 -4t-23.5 -2t-35.5 -0.5q-8 15 -8 41v265q0 58 -17 81.5t-62 23.5zM178 618q-23 -5 -37 -38q-6 -11 -11 -11q-6 0 -13 3.5t-13 8t-10 8.5l-5 5q15 45 38 69.5t60 24.5q21 0 34 -12t27 -26
q7 -7 13 -11.5t13 -4.5q16 0 24.5 10.5t13.5 28.5q4 10 12 10q5 0 10.5 -4t10.5 -9t8.5 -10t4.5 -7q-2 -15 -9.5 -31t-19 -29t-27.5 -21.5t-35 -8.5q-25 0 -37 13.5t-26 27.5q-8 8 -13 11t-13 3z" />
    <glyph glyph-name="oacute" unicode="&#xf3;" horiz-adv-x="449" 
d="M416 238q0 -63 -14.5 -110t-40.5 -78.5t-61 -47.5t-77 -16q-93 0 -143 58t-50 188q0 64 14.5 111.5t40.5 78t62 45.5t79 15q190 0 190 -244zM123 236q0 -52 7.5 -87.5t21 -57t32.5 -31t41 -9.5q20 0 38 9.5t31.5 31t21.5 56.5t8 87q0 98 -27 139t-72 41h-2
q-20 0 -38 -9.5t-32 -31t-22 -55.5t-8 -83zM278 729q8 0 17 -4.5t16.5 -11.5t12.5 -15.5t5 -15.5q-2 -3 -11 -12q-14 -14 -30 -29.5t-32 -31.5t-31 -30t-25 -24q-11 2 -21 13.5t-10 23.5q0 5 1 8q12 17 28.5 39.5t32.5 42.5t29 33.5t18 13.5z" />
    <glyph glyph-name="ocircumflex" unicode="&#xf4;" horiz-adv-x="449" 
d="M416 238q0 -63 -14.5 -110t-40.5 -78.5t-61 -47.5t-77 -16q-93 0 -143 58t-50 188q0 64 14.5 111.5t40.5 78t62 45.5t79 15q190 0 190 -244zM123 236q0 -52 7.5 -87.5t21 -57t32.5 -31t41 -9.5q20 0 38 9.5t31.5 31t21.5 56.5t8 87q0 98 -27 139t-72 41h-2
q-20 0 -38 -9.5t-32 -31t-22 -55.5t-8 -83zM238 729q9 -10 24 -27t30.5 -36.5t30 -39t23.5 -33.5q-7 -11 -19 -22.5t-23 -11.5q-9 0 -19 12q-8 9 -17 20.5t-17 22.5t-15 21t-11 17q-13 -22 -25.5 -40t-26.5 -36q-5 -7 -11 -11.5t-8 -4.5q-12 5 -23 11t-16 14q11 24 34 56.5
t45 63.5q11 13 20 18q13 6 24 6z" />
    <glyph glyph-name="odieresis" unicode="&#xf6;" horiz-adv-x="449" 
d="M416 238q0 -63 -14.5 -110t-40.5 -78.5t-61 -47.5t-77 -16q-93 0 -143 58t-50 188q0 64 14.5 111.5t40.5 78t62 45.5t79 15q190 0 190 -244zM123 236q0 -52 7.5 -87.5t21 -57t32.5 -31t41 -9.5q20 0 38 9.5t31.5 31t21.5 56.5t8 87q0 98 -27 139t-72 41h-2
q-20 0 -38 -9.5t-32 -31t-22 -55.5t-8 -83zM97 620q0 52 50 52q28 0 36 -12.5t7 -37.5t-10.5 -40.5t-38.5 -15.5q-24 0 -34 13t-10 41zM254 620q0 52 50 52q28 0 36 -12.5t7 -37.5t-10.5 -40.5t-38.5 -15.5q-24 0 -34 13t-10 41z" />
    <glyph glyph-name="ograve" unicode="&#xf2;" horiz-adv-x="449" 
d="M416 238q0 244 -190 244q-43 0 -79 -15t-62 -45.5t-40.5 -78t-14.5 -111.5q0 -130 50 -188t143 -58q42 0 77 16t61 47.5t40.5 78.5t14.5 110zM123 236q0 49 8 83t22 55.5t32 31t38 9.5h2q45 0 72 -41t27 -139q0 -52 -8 -87t-21.5 -56.5t-31.5 -31t-38 -9.5q-22 0 -41 9.5
t-32.5 31t-21 57t-7.5 87.5zM168 729q5 0 18 -13.5t29 -33.5t32.5 -42.5t28.5 -39.5q1 -3 1 -8q0 -12 -10 -23.5t-21 -13.5q-11 10 -25.5 24t-30.5 30t-32.5 31.5t-29.5 29.5q-9 9 -11 12q0 7 5 15.5t12.5 15.5t16.5 11.5t17 4.5z" />
    <glyph glyph-name="otilde" unicode="&#xf5;" horiz-adv-x="449" 
d="M416 238q0 -63 -14.5 -110t-40.5 -78.5t-61 -47.5t-77 -16q-93 0 -143 58t-50 188q0 64 14.5 111.5t40.5 78t62 45.5t79 15q190 0 190 -244zM123 236q0 -52 7.5 -87.5t21 -57t32.5 -31t41 -9.5q20 0 38 9.5t31.5 31t21.5 56.5t8 87q0 98 -27 139t-72 41h-2
q-20 0 -38 -9.5t-32 -31t-22 -55.5t-8 -83zM176 618q-23 -5 -37 -38q-6 -11 -11 -11q-6 0 -13 3.5t-13 8t-10 8.5l-5 5q15 45 38 69.5t60 24.5q21 0 34 -12t27 -26q7 -7 13 -11.5t13 -4.5q16 0 24.5 10.5t13.5 28.5q4 10 12 10q5 0 10.5 -4t10.5 -9t8.5 -10t4.5 -7
q-2 -15 -9.5 -31t-19 -29t-27.5 -21.5t-35 -8.5q-25 0 -37 13.5t-26 27.5q-8 8 -13 11t-13 3z" />
    <glyph glyph-name="scaron" unicode="&#x161;" horiz-adv-x="346" 
d="M188 482q8 0 15.5 -0.5t13.5 -1.5q45 -3 65.5 -17t23.5 -23q0 -10 -4.5 -23.5t-10.5 -21.5q-11 2 -22 3.5t-24 6.5q-23 9 -49 9q-31 0 -49.5 -14.5t-18.5 -37.5q0 -13 7 -25t25 -26q19 -15 48.5 -35.5t52.5 -39.5q32 -26 45.5 -51.5t13.5 -57.5q0 -35 -13 -61t-36 -43.5
t-53.5 -26.5t-64.5 -9q-47 0 -82 12t-43 31q0 12 4 26t12 24h4q11 0 27 -8q16 -7 35.5 -11.5t40.5 -4.5q5 0 9.5 0.5t9.5 1.5q27 3 42.5 19t15.5 41q0 17 -9.5 32.5t-33.5 32.5q-20 14 -42 30.5t-39 30.5l-24 21q-44 43 -44 94q0 58 42 90.5t110 32.5zM165 539
q-9 10 -23.5 27t-30.5 36.5t-30 39t-23 33.5q6 11 18 22.5t23 11.5q9 0 20 -12q16 -19 33.5 -43t25.5 -38q13 22 26 40l26 36q7 7 12 11.5t7 4.5q12 -5 23 -11t16 -14q-11 -24 -34 -56.5t-45 -63.5q-10 -13 -20 -18q-7 -2 -13 -4t-11 -2z" />
    <glyph glyph-name="uacute" unicode="&#xfa;" horiz-adv-x="455" 
d="M308 415q0 16 2 26.5t9 20.5q4 4 9 6t13.5 2.5t21.5 1t33 0.5q-1 -41 -1.5 -89t-0.5 -106v-170q0 -24 3.5 -42t8.5 -33q-6 -8 -40 -23q-3 -1 -7 -1q-14 0 -21 8.5t-10 21.5q-18 -15 -35 -24.5t-34 -14.5q-16 -5 -30.5 -8t-31.5 -3q-44 2 -71 14t-42.5 33.5t-21 52
t-6.5 70.5l10 166q0 43 -0.5 74.5t-1.5 59.5q8 8 26 11t56 3q5 -17 6.5 -38.5t1.5 -59.5l-10 -203q0 -34 5 -55t15 -33t24 -16.5t32 -4.5q26 -2 50.5 8.5t37.5 26.5v318zM276 729q8 0 17 -4.5t16.5 -11.5t12.5 -15.5t5 -15.5q-2 -3 -11 -12q-14 -14 -30 -29.5t-32 -31.5
t-31 -30t-25 -24q-11 2 -21 13.5t-10 23.5q0 5 1 8q12 17 28.5 39.5t32.5 42.5t29 33.5t18 13.5z" />
    <glyph glyph-name="ucircumflex" unicode="&#xfb;" horiz-adv-x="455" 
d="M308 415q0 16 2 26.5t9 20.5q4 4 9 6t13.5 2.5t21.5 1t33 0.5q-1 -41 -1.5 -89t-0.5 -106v-170q0 -24 3.5 -42t8.5 -33q-6 -8 -40 -23q-3 -1 -7 -1q-14 0 -21 8.5t-10 21.5q-18 -15 -35 -24.5t-34 -14.5q-16 -5 -30.5 -8t-31.5 -3q-44 2 -71 14t-42.5 33.5t-21 52
t-6.5 70.5l10 166q0 43 -0.5 74.5t-1.5 59.5q8 8 26 11t56 3q5 -17 6.5 -38.5t1.5 -59.5l-10 -203q0 -34 5 -55t15 -33t24 -16.5t32 -4.5q26 -2 50.5 8.5t37.5 26.5v318zM236 729q9 -10 24 -27t30.5 -36.5t30 -39t23.5 -33.5q-7 -11 -19 -22.5t-23 -11.5q-9 0 -19 12
q-8 9 -17 20.5t-17 22.5t-15 21t-11 17q-13 -22 -25.5 -40t-26.5 -36q-5 -7 -11 -11.5t-8 -4.5q-12 5 -23 11t-16 14q11 24 34 56.5t45 63.5q11 13 20 18q13 6 24 6z" />
    <glyph glyph-name="udieresis" unicode="&#xfc;" horiz-adv-x="455" 
d="M308 415q0 16 2 26.5t9 20.5q4 4 9 6t13.5 2.5t21.5 1t33 0.5q-1 -41 -1.5 -89t-0.5 -106v-170q0 -24 3.5 -42t8.5 -33q-6 -8 -40 -23q-3 -1 -7 -1q-14 0 -21 8.5t-10 21.5q-18 -15 -35 -24.5t-34 -14.5q-16 -5 -30.5 -8t-31.5 -3q-44 2 -71 14t-42.5 33.5t-21 52
t-6.5 70.5l10 166q0 43 -0.5 74.5t-1.5 59.5q8 8 26 11t56 3q5 -17 6.5 -38.5t1.5 -59.5l-10 -203q0 -34 5 -55t15 -33t24 -16.5t32 -4.5q26 -2 50.5 8.5t37.5 26.5v318zM100 620q0 52 50 52q28 0 36 -12.5t7 -37.5t-10.5 -40.5t-38.5 -15.5q-24 0 -34 13t-10 41zM257 620
q0 52 50 52q28 0 36 -12.5t7 -37.5t-10.5 -40.5t-38.5 -15.5q-24 0 -34 13t-10 41z" />
    <glyph glyph-name="ugrave" unicode="&#xf9;" horiz-adv-x="455" 
d="M308 97q-13 -16 -37.5 -26.5t-50.5 -8.5q-18 0 -32 4.5t-24 16.5t-15 33t-5 55l10 203q0 38 -1.5 59.5t-6.5 38.5q-38 0 -56 -3t-26 -11q1 -28 1.5 -59.5t0.5 -74.5l-10 -166q1 -40 6.5 -70.5t21 -52t42.5 -33.5t71 -14q17 0 31.5 3t30.5 8q17 5 34 14.5t35 24.5
q3 -13 10 -21.5t21 -8.5q4 0 7 1q34 15 40 23q-5 15 -8.5 33t-3.5 42v170q0 58 0.5 106t1.5 89q-20 0 -33 -0.5t-21.5 -1t-13.5 -2.5t-9 -6q-7 -10 -9 -20.5t-2 -26.5v-318zM198 729q5 0 18 -13.5t29 -33.5t32.5 -42.5t28.5 -39.5q1 -3 1 -8q0 -12 -10 -23.5t-21 -13.5
q-11 10 -25.5 24t-30.5 30t-32.5 31.5t-29.5 29.5q-9 9 -11 12q0 7 5 15.5t12.5 15.5t16.5 11.5t17 4.5z" />
    <glyph glyph-name="yacute" unicode="&#xfd;" horiz-adv-x="391" 
d="M190 533q-8 2 -14 7.5t-11 12.5q-6 7 -6 16q0 3 2 9q12 17 28 39.5t32 42.5t29.5 33.5t18.5 13.5q13 0 24.5 -9.5t19.5 -20.5q6 -8 6 -17q-1 -4 -11 -12q-14 -14 -30 -29.5t-32 -31.5t-31 -30t-25 -24zM98 475q5 0 11 -14t9 -26q4 -12 10.5 -34t14.5 -49t16.5 -56
t15.5 -55q6 -23 11.5 -44.5t9.5 -40t7 -31.5t5 -17q2 6 5.5 19.5t8 32t10 41t10.5 45.5q13 57 26.5 113.5t24.5 103.5q6 5 12 7t18 2q8 0 18.5 -0.5t25.5 -1.5q5 -10 5 -21q0 -10 -5 -27q-10 -42 -24 -94t-31 -109.5t-36.5 -117.5t-39.5 -116q-21 -53 -40.5 -88.5
t-38.5 -56.5t-37 -30t-34 -9q-35 0 -53.5 10t-22.5 23q0 8 3 17q1 5 3 10q8 3 17 2.5t19 -0.5t20.5 1t22.5 6q10 5 20.5 21.5t20.5 38.5t18 47t13 47q-2 2 -3 2.5t-2 2.5q-7 10 -11 20t-9 26q-2 7 -9 30t-17 55.5t-22 71t-25 78t-25.5 76.5t-22.5 66q5 13 21.5 18t55.5 5z
" />
    <glyph glyph-name="ydieresis" unicode="&#xff;" horiz-adv-x="391" 
d="M98 475q5 0 11 -14t9 -26q4 -12 10.5 -34t14.5 -49t16.5 -56t15.5 -55q6 -23 11.5 -45.5t10 -40.5t7.5 -31t4 -16q2 5 5.5 19t8 32.5t10 41t10.5 45.5q13 57 26.5 113.5t24.5 103.5q6 5 12 7t18 2q8 0 18.5 -0.5t25.5 -1.5q5 -10 5 -21q0 -10 -5 -27q-10 -42 -24 -94
t-31 -109.5t-36.5 -117.5t-39.5 -116q-21 -53 -40.5 -88.5t-38.5 -56.5t-37 -30t-34 -9q-35 0 -53.5 10t-22.5 23q0 8 3 17q1 5 3 10q8 3 17 2.5t19 -0.5t20.5 1t22.5 6q10 5 20.5 21.5t20.5 38.5t18 47t13 47q-2 2 -3 2.5t-2 2.5q-7 10 -11 20t-9 26q-2 7 -9 30t-17 55.5
t-22 71t-25 78t-25.5 76.5t-22.5 66q5 13 21.5 18t55.5 5zM80 620q0 52 50 52q28 0 36 -12.5t7 -37.5t-10.5 -40.5t-38.5 -15.5q-24 0 -34 13t-10 41zM237 620q0 52 50 52q28 0 36 -12.5t7 -37.5t-10.5 -40.5t-38.5 -15.5q-24 0 -34 13t-10 41z" />
    <glyph glyph-name="zcaron" unicode="&#x17e;" horiz-adv-x="378" 
d="M56 474q18 -4 38.5 -4.5t48.5 -0.5h194v-3q0 -5 1 -9.5t1 -12.5q1 -12 -11 -37q-15 -29 -36 -68t-46 -83t-52.5 -92t-54.5 -95q22 -1 51 -1.5t58 -0.5q42 0 71.5 2.5t35.5 4.5q0 -8 -0.5 -17t-2.5 -17q-4 -31 -20 -36q-17 -3 -40.5 -4t-68.5 -1q-48 0 -97 0.5t-86 2.5
l-7 10.5t-7 20.5q1 10 9 24q21 35 47 78t53 89t53.5 92t48.5 87h-107q-12 0 -22.5 -0.5t-21.5 -0.5q-52 0 -52 10v2q6 56 22 60zM178 539q-9 10 -23.5 27t-30.5 36.5t-30 39t-23 33.5q6 11 18 22.5t23 11.5q9 0 20 -12q16 -19 33.5 -43t25.5 -38q13 22 26 40l26 36
q7 7 12 11.5t7 4.5q12 -5 23 -11t16 -14q-11 -24 -34 -56.5t-45 -63.5q-10 -13 -20 -18q-7 -2 -13 -4t-11 -2z" />
    <glyph glyph-name="braceleft" unicode="{" horiz-adv-x="325" 
d="M166 619q-1 -8 0 -18.5t3 -17.5q4 -13 10 -27.5t13 -29.5q12 -29 23.5 -59.5t11.5 -60.5q0 -42 -17 -66.5t-56 -38.5q37 -14 55.5 -37.5t18.5 -63.5q0 -9 -2 -18l-4 -18q-5 -26 -13 -50t-18 -47q-7 -18 -12.5 -35t-10.5 -32q-2 -8 -3 -14t-1 -14q0 -29 19 -50t54 -28
q6 -2 12 -2.5t11 -1.5l16 -3q7 -1 9 -5q0 -2 0.5 -3t0.5 -2q0 -5 -2.5 -11t-5.5 -12q-2 -3 -4 -8t-3 -7q-95 2 -140 35q-49 35 -49 102q0 31 11 63.5t25 64.5q8 19 14 36.5t11 34.5q2 8 3.5 17.5t-0.5 20.5q-1 9 -4 18t-11 16.5t-22 13.5t-38 8q-16 1 -26 15q-7 10 -7 23
q0 8 2 16q33 1 54 7.5t32 15.5t15.5 20t4.5 21q1 7 0 16t-3 17q-5 16 -11 33t-14 35q-13 31 -24 61t-11 57q0 41 21.5 71t61.5 47q21 9 49 15t57 8q2 -5 3.5 -10.5t3.5 -8.5q2 -6 4 -10.5t2 -7.5t-2 -5q-2 -5 -7 -6q-9 -2 -21 -4l-17 -4q-22 -5 -35.5 -14.5t-21.5 -20
t-11 -20.5t-4 -17z" />
    <glyph glyph-name="Eth" unicode="&#xd0;" horiz-adv-x="527" 
d="M213 665q83 0 137 -23t86 -64.5t44.5 -98t12.5 -123.5q0 -103 -20.5 -175t-70.5 -120q-22 -20 -46 -33t-48.5 -20.5t-48 -10t-43.5 -2.5q-44 0 -80.5 2.5t-75.5 7.5v316h-60q1 35 5.5 51.5t18.5 16.5h36v199q0 30 2 43.5t10 24.5q9 1 25 2.5t35.5 3t40.5 2.5t40 1z
M219 66q32 0 63.5 11.5t57 43t41 88.5t15.5 147q0 114 -34.5 168t-102.5 65q-27 6 -60 6q-30 0 -51 -3v-203h125q-1 -34 -5 -51t-20 -17h-100v-250q15 -2 33 -3.5t38 -1.5z" />
    <glyph glyph-name="eth" unicode="&#xf0;" horiz-adv-x="450" 
d="M373 665q16 6 21 1q7 -4 7 -21q0 -21 -3.5 -32.5t-17.5 -20.5l-22 -14q-8 -5 -16.5 -10t-10.5 -7q42 -54 69 -134t27 -171q0 -61 -15.5 -111t-41.5 -86q-26 -35 -62 -53.5t-78 -18.5q-90 0 -144 68q-24 31 -39 73t-15 90q0 55 18 99.5t50 78.5q21 21 42 34t40 20t35.5 9
t28.5 2q36 0 68 -12q-20 49 -43 78q-14 -8 -28 -15.5t-27 -15.5q-28 -16 -58 -32q-8 -5 -12.5 -4t-7.5 3t-5.5 8t-2.5 18q0 17 4.5 26t9.5 17q18 10 34 19q14 8 26 15t17 9q-28 21 -61.5 35t-69.5 19l-8 22l18 25q10 13 25 13t36 -6.5t43.5 -17t44 -24.5t38.5 -29
q11 6 21.5 12.5t21.5 13.5t21.5 14.5t21.5 12.5zM125 224q0 -49 12 -81t29.5 -51t38 -26.5t37.5 -7.5q51 0 72 53t21 147q0 58 -11 104q-16 18 -36 25t-41 7q-29 0 -49 -11t-38 -34q-17 -22 -26 -54.5t-9 -70.5z" />
    <glyph glyph-name="Lslash" unicode="&#x141;" horiz-adv-x="377" 
d="M148 322v-249q19 -2 44.5 -3t51.5 -1q28 0 59.5 0.5t57.5 2.5q1 -8 1 -15.5v-15.5q-2 -13 -9.5 -25.5t-22.5 -16.5q-15 -1 -38.5 -1.5t-60.5 -0.5q-51 0 -93 1.5t-71 3.5l-4 26l-4 26v216l-41 -23q-17 31 -21 47.5t8 23.5l54 31v193q0 35 -0.5 61.5t-1.5 44.5q8 10 25 13
t58 3q5 -11 6.5 -27t1.5 -45v-192l72 42q17 -29 22 -46t-9 -25z" />
    <glyph glyph-name="lslash" unicode="&#x142;" horiz-adv-x="225" 
d="M143 319v-185q0 -33 0.5 -66t1.5 -59q-7 -8 -26.5 -10t-54.5 -2q-7 27 -7 64v208l-39 -22q-17 31 -21 47.5t8 23.5l52 30v220q0 37 -0.5 63.5t-1.5 49.5q8 17 29 21.5t52 4.5q5 -15 6 -35t1 -58v-217l77 45q17 -29 22 -46t-9 -25z" />
    <glyph glyph-name="less" unicode="&#x3c;" horiz-adv-x="458" 
d="M376 549q5 -9 8 -22.5t3 -20.5q-67 -52 -121 -92q-23 -17 -45.5 -34t-40.5 -30.5t-29.5 -22.5t-13.5 -10q2 -2 13.5 -10.5t29.5 -21.5t40 -29t45 -33q54 -40 121 -88q0 -8 -3 -24.5t-8 -24.5q-8 -12 -17 -14q-11 -2 -22 7l-274 204q-6 5 -11 11.5t-5 15.5q0 22 9 33
q74 56 135 102q25 19 50.5 38.5t45.5 35t33.5 26t16.5 12.5q13 10 21 9q12 -3 19 -17z" />
    <glyph glyph-name="greater" unicode="&#x3e;" horiz-adv-x="455" 
d="M77 84q-5 10 -7.5 23t-3.5 21l122 92q23 17 45 34t40 30.5t29.5 22t13.5 10.5q-2 1 -13.5 9.5t-29.5 21.5t-40 29t-45 33q-54 39 -121 88q0 8 3 24.5t8 24.5q8 13 18 14q11 2 21 -7l275 -204q6 -5 11 -11.5t5 -14.5q0 -24 -10 -34q-75 -57 -135 -103q-26 -20 -51 -38.5
t-45.5 -34t-33.5 -26t-16 -12.5q-12 -11 -21 -9q-12 3 -19 17z" />
    <glyph glyph-name="Euro" unicode="&#x20ac;" horiz-adv-x="465" 
d="M320 602h-10.5t-10.5 -1q-53 -5 -96 -43t-62 -119l234 24q2 -27 -1.5 -46t-21.5 -21l-222 -23q-1 -13 -1.5 -26t-0.5 -27v-15.5t1 -14.5l180 18q2 -27 -1.5 -46t-21.5 -21l-150 -16q16 -82 61 -121t115 -39q36 0 69.5 9t50.5 20q6 -11 8 -31q-3 -29 -23 -46
q-14 -12 -46 -22t-73 -10q-52 0 -95 11.5t-76 38.5t-55.5 71t-31.5 109l-42 -4q-2 19 -1 37.5t6 23.5q8 5 23 7l9 1q-1 8 -1 16.5v17.5v25t2 24l-38 -4q-2 19 -1 37.5t6 23.5q8 5 23 7l17 2q18 109 77 172q41 44 89 60t99 16q31 0 55 -5.5t41 -13t27.5 -16t13.5 -15.5
q0 -17 -4 -29.5t-10 -20.5h-4q-5 -1 -12 2t-16 7q-36 16 -79 16z" />
    <glyph glyph-name="asciicircum" unicode="^" horiz-adv-x="389" 
d="M200 683q6 -7 17.5 -25t25 -42t28.5 -51t28.5 -52t24 -45t16.5 -29q-7 -11 -19 -22.5t-23 -11.5q-8 0 -19 13q-5 6 -13 20t-17.5 32.5t-19 38.5t-18 38t-15 31t-9.5 18q-6 -11 -17.5 -36t-24 -53t-24 -52t-18.5 -33q-5 -6 -11 -10.5t-8 -4.5q-12 4 -23 10.5t-16 14.5
q6 12 20 43t30.5 67t33 69t27.5 48q11 13 20 18q13 6 24 6z" />
    <glyph glyph-name="braceright" unicode="}" horiz-adv-x="325" 
d="M158 619q-1 7 -4 17t-11 20.5t-21.5 20t-35.5 14.5l-17 4q-12 2 -21 4q-5 1 -7 6q-2 2 -2 5t2 7.5t4 10.5q2 3 3.5 8.5t3.5 10.5q29 -2 57 -8t49 -15q40 -17 61.5 -47t21.5 -71q0 -27 -11 -57t-24 -61q-8 -18 -14 -35t-11 -33q-2 -8 -3 -17t0 -16q0 -10 4.5 -21t15.5 -20
t32 -15.5t54 -7.5q2 -8 2 -16q0 -13 -7 -23q-10 -14 -26 -15q-47 -5 -60.5 -21.5t-14.5 -34.5q-2 -11 -0.5 -20.5t3.5 -17.5q5 -17 11 -34.5t14 -36.5q14 -32 25 -64.5t11 -63.5q0 -67 -49 -102q-45 -33 -140 -35q-1 2 -3 7t-4 8q-3 6 -5.5 12t-2.5 11q0 1 0.5 2t0.5 3
q2 4 9 5l16 3q5 1 11 1.5t12 2.5q35 7 54 28t19 50q0 8 -1 14t-3 14q-5 15 -10.5 32t-12.5 35q-10 23 -18 47t-13 50l-4 18t-2 18q0 40 18.5 63.5t55.5 37.5q-39 14 -56 38.5t-17 66.5q0 30 11.5 60.5t23.5 59.5q7 15 13 29.5t10 27.5q2 7 3 17.5t0 18.5z" />
    <glyph glyph-name="asciitilde" unicode="~" horiz-adv-x="500" 
d="M62 187q-14 1 -22 2.5t-15 4.5q7 55 21 88t30.5 51t34.5 24t35 6q35 -2 64 -17.5t55 -39.5q24 -21 46.5 -39t45.5 -18q26 0 39 22t18 60q2 10 4.5 17t5.5 13q11 0 27.5 -4.5t24.5 -10.5q-5 -47 -15.5 -78.5t-25.5 -50t-34 -26t-40 -7.5q-18 0 -36.5 7t-36.5 18.5
t-35.5 25.5t-35.5 29q-21 18 -36.5 26.5t-29.5 8.5q-10 0 -19.5 -4t-18 -15t-15 -31.5t-11.5 -53.5q-8 -8 -25 -8z" />
    <glyph glyph-name="glyph204" horiz-adv-x="532" 
d="M136 787q0 52 50 52q28 0 36 -12.5t7 -37.5t-10.5 -40.5t-38.5 -15.5q-24 0 -34 13t-10 41zM303 787q0 52 50 52q28 0 36 -12.5t7 -37.5t-10.5 -40.5t-38.5 -15.5q-24 0 -34 13t-10 41z" />
    <glyph glyph-name="glyph205" horiz-adv-x="396" 
d="M86 620q0 52 50 52q28 0 36 -12.5t7 -37.5t-10.5 -40.5t-38.5 -15.5q-24 0 -34 13t-10 41zM243 620q0 52 50 52q28 0 36 -12.5t7 -37.5t-10.5 -40.5t-38.5 -15.5q-24 0 -34 13t-10 41z" />
    <glyph glyph-name="glyph206" horiz-adv-x="532" 
d="M232 716q-5 1 -9.5 7t-8 12.5t-5.5 12.5t-2 8l8 10t10 10q16 14 36.5 29.5t40 28t35.5 21t22 8.5q7 -1 13.5 -7t11.5 -14.5t8.5 -18t5.5 -16.5q0 -9 -14 -16q-18 -8 -39 -19t-42 -21.5t-39.5 -19.5t-31.5 -15z" />
    <glyph glyph-name="glyph207" horiz-adv-x="557" 
d="M232 780q-23 -5 -37 -38q-6 -11 -11 -11q-6 0 -13 3.5t-13 8t-10 8.5l-5 5q15 45 38 69.5t60 24.5q21 0 34 -12t27 -26q7 -7 13 -11.5t13 -4.5q16 0 24.5 10.5t13.5 28.5q4 10 12 10q5 0 10.5 -4t10.5 -9t8.5 -10t4.5 -7q-2 -15 -9.5 -31t-19 -29t-27.5 -21.5t-35 -8.5
q-25 0 -37 13.5t-26 27.5q-8 8 -13 11t-13 3z" />
    <glyph glyph-name="glyph208" horiz-adv-x="395" 
d="M167 728q5 0 18 -13.5t29 -33.5t32.5 -42.5t28.5 -39.5q1 -3 1 -8q0 -12 -10 -23.5t-21 -13.5q-11 10 -25.5 24t-30.5 30t-32.5 31.5t-29.5 29.5q-9 9 -11 12q0 7 5 15.5t12.5 15.5t16.5 11.5t17 4.5z" />
    <glyph glyph-name="glyph209" horiz-adv-x="395" 
d="M93 645q0 42 28 71.5t72 29.5h1q22 0 40.5 -8.5t31.5 -22.5t20 -32t7 -37q0 -43 -29 -71.5t-72 -28.5q-41 0 -70 27t-29 72zM143 646q0 -23 14.5 -38.5t36.5 -15.5q23 0 36.5 16t13.5 37t-13.5 38t-37.5 17q-23 0 -36.5 -16.5t-13.5 -37.5z" />
    <glyph glyph-name="apple" unicode="&#xf8ff;" horiz-adv-x="500" 
d="M140 472q5 -8 6.5 -21.5t1.5 -42.5v-318q0 -69 -6 -127q-3 -30 -9.5 -55.5t-19.5 -45.5q-31 -49 -88 -57q-6 -1 -12 -1h-11q-22 0 -34 4q-30 5 -35 33q0 7 1.5 15.5t4.5 13.5q2 0 4.5 -0.5t5.5 -0.5q30 0 65 16q25 11 34 35t11 70q1 18 1.5 38t0.5 42v255q0 40 -0.5 69
t-1.5 54q8 16 29 20t52 4zM55 642q0 56 53 56q30 0 38.5 -13.5t7.5 -40.5q-1 -26 -11 -43t-41 -17q-26 0 -36.5 14t-10.5 44z" />
    <glyph glyph-name="section" unicode="&#xa7;" horiz-adv-x="473" 
d="M81 472q0 -35 16 -67.5t41 -63t56 -58t60.5 -51.5t54.5 -44.5t38 -35.5q31 -39 31 -80q0 -5 -0.5 -9t-1.5 -9q-4 -42 -28 -66.5t-48 -35.5q-20 -11 -45.5 -16t-52.5 -5h-13q-22 1 -44 5t-36 9q-9 5 -7 24.5t6 38.5q20 -8 49.5 -12.5t57.5 -4.5q39 0 66 17.5t27 52.5v5.5
t-2 7.5q-4 26 -31 53q-33 33 -75 66t-79 71t-62.5 83t-25.5 103q0 37 10.5 66t24.5 47q11 13 22 19t18 7q11 0 8 -8q-14 -20 -24.5 -47t-10.5 -62zM196 603q-2 -24 9 -38.5t24 -27.5q31 -31 68.5 -60t70.5 -62.5t55.5 -74t22.5 -94.5q0 -17 -3 -35q-4 -26 -18 -48.5
t-46 -33.5q-3 -1 -5.5 1t-0.5 5q5 12 9 24.5t7 26.5q5 27 0 55.5t-17.5 55t-29.5 49.5t-36 38q-18 15 -39 31t-41.5 32.5t-38.5 32.5t-30 31q-31 40 -31 80q0 5 0.5 9.5t1.5 9.5q4 42 28 66t48 35q40 21 101 19q30 0 50.5 -7t31.5 -15q10 -10 3 -26t-14 -26q-22 8 -42 12.5
t-45 4.5q-39 0 -66 -17.5t-27 -52.5z" />
    <glyph glyph-name="mu" unicode="&#xb5;" horiz-adv-x="455" 
d="M394 107q0 -24 3.5 -42t8.5 -33q-6 -8 -40 -23q-3 -1 -7 -1q-14 0 -21 8.5t-10 21.5q-19 -15 -35.5 -24.5t-33.5 -14.5q-16 -5 -30.5 -8t-31.5 -3q-42 2 -68 13v-165q-4 -13 -10.5 -21.5t-20.5 -8.5q-4 0 -7 1q-17 8 -29.5 14t-16.5 11q5 16 8.5 33.5t3.5 41.5v266
l-1 151q0 43 -0.5 74.5t-1.5 59.5q8 8 26 11t56 3q5 -17 6.5 -38.5t1.5 -59.5l-1 -203q0 -34 5.5 -55t15 -33t24 -16.5t32.5 -4.5q26 -2 50.5 8.5t37.5 26.5v318q0 16 2 26.5t9 20.5q4 4 9 6t13.5 2.5t21.5 1t33 0.5q-1 -41 -1.5 -89t-0.5 -106v-170v0z" />
    <glyph glyph-name="sterling" unicode="&#xa3;" horiz-adv-x="482" 
d="M217 326q4 -19 7.5 -46t3.5 -49q0 -8 -1 -17.5t-2 -20.5q-6 -59 -46 -104q32 -7 71.5 -11t71.5 -4q11 0 28.5 0.5t37 1t40 2.5t37.5 5q1 -7 0.5 -17.5t-2.5 -20.5q-2 -21 -19 -32q-9 -8 -25 -13q-22 -5 -47 -7t-57 -2q-54 0 -120 6.5t-141 20.5l1 57q34 18 53.5 52
t24.5 80q1 5 1 9.5v9.5q0 22 -4 45t-9 45l-60 -6q-2 19 -1 37.5t6 23.5q8 5 23 7l17 2q-3 15 -5 37.5t-2 42.5q6 100 53 158q49 60 134 66q31 0 55 -5.5t41 -13t27.5 -16t13.5 -15.5q0 -17 -4 -29.5t-10 -20.5q-6 -2 -14.5 1t-17.5 8q-8 4 -20 8t-27 6q-11 2 -23.5 2.5
t-23.5 -1.5q-40 -7 -61.5 -43t-25.5 -93q-1 -5 -1 -10v-10q0 -15 2 -31t5 -31l170 17q2 -27 -1.5 -46t-21.5 -21l-132 -14v0z" />
    <glyph glyph-name="dagger" unicode="&#x2020;" horiz-adv-x="500" 
d="M220 594q14 2 30.5 5t29.5 3q6 0 9 -5q4 -7 4.5 -15.5t0.5 -19.5q-1 -21 -1 -41.5v-40.5q0 -18 -0.5 -36t-0.5 -36h161q4 0 8 -4q2 -4 2 -6v-3l-2 -11q-5 -17 -8 -28.5t-7 -21.5q-2 -7 -9 -7q-12 0 -30 -0.5t-38.5 -0.5h-40.5h-36v-88v-99t-0.5 -102t-1.5 -98q0 -3 -1 -5
q-11 -22 -29 -40t-36 -18q-8 0 -9 6q-6 16 -9 46t-4 57q-1 67 -1 122.5v100.5v41t1 38v39h-152q-4 0 -7 3t-3 7q2 38 14 66q4 6 9 6h139v175q0 7 8 9l10 2v0z" />
    <glyph glyph-name="daggerdbl" unicode="&#x2021;" horiz-adv-x="500" 
d="M51 117q-5 0 -7 2q-3 2 -3 7q0 20 4.5 36t9.5 30q2 2 3.5 4t6.5 2h137v129l-151 1q-6 0 -7 3q-3 1 -3 7q0 19 4.5 35.5t9.5 30.5l3.5 3.5t6.5 1.5h137v164q0 5 10 8q3 1 6 1.5t8 1.5q14 2 28 4.5t25 2.5q6 0 10 -4q3 -8 5 -16.5t2 -21.5q0 -35 -1.5 -70t-1.5 -70h161
q7 0 7 -4q3 -1 3 -6v-2l-3 -12q-3 -17 -6 -28t-8 -22q0 -7 -8 -7h-31.5t-38.5 -0.5t-40 -0.5h-36v-129h161q7 0 7 -3q3 -3 3 -7v-3l-3 -11q-6 -32 -14 -49q0 -7 -8 -7q-13 0 -31.5 -0.5t-38.5 -0.5h-40h-36q0 -45 -0.5 -92.5t-2.5 -95.5q0 -4 -1 -4q-11 -28 -27.5 -43.5
t-35.5 -15.5q-5 0 -10 7q-3 11 -7 36.5t-4 57.5q-2 37 -2.5 76.5t-0.5 73.5h-151z" />
    <glyph glyph-name="degree" unicode="&#xb0;" horiz-adv-x="355" 
d="M93 645q0 42 28 71.5t72 29.5h1q22 0 40.5 -8.5t31.5 -22.5t20 -32t7 -37q0 -43 -29 -71.5t-72 -28.5q-41 0 -70 27t-29 72zM143 646q0 -23 14.5 -38.5t36.5 -15.5q23 0 36.5 16t13.5 37t-13.5 38t-37.5 17q-23 0 -36.5 -16.5t-13.5 -37.5z" />
    <glyph glyph-name="paragraph" unicode="&#xb6;" horiz-adv-x="500" 
d="M334 -63q-23 -17 -45 -23.5t-44 -6.5q-17 0 -32.5 2.5t-31.5 5.5q-14 3 -19 17q-2 7 -3.5 13t-2.5 11q24 -6 42 -6q16 0 30 3t29 8q45 17 67.5 64.5t22.5 132.5v79q-32 -6 -63 -12t-66 -9q-38 0 -70.5 13t-56.5 38.5t-37.5 62.5t-13.5 86q0 56 18.5 98.5t49.5 70.5
t72.5 42t86.5 14h131h38q8 0 8 -7t-5 -12l-19 -16q-7 -5 -18 -7v-375q0 -26 -0.5 -50t-0.5 -46q-2 -69 -17.5 -113.5t-49.5 -77.5z" />
    <glyph glyph-name="notequal" unicode="&#x2260;" horiz-adv-x="499" 
d="M234 203h217q-1 -34 -5 -50.5t-20 -16.5h-237l-55 -83q-19 -29 -54 -29h-12l74 112h-94q1 35 5.5 51t19.5 16h113l2 3l82 122h-222q1 35 5.5 51t19.5 16h241l59 91q10 13 23 13h35l-69 -104h89q-1 -34 -5 -50.5t-20 -16.5h-108l-82 -122z" />
    <glyph glyph-name="infinity" unicode="&#x221e;" horiz-adv-x="764" 
d="M541 388q36 0 67 -10.5t54 -29t36.5 -45t13.5 -57.5q0 -7 -0.5 -12.5t-0.5 -10.5q-3 -31 -17 -53.5t-35.5 -37.5t-49 -22t-55.5 -7q-47 0 -86 28t-56 74q-11 -12 -25 -30.5t-24 -28.5q-26 -27 -59 -42t-76 -15q-35 0 -67 10.5t-57 30t-39.5 48.5t-14.5 67q0 44 16.5 74
t42 48.5t57 26.5t60.5 8q52 0 95.5 -31t63.5 -82q14 18 33.5 40t33.5 33q18 13 42 19.5t47 6.5zM311 193q11 10 25.5 29t27.5 39q-23 33 -56 53t-73 20q-49 0 -78.5 -25.5t-29.5 -63.5q0 -16 7 -31.5t19.5 -27.5t31.5 -19t43 -7q30 0 47.5 8t35.5 25zM546 168q42 0 64.5 22
t22.5 53q0 29 -22.5 52.5t-64.5 23.5q-22 0 -37.5 -7t-30.5 -22q-11 -9 -23.5 -26t-24.5 -34q46 -62 116 -62z" />
    <glyph glyph-name="plusminus" unicode="&#xb1;" horiz-adv-x="292" 
d="M113 305h-83q0 35 4.5 51t19.5 16h59q0 18 -0.5 37.5t-1.5 34.5q6 7 20 8.5t40 2.5q8 -4 10 -11.5t2 -24.5v-47h83q0 -34 -4 -50.5t-21 -16.5h-58v-54q1 -15 -5 -23t-16.5 -11.5t-23 -4t-25.5 -0.5v93zM61 155q42 4 90 9.5t83 10.5q11 -2 22 -7q-2 -28 -10.5 -48
t-25.5 -22q-17 -3 -38 -5.5t-42.5 -5t-42.5 -4t-39 -1.5q-6 0 -11.5 1t-11.5 3q7 69 26 69z" />
    <glyph glyph-name="lessequal" unicode="&#x2264;" horiz-adv-x="292" 
d="M61 155q42 4 90 9.5t83 10.5q11 -2 22 -7q-2 -28 -10.5 -48t-25.5 -22q-17 -3 -38 -5.5t-42.5 -5t-42.5 -4t-39 -1.5q-6 0 -11.5 1t-11.5 3q7 69 26 69zM218 444q5 -9 8 -22t3 -21q-25 -19 -45 -34q-17 -13 -33 -25t-20 -14q4 -3 20 -14t33 -24q20 -15 45 -32
q0 -8 -3 -24.5t-8 -24.5q-8 -12 -17 -14q-11 -2 -22 7l-123 92q-6 5 -11 11.5t-5 15.5q0 22 9 33q32 25 59 45q23 17 44 33t26 21q12 9 21 8q12 -1 19 -17z" />
    <glyph glyph-name="greaterequal" unicode="&#x2265;" horiz-adv-x="292" 
d="M62 155q41 4 89.5 9.5t82.5 10.5q5 -1 11.5 -3t10.5 -4q-2 -28 -10 -48t-26 -22q-17 -3 -37.5 -5.5t-42.5 -5t-43 -4t-38 -1.5q-6 0 -11.5 1t-12.5 3q5 35 10.5 52t16.5 17zM62 401q0 8 3 21t8 22q7 16 19 17q9 1 21 -8q5 -5 26 -21t44 -33q26 -20 59 -45q9 -11 9 -33
q0 -9 -5 -15.5t-11 -11.5l-123 -92q-11 -9 -22 -7q-9 2 -17 14q-5 8 -8 24.5t-3 24.5q25 17 45 32q17 13 33 24t20 14q-4 2 -20 14t-33 25q-20 15 -45 34z" />
    <glyph glyph-name="pi" unicode="&#x3c0;" horiz-adv-x="644" 
d="M613 55q-1 -11 -9 -22.5t-20 -20.5t-27 -14.5t-30 -5.5q-34 0 -56 9t-35 26.5t-18 42t-5 55.5v315h-207v-301q0 -43 0.5 -73.5t1.5 -54.5q-5 -4 -8.5 -6t-10.5 -3.5t-19 -2t-32 -0.5q-9 16 -9 43v398h-51q-23 0 -42 3q-1 4 -1 11q0 11 2.5 23t5.5 20q2 6 5.5 10t6.5 7
q5 0 10.5 -0.5t13.5 -0.5h27.5t59.5 -0.5t81.5 -0.5h92.5h93h84h64h33q0 -14 -2 -27t-5 -25q-3 -11 -10.5 -15t-10.5 -5h-96v-317q0 -33 12 -45.5t38 -12.5q35 0 65 16l7.5 -9t0.5 -17z" />
    <glyph glyph-name="integral" unicode="&#x222b;" horiz-adv-x="321" 
d="M164 437v-67.5v-84t-0.5 -91.5t-0.5 -91.5v-82.5v-65q0 -30 -4 -60t-16 -54t-33.5 -39t-56.5 -15q-23 0 -45 5t-36 14q-12 9 -15 20q-1 7 -1 14v14q0 6 0.5 11.5t1.5 10.5q3 -3 12 -6.5t20 -6.5t21 -5t16 -2q30 0 38.5 26.5t11.5 68.5q2 18 2 37.5v39.5v51v78t-0.5 98
t-0.5 99.5v82.5v30.5t0.5 42t1.5 41t2 28.5q4 50 22 82t42.5 50.5t53.5 25.5t55 7q31 0 49.5 -5.5t25.5 -13.5q3 -3 3 -7.5v-8.5q-1 -6 -2 -11.5t-3 -10.5l-5.5 -11t-6.5 -9q-2 -1 -8 1l-12 4q-8 2 -19 2.5t-21 0.5q-17 0 -32.5 -4.5t-28 -16.5t-20.5 -32.5t-9 -52.5
q0 -8 -0.5 -26.5t-1 -39t-0.5 -39.5v-27z" />
    <glyph glyph-name="florin" unicode="&#x192;" horiz-adv-x="268" 
d="M163 20q0 -30 -4 -60t-16 -54t-33.5 -39t-56.5 -15q-23 0 -45 5t-36 14q-12 9 -15 20q-1 7 -1 14v14q0 6 0.5 11.5t1.5 10.5q3 -3 12 -6.5t20 -6.5t21 -5t16 -2q30 0 38.5 26.5t11.5 68.5q2 18 2 37.5v39.5v51q0 62 -0.5 126t-0.5 132q-48 1 -62 12q3 28 7 35.5t16 10.5
q9 2 18.5 4.5t20.5 4.5q0 20 1 39t3 36q4 50 22 82t42.5 50.5t53.5 25.5t55 7q31 0 49.5 -5.5t25.5 -13.5q3 -4 3 -8v-8q-1 -6 -2 -11.5t-3 -10.5q-6 -14 -12 -20q-2 -1 -8 0.5t-12 3.5q-8 2 -19 3t-21 1q-17 0 -32.5 -4.5t-28 -16.5t-20.5 -32.5t-9 -52.5q-1 -16 -1 -32
v-33h54h32t25 1q-2 -35 -6.5 -46.5t-15.5 -15.5q-2 -1 -4.5 -2t-6.5 -2q-16 -2 -36 -2h-43v-92t-0.5 -101t-0.5 -100v-89z" />
    <glyph glyph-name="ordfeminine" unicode="&#xaa;" horiz-adv-x="293" 
d="M73 600q-1 2 -1 7q0 2 0.5 3.5t0.5 3.5q10 9 35.5 18.5t57.5 10.5h22q35 -2 48 -24.5t13 -62.5v-28q0 -32 -0.5 -66.5t-0.5 -59.5q-1 -9 1 -16q2 -6 5 -10.5t11 -2.5q-1 -7 -1 -14v-9q-3 -5 -11.5 -9.5t-21.5 -5.5q-11 0 -21.5 8t-15.5 15q-3 -3 -8 -7.5t-10 -7.5
q-19 -8 -46 -8q-30 0 -54 19.5t-24 63.5q0 29 11 47.5t27.5 30t35 16t32.5 6.5h17h11t10 -1v35q0 21 -5 32.5t-25 11.5q-17 0 -34.5 -5.5t-31.5 -10.5q-12 -5 -18 -5q-5 5 -6.5 12t-2.5 13zM194 407q2 5 2 12v18v44q-4 1 -13 1q-5 0 -10 -0.5t-10 -1.5q-23 -4 -39.5 -16
t-16.5 -41q0 -24 9.5 -33.5t23.5 -11.5h5q14 0 27.5 6t20.5 14q0 1 0.5 3.5t0.5 5.5z" />
    <glyph glyph-name="ordmasculine" unicode="&#xba;" horiz-adv-x="321" 
d="M293 492q0 -79 -34 -118.5t-87 -39.5q-58 0 -89 36.5t-31 117.5t34 118.5t88 37.5q119 0 119 -152zM110 491q0 -65 18 -90.5t46 -25.5q12 0 23.5 6t20 19.5t13.5 35.5t5 54q0 62 -17 87.5t-45 25.5h-2q-25 0 -43.5 -25.5t-18.5 -86.5z" />
    <glyph glyph-name="logicalnot" unicode="&#xac;" horiz-adv-x="498" 
d="M422 383l32 -6v-218q0 -10 -1 -19t-3 -17q-1 -3 -8 -5t-17 -3.5t-21.5 -2t-21.5 -1.5v202h-346q0 23 4.5 40.5t16.5 29.5h365z" />
    <glyph glyph-name="Omega" unicode="&#x2126;" horiz-adv-x="669" 
d="M52 1q5 37 11 54.5t17 17.5h104v5q-21 20 -39.5 46t-33 57.5t-23 70t-8.5 84.5q0 173 66 260.5t191 87.5q64 0 111.5 -23t78.5 -66.5t46 -107t15 -143.5q0 -47 -8.5 -87t-23.5 -73t-34.5 -59t-40.5 -47v-5h114q11 -2 22 -7q-2 -26 -10.5 -44.5t-25.5 -20.5h-204l-5 69
q57 14 89 80t32 191q0 71 -12 122t-33.5 83.5t-50.5 48t-63 15.5h-1q-70 0 -113 -67.5t-43 -212.5q0 -113 32 -177t85 -81l-4 -71h-238z" />
    <glyph glyph-name="radical" unicode="&#x221a;" horiz-adv-x="535" 
d="M294 97q0 14 0.5 30.5t2.5 29.5l60 517h181q1 -10 1 -12v-3q-2 -31 -10 -42.5t-24 -11.5h-83l-79 -604l-54 -6q-17 -2 -30 10t-20 26q-57 118 -113 243.5t-107 255.5q6 2 14 2.5t17 2.5q24 3 45 -10t31 -36l151 -338q5 -11 8.5 -28.5t8.5 -25.5z" />
    <glyph glyph-name="Delta" unicode="&#x2206;" horiz-adv-x="573" 
d="M101 0q-17 0 -31 7.5t-23 19.5t-12 27t2 31q41 134 86.5 269.5t95.5 272.5q8 21 25.5 34t40.5 13l56 -5q57 -161 111.5 -327.5t103.5 -327.5q2 -5 -1.5 -9.5t-8.5 -4.5h-445zM283 600q0 -6 -1.5 -15.5l-3 -19t-3.5 -17t-3 -10.5l-135 -428q-5 -16 4.5 -29t26.5 -13h266
q7 0 5 7l-144 463q-1 3 -3 11t-4 17.5t-3.5 18.5t-1.5 15z" />
    <glyph glyph-name="lozenge" unicode="&#x25ca;" horiz-adv-x="460" 
d="M407 222q-27 -45 -55.5 -89t-60.5 -88q-11 -14 -27 -22t-35 -8l-42 7q-35 48 -66.5 94.5t-61.5 96.5q-15 24 -15 53q0 28 14 53q26 43 53.5 85.5t57.5 84.5q22 30 62 30l40 -4q35 -45 66.5 -91.5t60.5 -97.5q18 -32 18 -68q0 -21 -9 -36zM230 469l-107 -184
q-10 -16 0 -32l109 -188l106 186q10 16 0 32z" />
    <glyph glyph-name="macron" unicode="&#xaf;" horiz-adv-x="440" 
d="M182 657h63.5t55.5 1q5 -2 11 -4.5t11 -4.5q-2 -27 -10 -41.5t-25 -14.5q-16 -1 -34.5 -1.5t-38.5 -0.5q-23 0 -45.5 1t-41.5 3q-6 1 -11 2.5t-11 3.5q4 34 9 45.5t16 10.5h51z" />
    <glyph glyph-name="breve" unicode="&#x2d8;" horiz-adv-x="441" 
d="M218 548q-48 1 -85 27.5t-56 96.5q1 1 4.5 6t8.5 10.5t10.5 9.5t10.5 4q8 0 12 -10q17 -40 38.5 -60t56.5 -20t56 20t38 60q4 10 12 10q5 0 10.5 -4t10.5 -9.5t8.5 -10.5t4.5 -6q-19 -70 -55.5 -97t-84.5 -27z" />
    <glyph glyph-name="ogonek" unicode="&#x2db;" horiz-adv-x="275" 
d="M123 -110q0 -20 18 -32t60 -26q13 -3 13 -13q0 -7 -6 -18t-17 -13q-19 3 -42 9.5t-43.5 18.5t-34 30t-13.5 44q0 21 8 39.5t27 35.5t50.5 34t77.5 35q8 4 17 -1.5t17 -11.5q-42 -20 -68 -35.5t-40 -30.5t-19 -30.5t-5 -34.5z" />
    <glyph glyph-name="hungarumlaut" unicode="&#x2dd;" horiz-adv-x="440" 
d="M215 721q7 -2 4.5 -12t-10.5 -24l-4 -8q-23 -42 -45.5 -71t-36.5 -43q-3 -2 -9.5 -1.5t-14 2t-14.5 3.5t-10 4q6 13 14.5 32t17.5 39t17.5 38t14.5 30q11 5 29.5 9.5t33.5 4.5q10 0 13 -3zM351 721q7 -2 4.5 -12t-9.5 -24l-5 -8q-23 -42 -45.5 -71t-36.5 -43
q-3 -2 -9.5 -1.5t-14 2t-14 3.5t-9.5 4q6 13 14.5 32t17 39t17 38t14.5 30q11 5 29.5 9.5t33.5 4.5q10 0 13 -3z" />
    <glyph glyph-name="summation" unicode="&#x2211;" horiz-adv-x="383" 
d="M363 70l1 -1q-4 -38 -11 -52t-22 -18q-20 -1 -58 -1.5t-80 -0.5q-47 0 -84.5 1.5t-61.5 3.5q-2 11 -3.5 20.5t-3.5 20.5v28l190 284l-191 237v27.5t-1 27.5q8 2 21 8t30 7h262q-2 -36 -6.5 -49t-15.5 -18q-18 -3 -40.5 -3.5t-51.5 -0.5h-109l190 -236l-190 -284
q7 -1 20 -1.5t27.5 -1t29.5 -0.5h27h66t65 2z" />
    <glyph glyph-name="uni0410" unicode="&#x410;" horiz-adv-x="524" 
d="M423 13q-14 41 -25 80t-28 90h-208q-17 -50 -32.5 -94.5t-26.5 -78.5q-2 -7 -8 -10.5t-23 -3.5q-11 0 -28.5 2t-31.5 5q1 10 3 18.5t5 16.5q21 63 50 144.5t59 165t57 160.5t44 131q5 21 10 21q5 1 10.5 2.5t10.5 1.5q8 2 15 2h12q14 -3 19 -10q17 -51 36.5 -110
t39.5 -119t39 -117.5t35 -105.5q21 -60 36 -106.5t28 -84.5v-2q0 -1 1 -1q0 -3 -4 -7q-9 -3 -26 -5t-30 -2q-9 0 -18 3t-21 14zM184 254h165q-11 35 -20 67.5t-19 62.5q-16 50 -25.5 85.5t-16.5 61.5q-13 -47 -27 -95.5t-35 -111.5z" />
    <glyph glyph-name="uni0401" unicode="&#x401;" horiz-adv-x="385" 
d="M148 71q15 -2 37.5 -2.5t46.5 -0.5h66t65 2l1 -1q-4 -38 -11 -52t-22 -18q-20 -1 -48 -1.5t-70 -0.5q-47 0 -84.5 1.5t-61.5 3.5q-2 11 -3.5 20.5t-3.5 20.5v479v64t-2 61q8 2 21 8t30 7h242q-2 -36 -6.5 -49t-15.5 -18q-18 -3 -40.5 -3.5t-51.5 -0.5h-89v-204h186
q-3 -24 -6 -38t-7.5 -21.5t-10.5 -10t-15 -2.5h-147v-244zM75 787q0 52 50 52q28 0 36 -12.5t7 -37.5t-10.5 -40.5t-38.5 -15.5q-24 0 -34 13t-10 41zM242 787q0 52 50 52q28 0 36 -12.5t7 -37.5t-10.5 -40.5t-38.5 -15.5q-24 0 -34 13t-10 41z" />
    <glyph glyph-name="uni0406" unicode="&#x406;" horiz-adv-x="207" 
d="M68 -3q-9 0 -9 19q0 57 0.5 140.5t0.5 175.5q0 57 -0.5 112.5t-0.5 100.5q0 41 -0.5 65t-1.5 31q6 15 25.5 19t56.5 4q6 0 7.5 -15.5t1.5 -50.5q0 -60 -0.5 -129t-0.5 -135q0 -65 0.5 -124t0.5 -107q0 -42 0.5 -64t0.5 -30q-6 -8 -25 -10t-56 -2z" />
    <glyph glyph-name="uni0407" unicode="&#x407;" horiz-adv-x="207" 
d="M68 -3q-9 0 -9 19q0 57 0.5 140.5t0.5 175.5q0 57 -0.5 112.5t-0.5 100.5q0 41 -0.5 65t-1.5 31q6 15 25.5 19t56.5 4q6 0 7.5 -15.5t1.5 -50.5q0 -60 -0.5 -129t-0.5 -135q0 -65 0.5 -124t0.5 -107q0 -42 0.5 -64t0.5 -30q-6 -8 -25 -10t-56 -2zM-28 785q0 22 13 37
t36 15h1q24 0 35.5 -15t11.5 -35q0 -23 -13 -37.5t-36 -14.5t-35.5 12.5t-12.5 37.5zM139 785q0 22 13 37t37 15q25 0 36 -15t11 -35q0 -23 -13 -37.5t-36 -14.5t-35.5 12.5t-12.5 37.5z" />
    <glyph glyph-name="uni0451" unicode="&#x451;" horiz-adv-x="396" 
d="M238 61q32 0 59.5 5.5t51.5 18.5q2 -7 3.5 -19t2.5 -21q-1 -15 -19 -29t-39 -19q-11 -3 -32 -6.5t-44 -3.5q-35 0 -71 9.5t-65 38.5q-53 55 -53 182q0 72 14.5 122.5t40 82t61 46t76.5 14.5q68 0 103 -38t42 -103q1 -11 1.5 -23t0.5 -25q0 -16 -1.5 -31.5t-4.5 -27.5
q-8 -6 -29 -13t-41 -10q-23 -3 -59 -4.5t-71 -1.5h-22.5t-22.5 1q0 -41 9 -69t24.5 -45t37 -24t47.5 -7zM214 417q-6 0 -9 -1q-30 -5 -54.5 -40t-28.5 -108h38q29 0 57 0.5t42 2.5q7 1 12.5 2t10.5 4q5 13 5 33q0 6 -0.5 11.5t-0.5 10.5q-4 42 -21 63.5t-51 21.5zM86 620
q0 52 50 52q28 0 36 -12.5t7 -37.5t-10.5 -40.5t-38.5 -15.5q-24 0 -34 13t-10 41zM243 620q0 52 50 52q28 0 36 -12.5t7 -37.5t-10.5 -40.5t-38.5 -15.5q-24 0 -34 13t-10 41z" />
    <glyph glyph-name="uni0454" unicode="&#x454;" horiz-adv-x="369" 
d="M230 411q-42 -4 -70 -37t-36 -102h171q2 -27 -1.5 -46t-21.5 -19l-149 -1q3 -46 14.5 -75t29 -45.5t39.5 -22.5t45 -6q24 0 47 5.5t39 13.5q2 -8 3.5 -15.5t1.5 -12.5q0 -11 -6.5 -22t-14.5 -18q-14 -10 -38 -16t-50 -6q-41 0 -77 9.5t-63.5 35.5t-43.5 73t-16 122
q0 80 21.5 130t51.5 77q29 28 65 38.5t72 10.5q22 0 41 -4.5t33 -10.5t22 -13t10 -12q0 -10 -3 -24t-9 -25h-6q-5 0 -12 2t-15 4q-29 13 -60 13h-6t-8 -1z" />
    <glyph glyph-name="uni0456" unicode="&#x456;" horiz-adv-x="202" 
d="M137 472q5 -11 6.5 -25t1.5 -46v-340q0 -34 -12 -53q-5 -8 -20 -9t-57 -2q0 38 0.5 81.5t0.5 89.5v177q0 35 -0.5 59t-1.5 44q8 16 29.5 20t52.5 4zM52 642q0 56 53 56q30 0 38.5 -13.5t7.5 -40.5q-1 -26 -11 -43t-41 -17q-26 0 -36.5 14t-10.5 44z" />
    <glyph glyph-name="uni0457" unicode="&#x457;" horiz-adv-x="202" 
d="M137 472q5 -11 6.5 -25t1.5 -46v-340q0 -34 -12 -53q-5 -8 -20 -9t-57 -2q0 38 0.5 81.5t0.5 89.5v177q0 35 -0.5 59t-1.5 44q8 16 29.5 20t52.5 4zM-22 620q0 52 50 52q28 0 36 -12.5t7 -37.5t-10.5 -40.5t-38.5 -15.5q-24 0 -34 13t-10 41zM135 620q0 52 50 52
q28 0 36 -12.5t7 -37.5t-10.5 -40.5t-38.5 -15.5q-24 0 -34 13t-10 41z" />
    <glyph glyph-name="uni044F" unicode="&#x44f;" horiz-adv-x="396" 
d="M54 22q8 8 19 29.5t24.5 50t30.5 60.5t37 61q-5 3 -16 14.5t-22.5 29.5t-20.5 41t-9 48q0 34 12 59.5t32 42t47.5 25t59.5 10.5l19 1h36q8 0 19 -0.5t19 -1.5q5 -1 14.5 -1t13.5 -1q6 -2 9.5 -2t5.5 -2q1 -4 1 -8v-6q-1 -15 -1 -31.5v-36.5v-246q0 -43 0.5 -85t1.5 -74
q-27 0 -50 1t-28 7q-7 11 -7 28v170h-35q-9 0 -12 -1q-14 -16 -27 -36t-24 -40.5t-20.5 -40.5t-16.5 -36q-8 -17 -19 -34.5t-31 -19.5h-9q-18 4 -30 8q-11 4 -19 8t-4 9zM234 261q5 -2 13.5 -2.5t16.5 -0.5h21t16 1v174q-6 1 -15.5 1.5t-23.5 0.5q-32 0 -52.5 -19t-20.5 -63
t14 -64.5t31 -27.5z" />
    <glyph glyph-name="uni0402" unicode="&#x402;" horiz-adv-x="539" 
d="M242 194v-57q0 -43 0.5 -73.5t1.5 -54.5q-9 -8 -25 -10t-56 -2q-9 16 -9 43v550h-98q-23 0 -42 3q-1 4 -1 11q0 11 2.5 23t5.5 20q2 6 5.5 10t6.5 7q5 0 10.5 -0.5t13.5 -0.5t12.5 -0.5t10 -0.5h13h22.5h276q0 -14 -2 -27t-5 -25q-3 -11 -10.5 -15t-10.5 -5
q-19 0 -40 0.5t-39 0.5h-30t-12 -1v-43v-118q15 14 29 24.5t29 16.5q14 5 30 8.5t35 3.5q36 0 59.5 -10.5t37 -33.5t18.5 -58.5t5 -85.5l-2 -200q0 -56 -11 -94.5t-27 -63.5t-34.5 -37.5t-34.5 -16.5q-17 -4 -34 -4q-35 0 -47 20q-1 3 -1 7v9t1 11q15 9 35 10.5t40 15.5
q9 7 14 25.5t8 42.5t4 49.5t1 48.5v168q0 14 -1 22.5t-1 20.5q-2 47 -17 63.5t-43 16.5q-15 0 -31 -7t-29.5 -15.5t-22.5 -15.5t-10 -7v-169z" />
    <glyph glyph-name="uni0431" unicode="&#x431;" horiz-adv-x="433" 
d="M202 610q33 5 64 12t42 14q6 -11 8 -31q-3 -29 -23 -46q-11 -10 -34.5 -18t-52.5 -12q-15 -2 -28.5 -8.5t-21.5 -20.5q-33 -56 -44 -130q-6 -47 -6 -96q0 -47 5.5 -85t18 -64.5t33 -40.5t49.5 -14q54 0 83 40.5t29 107.5q0 54 -20.5 83t-52.5 37q-6 1 -12 1.5t-12 0.5
q-12 0 -24 -2t-21 -4q-1 5 -1 11v12q0 14 3.5 27.5t16.5 18.5q9 4 22 7t30 3q4 0 8 -0.5t9 -0.5q33 -4 58 -20t42 -40.5t25.5 -56t8.5 -67.5q0 -50 -12.5 -91.5t-37 -71t-61 -46t-84.5 -16.5q-51 0 -85.5 16t-55.5 50t-30.5 87.5t-10.5 127.5q1 84 16.5 152t51.5 120
q18 26 47 37.5t60 16.5z" />
    <glyph glyph-name="uni0414" unicode="&#x414;" horiz-adv-x="603" 
d="M543 71v-189l-56 -13q-5 -2 -9.5 2t-4.5 10v119h-340v-114q0 -8 -6 -13t-14 -3l-52 12v189h31q54 27 70 76q42 129 42 359v141l204 23q26 2 45.5 -16t19.5 -44v-539h70zM388 564q0 14 -9.5 22.5t-23.5 7.5l-67 -12v-118q0 -105 -12.5 -191t-35.5 -156q-4 -14 -11 -25.5
t-15 -20.5h174v493z" />
    <glyph glyph-name="uni0412" unicode="&#x412;" 
d="M59 521v105v9v10t1 10q6 2 27 4t50.5 4t59.5 2q49 0 84 -11.5t57 -31.5t32.5 -47.5t10.5 -58.5q0 -53 -15.5 -82.5t-33.5 -44.5q-7 -5 -15 -10t-20 -10q24 -6 42 -16q12 -7 25.5 -17.5t25 -27t19.5 -40t8 -55.5q0 -57 -17 -98t-46.5 -67.5t-70 -39.5t-86.5 -13
q-38 1 -69 2.5t-69 5.5v518zM147 66q6 -2 24 -3.5t29 -1.5q49 0 83.5 36t34.5 114v11t-1 10q-7 55 -39 74.5t-81 19.5h-27t-23 -2v-258zM147 390q7 2 26 2t33 1q16 0 34 3q19 9 34.5 35t15.5 70v9t-1 8q-5 42 -31 61t-65 19q-9 0 -25 -1t-21 -2v-205z" />
    <glyph glyph-name="uni0411" unicode="&#x411;" horiz-adv-x="453" 
d="M144 445q21 14 50.5 25t65.5 11q34 0 64 -11.5t52 -36.5t34.5 -64.5t12.5 -94.5q0 -52 -8 -92.5t-21.5 -71t-31 -52t-36.5 -35.5q-31 -21 -66 -28.5t-65 -7.5q-41 0 -74 7t-54 20q-5 11 -7 25t-2 32v523v21t-0.5 6.5t-1 2.5t-0.5 10q8 17 29.5 22.5t54.5 4.5h275
q0 -14 -2 -27t-5 -25q-3 -11 -10.5 -15t-10.5 -5h-243v-144zM204 53q21 0 43.5 9.5t40.5 33t29.5 63.5t11.5 101q0 84 -28 117.5t-77 33.5q-20 0 -41.5 -7t-38.5 -21v-318q10 -5 26 -8.5t34 -3.5z" />
    <glyph glyph-name="uni0413" unicode="&#x413;" horiz-adv-x="453" 
d="M56 603q0 11 2.5 23t5.5 20q2 6 5.5 10t6.5 7q5 0 10.5 -0.5t13.5 -0.5t10 -0.5t3.5 -0.5h6.5h20h275q0 -14 -2 -27t-5 -25q-3 -11 -10.5 -15t-10.5 -5h-243v-453q0 -43 0.5 -73.5t1.5 -54.5q-9 -8 -25 -10t-56 -2q-9 16 -9 43v564v0z" />
    <glyph glyph-name="uni0415" unicode="&#x415;" 
d="M59 521v105v9v10t1 10q6 2 27 4t50.5 4t59.5 2q49 0 84 -11.5t57 -31.5t32.5 -47.5t10.5 -58.5q0 -53 -15.5 -82.5t-33.5 -44.5q-7 -5 -15 -10t-20 -10q24 -6 42 -16q12 -7 25.5 -17.5t25 -27t19.5 -40t8 -55.5q0 -57 -17 -98t-46.5 -67.5t-70 -39.5t-86.5 -13
q-38 1 -69 2.5t-69 5.5v518zM147 66q6 -2 24 -3.5t29 -1.5q49 0 83.5 36t34.5 114v11t-1 10q-7 55 -39 74.5t-81 19.5h-27t-23 -2v-258zM147 390q7 2 26 2t33 1q16 0 34 3q19 9 34.5 35t15.5 70v9t-1 8q-5 42 -31 61t-65 19q-9 0 -25 -1t-21 -2v-205z" />
    <glyph glyph-name="uni0416" unicode="&#x416;" horiz-adv-x="722" 
d="M510 365q24 -23 47.5 -56t45 -69.5t41 -73t36.5 -68t30.5 -54.5t22.5 -32q0 -5 -1.5 -7t-9.5 -5q-5 -2 -16 -4t-24 -2h-14q-27 3 -42 26.5t-25 47.5q-10 22 -23.5 48t-30 53t-35 53t-38.5 49q-19 21 -34.5 37.5t-23.5 21.5v-196q0 -42 0.5 -72t0.5 -54q-5 -8 -24 -9.5
t-57 -1.5q-5 8 -7 18t-2 24v291q-8 -5 -23.5 -21.5t-34.5 -37.5q-20 -23 -38.5 -49t-35 -53t-30 -53t-23.5 -48q-5 -12 -11 -24.5t-14 -23t-18.5 -18t-23.5 -8.5h-14q-13 0 -24 2t-16 4q-8 3 -9.5 5t-1.5 7q9 9 22.5 32t30.5 54.5t36.5 68t41 73t45 69t47.5 56.5
q-21 28 -44 58.5t-46 62t-45 61.5t-41 56q-5 5 -9.5 12.5t-8.5 13.5q-7 13 -7 20q0 13 25 14q8 0 17.5 0.5t19.5 0.5h11t10 -1q53 -72 107 -149.5t105 -148.5v154q0 42 -0.5 74.5t-1.5 58.5q6 5 25.5 8t57.5 3q5 -10 6.5 -23t1.5 -39v-236q51 71 105 148.5t107 149.5
q5 1 10 1h11q10 0 19.5 -0.5t17.5 -0.5q25 -1 25 -14q0 -7 -7 -20q-4 -6 -8.5 -13.5t-9.5 -12.5q-19 -26 -41 -56t-45 -61.5t-46 -62t-44 -58.5z" />
    <glyph glyph-name="uni0417" unicode="&#x417;" 
d="M265 366q64 -12 99.5 -51t35.5 -104q0 -55 -19 -97t-51.5 -70.5t-76.5 -43t-95 -14.5q-40 0 -64 7.5t-35 16.5q-10 8 -12.5 18.5t-2.5 21.5q0 9 1 16.5t3 14.5q0 3 1 2q18 -11 45 -18t59 -7q37 0 66.5 12t49 32t29.5 47.5t9 59.5q-1 5 -1 9.5t-1 9.5q-6 46 -45 66.5
t-96 20.5q-8 0 -17.5 -0.5t-17.5 -1.5q-1 5 -2 8.5t-2 8.5q3 11 6 20.5t8 17.5q25 10 49.5 23.5t43 30.5t30 37t11.5 44q0 14 -4 27.5t-13 23.5t-24 16t-37 6q-35 0 -65 -10t-52 -25q-2 -2 -5 -3.5t-5 -1.5q-3 0 -6 4q-5 10 -7.5 21.5t-2.5 22.5v5q6 12 20.5 23.5t36 20
t49 14t59.5 5.5q45 0 74 -12.5t46 -31t23.5 -41t6.5 -42.5q0 -44 -22 -80q-25 -43 -80 -79z" />
    <glyph glyph-name="uni0418" unicode="&#x418;" horiz-adv-x="557" 
d="M261 397q14 25 27 48.5t27 46.5q28 48 51.5 89.5t40.5 73.5q15 9 30 9q6 0 16 -0.5t20.5 -1.5t19 -2.5t12.5 -3.5q0 -2 0.5 -3t0.5 -3v-3q0 -2 -4.5 -7.5t-7.5 -9.5v-427q0 -60 0.5 -111t1.5 -95q-20 0 -33 0.5t-21.5 1.5t-13.5 3.5t-9 7.5q-5 11 -7 22.5t-2 31.5v236
q1 43 2.5 101.5t4.5 115.5q-7 -15 -11.5 -25t-12.5 -27q-16 -34 -32.5 -70.5t-32.5 -68.5l-41 -75q-38 -68 -74.5 -131t-68.5 -121q-8 -3 -21 -4t-20 -1q-14 0 -27.5 7t-15.5 9v447q0 60 -0.5 111t-1.5 96h32t19.5 -1t13 -3.5t11.5 -6.5q5 -11 7 -23t2 -31v-245
q0 -21 -0.5 -44.5t-1 -47.5t-1.5 -46t-2 -39q-1 -5 -1 -10.5v-10.5v-8q17 39 40.5 89t49.5 99z" />
    <glyph glyph-name="uni0419" unicode="&#x419;" horiz-adv-x="557" 
d="M261 397q14 25 27 48.5t27 46.5q28 48 51.5 89.5t40.5 73.5q15 9 30 9q6 0 16 -0.5t20.5 -1.5t19 -2.5t12.5 -3.5q0 -2 0.5 -3t0.5 -3v-3q0 -2 -4.5 -7.5t-7.5 -9.5v-427q0 -60 0.5 -111t1.5 -95q-20 0 -33 0.5t-21.5 1.5t-13.5 3.5t-9 7.5q-5 11 -7 22.5t-2 31.5v236
q1 43 2.5 101.5t4.5 115.5q-7 -15 -11.5 -25t-12.5 -27q-16 -34 -32.5 -70.5t-32.5 -68.5l-41 -75q-38 -68 -74.5 -131t-68.5 -121q-8 -3 -21 -4t-20 -1q-14 0 -27.5 7t-15.5 9v447q0 60 -0.5 111t-1.5 96h32t19.5 -1t13 -3.5t11.5 -6.5q5 -11 7 -23t2 -31v-245
q0 -21 -0.5 -44.5t-1 -47.5t-1.5 -46t-2 -39q-1 -5 -1 -10.5v-10.5v-8q17 39 40.5 89t49.5 99zM290 712q-48 1 -85 27.5t-56 96.5q1 1 4.5 6t8.5 10.5t10.5 9.5t10.5 4q8 0 12 -10q17 -40 38.5 -60t56.5 -20t56 20t38 60q4 10 12 10q5 0 10.5 -4t10.5 -9.5t8.5 -10.5t4.5 -6
q-19 -70 -55.5 -97t-84.5 -27z" />
    <glyph glyph-name="uni041A" unicode="&#x41a;" horiz-adv-x="454" 
d="M68 -3q-5 8 -7 18t-2 24v480q0 42 -0.5 74.5t-1.5 58.5q6 5 25.5 8t57.5 3q5 -10 6.5 -23t1.5 -39v-236q51 71 105 148.5t107 149.5q5 1 10 1h11q10 0 19.5 -0.5t17.5 -0.5q25 -1 25 -14q0 -7 -7 -20q-4 -6 -8.5 -13.5t-9.5 -12.5q-19 -26 -41 -56t-45 -61.5t-46 -62
t-44 -58.5q24 -23 47.5 -56t45 -69.5t41 -73t36.5 -68t30.5 -54.5t22.5 -32q0 -5 -1.5 -7t-9.5 -5q-5 -2 -16 -4t-24 -2h-14q-27 3 -42 26.5t-25 47.5q-10 22 -23.5 48t-30 53t-35 53t-38.5 49q-19 21 -34.5 37.5t-23.5 21.5v-196q0 -42 0.5 -72t0.5 -54q-5 -8 -24 -9.5
t-57 -1.5z" />
    <glyph glyph-name="uni041B" unicode="&#x41b;" horiz-adv-x="655" 
d="M265 439q0 -99 -7.5 -181t-26.5 -141t-52 -92t-84 -33q-35 0 -56 10t-25 23q0 8 3 17q1 5 3 10q10 3 21.5 2.5t25.5 -0.5q10 0 20.5 1t20.5 6q25 10 39.5 52t22 103.5t9.5 136t2 150.5q0 47 -0.5 83.5t-1.5 65.5q8 8 25.5 10t54.5 2h338q-1 -36 -1.5 -79.5t-0.5 -96.5
v-332q0 -48 0.5 -83t1.5 -64q-7 -8 -26 -10t-56 -2q-8 22 -8 51v542h-238z" />
    <glyph glyph-name="uni041C" unicode="&#x41c;" horiz-adv-x="664" 
d="M91 639q0 5 1 11t6 8q3 2 8 2t10 1q25 3 56 3q8 -17 19.5 -46t24.5 -64.5t27 -75t27 -77.5q2 -8 5 -15.5t5 -15.5q6 -18 12.5 -38.5t12.5 -38.5q6 -19 11 -34t10 -29q5 14 11 30.5t13 33.5q8 21 15.5 44.5t15.5 42.5q25 69 48.5 135.5t44.5 123.5l4 10t6 8q14 2 35 4
t39 2q3 -10 5 -19.5t4 -26.5q7 -94 14.5 -185.5t15.5 -184.5q8 -69 12.5 -129t7.5 -108q-5 -9 -24.5 -11.5t-58.5 -2.5q-11 16 -11 41q-1 15 -2.5 27.5t-1.5 27.5q-2 26 -4.5 57t-5.5 66q-1 15 -2 29l-2 28q-2 28 -2.5 64.5t-1.5 70.5q-2 30 -2 51.5t-1 41.5q0 -1 -0.5 -1
t-0.5 -1q-8 -25 -17 -53.5t-18.5 -56.5t-18.5 -54t-16 -45q-17 -46 -34.5 -94t-34.5 -96q-5 -17 -22 -20q-10 -2 -22 -3t-23 -1q-13 42 -34 103.5t-43 126.5q-2 7 -10 32t-18 57q-11 37 -20.5 66t-14.5 42v-84q0 -16 -0.5 -35t-1 -37.5t-1 -36t-1.5 -30.5q-7 -64 -12.5 -124
t-8.5 -107q-2 -14 -3.5 -23.5t-6.5 -18.5q-5 -4 -12 -6t-20 -2q-9 0 -20 0.5t-25 2.5q-3 0 -3 2q4 61 10 136t13.5 157.5t15.5 169t16 172.5z" />
    <glyph glyph-name="uni041D" unicode="&#x41d;" horiz-adv-x="534" 
d="M394 -3q-8 22 -8 51v269q-17 -1 -41.5 -1.5t-66.5 -0.5h-130v-254q0 -18 -2.5 -30.5t-10.5 -23.5q-6 -8 -21.5 -9t-55.5 -1q1 36 1.5 79.5t0.5 97.5v329q0 47 -0.5 83.5t-1.5 65.5q8 8 25.5 10t54.5 2q6 -9 8 -22.5t2 -39.5v-215h238v209q0 35 10 58q8 7 24 8.5t56 1.5
q-1 -36 -1.5 -79.5t-0.5 -96.5v-332q0 -48 0.5 -83t1.5 -64q-7 -8 -26 -10t-56 -2z" />
    <glyph glyph-name="uni041E" unicode="&#x41e;" horiz-adv-x="572" 
d="M130 324q0 -134 44.5 -199.5t114.5 -65.5q73 0 115 66.5t42 208.5q0 71 -12 122t-33.5 83.5t-50.5 48t-63 15.5h-1q-70 0 -113 -67t-43 -212zM290 677q64 0 111.5 -23t78.5 -66.5t46 -107t15 -143.5q0 -167 -63.5 -259.5t-193.5 -92.5q-68 0 -115.5 24t-77.5 68.5
t-44 108t-14 143.5q0 173 66 260.5t191 87.5z" />
    <glyph glyph-name="uni041F" unicode="&#x41f;" horiz-adv-x="557" 
d="M496 664q0 -45 -1 -96t-1 -111v-447q-2 -2 -15.5 -9t-27.5 -7q-7 0 -20 1t-21 4q2 45 2 96.5v108.5v150v236h-268v-290v-236q0 -20 -2 -31.5t-7 -22.5q-4 -5 -9 -7.5t-13.5 -3.5t-21.5 -1.5t-33 -0.5q1 44 1.5 95t0.5 111v427q-3 4 -7.5 9.5t-4.5 7.5v3q0 4 1 6
q4 2 12.5 3.5t19 2.5t21 1.5t16.5 0.5h378z" />
    <glyph glyph-name="ohungarumlaut" unicode="&#x151;" horiz-adv-x="449" 
d="M416 238q0 -63 -14.5 -110t-40.5 -78.5t-61 -47.5t-77 -16q-93 0 -143 58t-50 188q0 64 14.5 111.5t40.5 78t62 45.5t79 15q190 0 190 -244zM123 236q0 -52 7.5 -87.5t21 -57t32.5 -31t41 -9.5q20 0 38 9.5t31.5 31t21.5 56.5t8 87q0 98 -27 139t-72 41h-2
q-20 0 -38 -9.5t-32 -31t-22 -55.5t-8 -83zM249 721q7 -2 4.5 -12t-10.5 -24l-4 -8q-23 -42 -45.5 -71t-36.5 -43q-3 -2 -9.5 -1.5t-14 2t-14.5 3.5t-10 4q6 13 14.5 32t17.5 39t17.5 38t14.5 30q11 5 29.5 9.5t33.5 4.5q10 0 13 -3zM385 721q7 -2 4.5 -12t-9.5 -24l-5 -8
q-23 -42 -45.5 -71t-36.5 -43q-3 -2 -9.5 -1.5t-14 2t-14 3.5t-9.5 4q6 13 14.5 32t17 39t17 38t14.5 30q11 5 29.5 9.5t33.5 4.5q10 0 13 -3z" />
    <glyph glyph-name="Ohungarumlaut" unicode="&#x150;" horiz-adv-x="572" 
d="M130 324q0 -134 44.5 -199.5t114.5 -65.5q73 0 115 66.5t42 208.5q0 71 -12 122t-33.5 83.5t-50.5 48t-63 15.5h-1q-70 0 -113 -67t-43 -212zM290 677q64 0 111.5 -23t78.5 -66.5t46 -107t15 -143.5q0 -167 -63.5 -259.5t-193.5 -92.5q-68 0 -115.5 24t-77.5 68.5
t-44 108t-14 143.5q0 173 66 260.5t191 87.5zM315 880q7 -2 4.5 -12t-10.5 -24l-4 -8q-23 -42 -45.5 -71t-36.5 -43q-3 -2 -9.5 -1.5t-14 2t-14.5 3.5t-10 4q6 13 14.5 32t17.5 39t17.5 38t14.5 30q11 5 29.5 9.5t33.5 4.5q10 0 13 -3zM451 880q7 -2 4.5 -12t-9.5 -24l-5 -8
q-23 -42 -45.5 -71t-36.5 -43q-3 -2 -9.5 -1.5t-14 2t-14 3.5t-9.5 4q6 13 14.5 32t17 39t17 38t14.5 30q11 5 29.5 9.5t33.5 4.5q10 0 13 -3z" />
    <glyph glyph-name="Uhungarumlaut" unicode="&#x170;" horiz-adv-x="552" 
d="M280 57q49 0 72.5 7t35.5 15q11 51 15.5 113t4.5 125l1 274q0 20 2.5 34.5t7.5 27.5q6 4 11 6t13 3t20 1.5t32 0.5q-1 -39 -1.5 -85.5t-0.5 -102.5v-159q0 -81 -6.5 -147t-20.5 -123q-29 -35 -81 -48.5t-111 -13.5q-57 0 -95.5 16t-62.5 44.5t-36.5 67.5t-17.5 85
q-2 25 -3.5 51t-1.5 55v190q0 49 -0.5 87.5t-1.5 69.5q6 8 25 10.5t57 2.5q7 -12 8.5 -28.5t1.5 -46.5v-277q0 -32 1.5 -59t5.5 -52q11 -66 39 -105t87 -39zM314 880q7 -2 4.5 -12t-10.5 -24l-4 -8q-23 -42 -45.5 -71t-36.5 -43q-3 -2 -9.5 -1.5t-14 2t-14.5 3.5t-10 4
q6 13 14.5 32t17.5 39t17.5 38t14.5 30q11 5 29.5 9.5t33.5 4.5q10 0 13 -3zM450 880q7 -2 4.5 -12t-9.5 -24l-5 -8q-23 -42 -45.5 -71t-36.5 -43q-3 -2 -9.5 -1.5t-14 2t-14 3.5t-9.5 4q6 13 14.5 32t17 39t17 38t14.5 30q11 5 29.5 9.5t33.5 4.5q10 0 13 -3z" />
    <glyph glyph-name="uhungarumlaut" unicode="&#x171;" horiz-adv-x="455" 
d="M143 450q5 -17 8 -37.5t3 -58.5l-10 -183q0 -34 5 -55t15 -33t24 -16.5t32 -4.5q26 -2 50.5 8.5t37.5 26.5v318q0 16 2 26.5t9 20.5q4 4 9 6t13.5 2.5t21.5 1t33 0.5q-1 -41 -1.5 -89t-0.5 -106v-170q0 -24 3.5 -42t8.5 -33q-6 -8 -40 -23q-3 -1 -7 -1q-14 0 -21 8.5
t-10 21.5q-18 -15 -35 -24.5t-34 -14.5q-16 -5 -30.5 -8t-31.5 -3q-44 2 -71 14t-42.5 33.5t-21 52t-6.5 70.5l10 209q0 28 -4 49t-10 39q9 10 47 28q4 1 8 1q17 0 25 -11t11 -23zM256 721q7 -2 4.5 -12t-10.5 -24l-4 -8q-23 -42 -45.5 -71t-36.5 -43q-3 -2 -9.5 -1.5t-14 2
t-14.5 3.5t-10 4q6 13 14.5 32t17.5 39t17.5 38t14.5 30q11 5 29.5 9.5t33.5 4.5q10 0 13 -3zM392 721q7 -2 4.5 -12t-9.5 -24l-5 -8q-23 -42 -45.5 -71t-36.5 -43q-3 -2 -9.5 -1.5t-14 2t-14 3.5t-9.5 4q6 13 14.5 32t17 39t17 38t14.5 30q11 5 29.5 9.5t33.5 4.5
q10 0 13 -3z" />
    <glyph glyph-name="uni0420" unicode="&#x420;" horiz-adv-x="423" 
d="M57 634q0 6 -0.5 13.5t-0.5 15.5q9 6 26 7h3q23 2 49.5 2.5t53.5 0.5q50 0 90 -11.5t67.5 -36t42.5 -64t15 -94.5q0 -54 -16 -90.5t-40.5 -60t-53.5 -34.5t-54 -14q-8 0 -17.5 1t-17.5 5t-13 12.5t-5 23.5q0 4 4.5 7t10.5 3q18 0 37 7.5t34 25t25 46.5t10 72q0 36 -9 61
t-24 40.5t-35.5 22t-42.5 6.5h-29.5t-20.5 -2v-254v-188l1 -111q0 -25 -10 -39q-6 -7 -17 -8.5t-31 -1.5h-32q1 44 1.5 94.5t0.5 110.5z" />
    <glyph glyph-name="uni0421" unicode="&#x421;" horiz-adv-x="465" 
d="M308 677q31 0 55 -5.5t41 -13t27.5 -16t13.5 -15.5q0 -17 -4 -29.5t-10 -20.5h-4q-5 -1 -12 2t-16 7q-21 10 -47 14q-8 1 -15.5 1.5t-16.5 0.5h-10.5t-10.5 -1q-35 -3 -66 -20t-54 -51t-37 -86t-14 -124q0 -132 48 -193.5t136 -61.5q36 0 69.5 9t50.5 20q6 -11 8 -31
q-3 -29 -23 -46q-14 -12 -46 -22t-73 -10q-61 0 -109.5 16t-83 54.5t-53 101.5t-18.5 157q0 194 86 287q41 44 89 60t99 16z" />
    <glyph glyph-name="uni0422" unicode="&#x422;" horiz-adv-x="458" 
d="M272 590v-453q0 -43 0.5 -73.5t1.5 -54.5q-9 -8 -25 -10t-56 -2q-9 16 -9 43v550h-128q-23 0 -42 3q-1 4 -1 11q0 11 2.5 23t5.5 20q2 6 5.5 10t6.5 7q5 0 10.5 -0.5t13.5 -0.5q17 -1 38 -1h50h306q0 -14 -2 -27t-5 -25q-3 -11 -10.5 -15t-10.5 -5h-151z" />
    <glyph glyph-name="uni0423" unicode="&#x423;" horiz-adv-x="391" 
d="M98 660q5 0 11 -14t9 -26q4 -12 10.5 -34t14.5 -49t16.5 -56t15.5 -55q6 -23 11.5 -45.5t10 -40.5t7.5 -31t4 -16q2 5 5.5 19t8 32.5t10 41t10.5 45.5q13 57 26.5 113.5t24.5 103.5q6 5 12 7t18 2q8 0 18.5 -0.5t25.5 -1.5q5 -10 5 -21q0 -10 -5 -27q-10 -42 -24 -94
t-31 -109.5t-36.5 -117.5t-39.5 -116q-21 -53 -40.5 -88.5t-38.5 -56.5t-37 -30t-34 -9q-35 0 -53.5 10t-22.5 23q0 8 3 17q1 5 3 10q8 3 17 2.5t19 -0.5t20.5 1t22.5 6q10 5 20.5 21.5t20.5 38.5t18 47t13 47q-2 2 -3 2.5t-2 2.5q-7 10 -11 20t-9 26q-2 8 -9 30.5t-17 55
t-22 71t-25 78t-25.5 76.5t-22.5 66q5 13 21.5 18t55.5 5z" />
    <glyph glyph-name="uni0424" unicode="&#x424;" horiz-adv-x="757" 
d="M724 328q0 -122 -79.5 -183t-223.5 -67q0 -29 0.5 -45.5t0.5 -23.5q-6 -8 -25 -10t-56 -2q-9 0 -9 19v62q-144 10 -222 73t-78 183q0 63 20.5 108.5t59.5 75.5t94.5 46t125.5 20q-1 23 -1 37.5t-1 19.5q6 15 25.5 19t56.5 4q6 0 7.5 -15.5t1.5 -50.5v-14
q150 -9 226.5 -74t76.5 -182zM106 329q0 -68 54.5 -108t171.5 -48q1 38 1 77.5v81.5q0 40 -0.5 79.5t-0.5 75.5q-115 -7 -170.5 -50t-55.5 -108zM650 332q0 63 -55 104.5t-175 49.5v-152v-83.5t1 -77.5q120 7 174.5 51t54.5 107v1z" />
    <glyph glyph-name="uni0425" unicode="&#x425;" horiz-adv-x="497" 
d="M484 11q1 -2 1 -5q0 -1 -1 -1q-8 -7 -28.5 -8t-40.5 -1q-10 0 -19.5 2t-19.5 7q-14 29 -29 58t-32 61q-17 35 -35.5 72t-36.5 70q-16 -29 -35.5 -66.5t-39.5 -75.5q-18 -32 -34.5 -61.5t-28.5 -53.5q-5 -7 -10 -9t-12 -2t-21 0.5t-28 3.5q-8 1 -13 2l-10 2
q38 71 87 157.5t99 174.5q-19 38 -41.5 79.5t-44.5 82t-42 78t-35 67.5q0 3 1.5 6t6.5 5q16 3 36.5 5.5t45.5 2.5q6 -5 11 -13.5t13 -22.5q12 -21 22.5 -41t20.5 -39q17 -37 33.5 -71t32.5 -63q17 29 34.5 66t37.5 75q13 23 25 46.5t23 45.5l4 9q5 7 20 7q11 0 28 -2t38 -5
q-3 -14 -7 -27q-26 -53 -68 -127t-90 -154q66 -115 109 -195.5t73 -141.5z" />
    <glyph glyph-name="uni0426" unicode="&#x426;" horiz-adv-x="581" 
d="M561 48q1 -42 2.5 -90.5t3.5 -83.5q-1 -5 -3.5 -11t-4.5 -10q-28 4 -47 14t-20 27q-2 23 -3.5 52t-1.5 58q-13 -2 -27.5 -3t-22.5 -1h-379q1 45 1.5 96t0.5 111v447q2 2 15.5 9t27.5 7q7 0 20 -1t21 -4q-2 -37 -2 -79.5v-88.5v-93t1 -94v-235h267v525q0 20 2 31.5t7 22.5
q4 4 9 7t13.5 4t21.5 1.5t33 0.5q-1 -44 -1.5 -95t-0.5 -111v-382q68 -12 67 -31z" />
    <glyph glyph-name="uni0427" unicode="&#x427;" horiz-adv-x="452" 
d="M311 253q-8 -9 -26.5 -13t-41 -5.5t-46.5 -2t-42 -0.5q-36 0 -56 10.5t-29.5 33.5t-11 58.5t-1.5 85.5v99v138q4 4 8.5 6t13.5 3.5t23 2t37 0.5q7 -17 7 -46v-282q2 -15 13 -25t26 -10q11 0 22.5 -0.5t24.5 -0.5q24 0 46 3.5t33 14.5v284q0 16 2 28.5t8 23.5q5 4 10.5 6
t13.5 3t21 1h33q-1 -44 -1.5 -95t-0.5 -113v-344q0 -32 0.5 -54.5t1.5 -39.5q-9 -17 -28.5 -21.5t-51.5 -4.5q-5 8 -6.5 21t-1.5 45v190z" />
    <glyph glyph-name="uni0428" unicode="&#x428;" horiz-adv-x="768" 
d="M705 34q3 -4 7.5 -9.5t4.5 -7.5v-3q0 -2 -0.5 -3.5t-0.5 -2.5q-4 -2 -12.5 -3.5t-19 -2.5t-21 -1.5t-16.5 -0.5h-589q0 45 1 96t1 111v447q2 2 15.5 9t27.5 7q7 0 20 -1t21 -4q-2 -45 -2 -96.5v-108.5v-150v-236h198q1 31 1 64v69v447q2 2 15.5 9t27.5 7q7 0 20 -1t21 -4
q-2 -45 -2 -96.5v-108.5v-150v-236h198v526q0 20 2 31.5t7 22.5q4 4 9 7t13.5 4t21.5 1.5t33 0.5q-1 -44 -1.5 -95t-0.5 -111v-427v0z" />
    <glyph glyph-name="uni0429" unicode="&#x429;" horiz-adv-x="792" 
d="M773 48q1 -42 2.5 -90.5t3.5 -83.5q-1 -5 -3.5 -11t-4.5 -10q-28 4 -47 14t-20 27q-2 23 -3.5 51.5t-1.5 57.5q-13 -2 -28 -2.5t-24 -0.5h-589q0 45 1 96t1 111v447q2 2 15.5 9t27.5 7q7 0 20 -1t21 -4q-2 -45 -2 -96.5v-108.5v-150v-236h198q1 31 1 64v69v447
q2 2 15.5 9t27.5 7q7 0 20 -1t21 -4q-2 -45 -2 -96.5v-108.5v-150v-236h198v526q0 20 2 31.5t7 22.5q4 4 9 7t13.5 4t21.5 1.5t33 0.5q-1 -44 -1.5 -95t-0.5 -111v-382q69 -12 68 -31z" />
    <glyph glyph-name="uni042A" unicode="&#x42a;" horiz-adv-x="531" 
d="M338 482q34 0 64 -11.5t52 -36.5t34.5 -64.5t12.5 -94.5q0 -52 -8 -92.5t-21.5 -71t-31 -52t-36.5 -35.5q-31 -21 -66 -28.5t-65 -7.5q-41 0 -74 7t-54 20q-5 11 -7 25t-2 32v518h-80q-23 0 -42 3q-1 4 -1 11q0 11 2.5 23t5.5 20q2 6 6 10l7 7q4 0 9.5 -0.5t14.5 -0.5
q16 -1 37.5 -1h50.5h54h17h7h26q0 -14 -2 -27t-5 -25q-3 -11 -10.5 -15t-10.5 -5v-144q21 14 50.5 25t65.5 11zM282 54q21 0 43.5 9.5t40.5 33t29.5 63.5t11.5 101q0 84 -28 117.5t-77 33.5q-20 0 -41.5 -7t-38.5 -21v-318q10 -5 26 -8.5t34 -3.5z" />
    <glyph glyph-name="uni042B" unicode="&#x42b;" horiz-adv-x="626" 
d="M567 102q0 -42 1 -64t1 -30q-7 -8 -26 -10t-56 -2q-8 0 -8 19v316v213q0 82 -3 96q7 15 26.5 19t56.5 4q5 0 6.5 -15.5t1.5 -50.5q0 -60 -0.5 -129t-0.5 -135q0 -65 0.5 -124t0.5 -107zM260 482q34 0 64 -11.5t52 -37t34.5 -65t12.5 -94.5q0 -52 -8 -92t-21.5 -70.5
t-31 -52t-36.5 -35.5q-31 -21 -66 -29t-65 -8q-41 0 -74 7t-54 20q-5 12 -7 26t-2 31v469q0 32 -0.5 55t-1.5 41q8 18 28.5 22.5t51.5 4.5q5 -11 6.5 -26.5t1.5 -49.5v-142q21 15 50.5 26t65.5 11zM204 53q21 0 43.5 9.5t40.5 33t29.5 63.5t11.5 101q0 84 -28 117.5
t-77 33.5q-20 0 -41.5 -7t-38.5 -21v-317q10 -5 26 -9t34 -4z" />
    <glyph glyph-name="uni042C" unicode="&#x42c;" horiz-adv-x="453" 
d="M67 14q-5 12 -7 26t-2 31v512q0 33 -0.5 56t-1.5 41q8 17 28.5 22t51.5 5q5 -11 6.5 -26.5t1.5 -49.5v-186q21 15 50.5 26t65.5 11q34 0 64 -11.5t52 -37t34.5 -65t12.5 -94.5q0 -52 -8 -92t-21.5 -70.5t-31 -52t-36.5 -35.5q-31 -21 -66 -29t-65 -8q-41 0 -74 7t-54 20z
M144 66q10 -5 26 -9t34 -4q21 0 43.5 9.5t40.5 33t29.5 63.5t11.5 101q0 84 -28 117.5t-77 33.5q-20 0 -41.5 -7t-38.5 -21v-317z" />
    <glyph glyph-name="uni042D" unicode="&#x42d;" horiz-adv-x="607" 
d="M231 677q72 0 135 -27t110 -74t74 -110t27 -135t-27 -135t-74 -110t-110 -74t-135 -27q-33 0 -64.5 6.5t-60.5 17.5q-23 9 -36 30.5t-13 47.5q0 15 8 29q35 -27 76.5 -42t89.5 -15q52 0 96 18.5t76.5 50.5t53 76t25.5 94h-297q-18 0 -27.5 19t-7.5 46h332q-5 51 -25 95
t-53 76t-77 50.5t-96 18.5q-62 0 -115 -25q-11 -5 -22.5 -9.5t-18.5 -3.5q-8 11 -13 27.5t-5 37.5q38 23 82 35t92 12z" />
    <glyph glyph-name="uni042E" unicode="&#x42e;" horiz-adv-x="739" 
d="M457 677q64 0 111.5 -23t78.5 -66.5t46 -107t15 -143.5q0 -167 -63.5 -259.5t-193.5 -92.5q-64 0 -110.5 21.5t-76.5 62t-45.5 98.5t-18.5 130l-53 1q0 -54 0.5 -103.5t0.5 -91.5t0.5 -64t0.5 -30q-6 -8 -25 -10t-56 -2q-9 0 -9 19q0 57 0.5 140.5t0.5 175.5
q0 57 -0.5 112.5t-0.5 100.5q0 41 -0.5 65t-1.5 31q6 15 25.5 19t56.5 4q6 0 7.5 -15.5t1.5 -50.5q0 -53 -0.5 -114t-0.5 -121l53 -1q7 157 72.5 236t184.5 79zM456 59q73 0 115 66.5t42 208.5q0 71 -12 122t-33.5 83.5t-50.5 48t-63 15.5h-1q-70 0 -113 -67t-43 -212
q0 -134 44.5 -199.5t114.5 -65.5z" />
    <glyph glyph-name="uni042F" unicode="&#x42f;" horiz-adv-x="453" 
d="M-11 14q11 10 28 40.5t38.5 71t47 86t52.5 85.5q-7 4 -22.5 19.5t-32 40t-29 55.5t-12.5 65q0 95 44 139t132 49l26 1q12 1 24 0.5t25 -0.5q11 0 21.5 -0.5t21.5 -1.5q7 -1 11.5 -1.5t9.5 -1.5q17 -3 21 -6q1 -5 1 -10v-9q-1 -21 -1 -44v-50v-338q0 -60 0.5 -110t1.5 -95
q-37 0 -54.5 1t-25.5 10q-10 14 -10 38v226h-44q-5 0 -9 -0.5t-8 -1.5q-39 -45 -72 -101t-53 -101q-5 -12 -11.5 -24.5t-14.5 -23t-18.5 -18t-23.5 -8.5h-13q-18 0 -30 3q-11 2 -18.5 5.5t-2.5 9.5zM215 346q7 -3 18.5 -3.5t23.5 -0.5h29t21 1v255q-8 1 -21.5 2t-31.5 1
q-45 0 -73 -30.5t-28 -91.5q0 -60 19 -92t43 -41z" />
    <glyph glyph-name="uni0430" unicode="&#x430;" horiz-adv-x="395" 
d="M57 412q-1 3 -1 11q0 5 2 11q16 15 57 30.5t91 17.5h17t18 -1q56 -4 77 -39.5t21 -99.5v-45q0 -52 -1 -107t-1 -95q-1 -14 2 -25q2 -9 8 -16t18 -5q-1 -11 -1 -21.5v-15.5q-6 -8 -19.5 -15t-33.5 -8q-18 0 -35 12.5t-25 23.5q-5 -5 -13 -11.5t-16 -11.5q-17 -8 -35 -10.5
t-38 -2.5q-24 0 -46.5 7.5t-40 24t-28 41t-10.5 59.5q0 46 18 76t44 48t55 26t52 10q8 1 14.5 1h13.5q19 0 33 -3v57q0 34 -8 52t-40 18q-26 0 -54.5 -8.5t-50.5 -17.5q-18 -8 -29 -8q-7 8 -10 19.5t-5 20.5zM252 103q2 9 2 20.5v27.5v71q-5 1 -10 1h-10q-9 0 -17 -0.5
t-16 -1.5q-18 -3 -34 -9t-28.5 -16.5t-19.5 -26.5t-7 -40q0 -38 15 -53.5t38 -17.5h7q23 0 44.5 9t32.5 22q1 2 1.5 5.5t1.5 8.5z" />
    <glyph glyph-name="uni0432" unicode="&#x432;" horiz-adv-x="363" 
d="M275 270q10 -6 20.5 -15t19.5 -22t15 -31t6 -42q0 -80 -49 -126q-45 -40 -119 -40q-28 1 -50 2t-49 4l-10 1v459v7.5t1 8.5l1 6l6 3q7 3 22 3q8 1 30 3t49 2q71 0 108 -34q34 -31 34 -84q0 -68 -39 -99q-1 0 -1.5 -1t-2.5 -1q4 -3 8 -4zM133 286q5 1 18 1t24 1
q5 0 11 0.5t13 1.5q13 7 24 25.5t11 49.5q0 8 -1 12q-3 30 -21.5 43.5t-46.5 13.5q-6 0 -17.5 -1t-14.5 -1v-146zM170 52q35 0 59.5 25.5t24.5 81.5q0 10 -1 15q-5 39 -27.5 53t-57.5 14h-19t-16 -2v-183q4 -1 16.5 -2.5t20.5 -1.5z" />
    <glyph glyph-name="uni0450" unicode="&#x450;" horiz-adv-x="396" 
d="M238 61q-26 0 -47.5 7t-37 24t-24.5 45t-9 69q12 -1 22.5 -1h22.5q35 0 71 1.5t59 4.5q20 3 41 10t29 13q3 12 4.5 27.5t1.5 31.5q0 13 -0.5 25t-1.5 23q-7 65 -42 103t-103 38q-41 0 -76.5 -14.5t-61 -46t-40 -82t-14.5 -122.5q0 -127 53 -182q29 -29 65 -38.5t71 -9.5
q23 0 44 3.5t32 6.5q21 5 39 19t19 29q-1 9 -2.5 21t-3.5 19q-24 -13 -51.5 -18.5t-59.5 -5.5zM214 417q34 0 51 -21.5t21 -63.5q0 -5 0.5 -10.5t0.5 -11.5q0 -20 -5 -33q-5 -3 -10.5 -4t-12.5 -2q-14 -2 -42 -2.5t-57 -0.5h-38q4 73 28.5 108t54.5 40q3 1 9 1zM174 729
q5 0 18 -13.5t29 -33.5t32.5 -42.5t28.5 -39.5q1 -3 1 -8q0 -12 -10 -23.5t-21 -13.5q-11 10 -25.5 24t-30.5 30t-32.5 31.5t-29.5 29.5q-9 9 -11 12q0 7 5 15.5t12.5 15.5t16.5 11.5t17 4.5z" />
    <glyph glyph-name="uni0433" unicode="&#x433;" horiz-adv-x="370" 
d="M75 492q13 -1 25 -1.5t25 -0.5h207v-11q0 -9 -1.5 -19t-3.5 -21h-1q-2 -10 -9 -15t-14 -7h-1h-163v-311q0 -29 0.5 -51t1.5 -39v-6l-4 -3q-9 -8 -22 -9.5t-43 -1.5h-7l-3 6q-8 14 -8 36v400q0 9 2 19t5 16q2 6 5 9.5t6 6.5l3 3v0z" />
    <glyph glyph-name="uni0434" unicode="&#x434;" horiz-adv-x="486" 
d="M426 74v-155l-49 -11h1q-8 -3 -17 3q-3 3 -5.5 7.5t-2.5 9.5v72h-218v-69q0 -11 -9 -18q-8 -7 -19 -5l-46 11v155h30q33 17 42 46q30 90 30 251v111l154 17h1q24 2 41 -14q17 -15 17 -40v-371h50zM305 412q0 10 -7 16t-17 6l-47 -9v-84q0 -74 -9 -135t-26 -111
q-2 -10 -7 -18t-11 -15h124v350z" />
    <glyph glyph-name="uni0435" unicode="&#x435;" horiz-adv-x="398" 
d="M238 61q32 0 59.5 5.5t51.5 18.5q2 -7 3.5 -19t2.5 -21q-1 -15 -19 -29t-39 -19q-11 -3 -32 -6.5t-44 -3.5q-35 0 -71 9.5t-65 38.5q-53 55 -53 182q0 72 14.5 122.5t40 82t61 46t76.5 14.5q68 0 103 -38t42 -103q1 -11 1.5 -23t0.5 -25q0 -16 -1.5 -31.5t-4.5 -27.5
q-8 -6 -29 -13t-41 -10q-23 -3 -59 -4.5t-71 -1.5h-22.5t-22.5 1q0 -41 9 -69t24.5 -45t37 -24t47.5 -7zM214 417q-6 0 -9 -1q-30 -5 -54.5 -40t-28.5 -108h38q29 0 57 0.5t42 2.5q7 1 12.5 2t10.5 4q5 13 5 33q0 6 -0.5 11.5t-0.5 10.5q-4 42 -21 63.5t-51 21.5z" />
    <glyph glyph-name="uni0436" unicode="&#x436;" horiz-adv-x="530" 
d="M472 487h16h11q14 -1 20 -7t6 -12q0 -9 -6 -19t-13 -19q-10 -14 -24 -33.5t-30.5 -41t-33.5 -44.5t-33 -44q15 -16 30 -37t28.5 -43.5t26.5 -46t24 -44.5q14 -26 25.5 -46.5t18.5 -27.5l3 -3v-3q0 -8 -3.5 -11.5t-9.5 -5.5q-12 -5 -32 -5h-11q-23 2 -35.5 21.5
t-19.5 36.5q-14 31 -37.5 70.5t-50.5 71.5q-5 5 -12 13t-14 14v-119v-57l1 -35l-2 -2q-6 -8 -21 -10t-44 -2h-5l-2 4q-5 8 -6.5 17t-1.5 18v186q-7 -6 -14 -14t-12 -13q-27 -32 -50.5 -71.5t-37.5 -70.5q-4 -9 -8.5 -18.5t-11 -18t-15 -14.5t-20.5 -7h-11q-20 0 -32 5
q-6 2 -9.5 5.5t-3.5 11.5v3l3 3q7 7 18 27.5t25 46.5q12 21 24.5 44.5t26.5 46t28.5 43.5t29.5 37q-30 40 -62.5 84.5t-57.5 78.5q-8 9 -13 19q-2 5 -4.5 9.5t-2.5 9.5q0 6 6 12t21 7h11h15h17l3 -1l2 -3q25 -33 50 -69t50 -71l12 -16q5 -8 11 -16.5t12 -16.5v82
q0 29 -0.5 52t-1.5 42v4l4 3q4 4 16.5 7t47.5 3h6l2 -5q5 -8 6 -19t1 -29v-140q5 8 11.5 16.5t11.5 16.5q6 8 11 16q26 35 51 71t49 69l3 3l3 1h16z" />
    <glyph glyph-name="uni0437" unicode="&#x437;" horiz-adv-x="364" 
d="M51 431q5 10 13 17t16 12q25 14 54.5 19t58.5 3q23 -2 44.5 -10t36.5 -26q13 -15 18 -33t5 -37q-2 -32 -18 -57.5t-40 -45.5q33 -11 54.5 -37t25.5 -61q3 -28 -2.5 -56.5t-20.5 -52.5q-14 -23 -35.5 -40t-47.5 -26q-37 -14 -75 -14q-24 0 -46 6q-11 2 -22.5 7.5
t-18.5 16.5t-6.5 25t2.5 26q1 7 6.5 11t12.5 -1q8 -5 16.5 -8t16.5 -5q16 -3 33 -3q24 0 44 7q31 12 44.5 40.5t9.5 60.5q-3 20 -17.5 31.5t-33.5 16.5q-17 3 -33 3q-10 0 -19.5 -0.5t-19.5 -0.5q-2 6 -2.5 12t-2.5 12q2 9 5.5 18.5t8.5 17.5l3 1q15 6 32 14.5t30.5 21
t21 28t3.5 34.5q-3 11 -10 17t-16.5 8.5t-20 2t-19.5 -1.5q-28 -5 -50 -18q-8 -5 -16 -8t-15 7q-6 10 -7.5 21.5t-1.5 22.5z" />
    <glyph glyph-name="uni0438" unicode="&#x438;" horiz-adv-x="453" 
d="M311 484q16 7 27 7h7.5t15.5 -1t17.5 -2t13.5 -4l4 -2l1 -4q1 -2 1 -5v-5q0 -4 -8 -15v-300v-78t1 -68v-11h-11q-29 0 -41.5 2t-21.5 11q-5 7 -7 19t-2 26v168q1 54 3 99q-2 -3 -3.5 -6.5t-2.5 -5.5q-2 -3 -2 -5q-8 -17 -16 -34.5t-16 -33.5l-30 -54l-38 -67
q-17 -29 -33 -57.5t-30 -54.5l-2 -3l-4 -2q-8 -3 -19.5 -3.5t-13.5 -0.5q-11 0 -21 5t-15 8l-5 3v324q0 41 -0.5 77t-1.5 69v11h11q28 0 38.5 -1t21.5 -8l3 -2l1 -3q4 -9 6 -19t2 -24v-174q0 -21 -0.5 -44.5t-1.5 -45.5q9 20 19.5 41t21.5 42l24 43l18 32l20 36
q43 73 65 115l2 3l2 2v0z" />
    <glyph glyph-name="uni0439" unicode="&#x439;" horiz-adv-x="453" 
d="M311 484q16 7 27 7h7.5t15.5 -1t17.5 -2t13.5 -4l4 -2l1 -4q1 -2 1 -5v-5q0 -4 -8 -15v-300v-78t1 -68v-11h-11q-29 0 -41.5 2t-21.5 11q-5 7 -7 19t-2 26v168q1 54 3 99q-2 -3 -3.5 -6.5t-2.5 -5.5q-2 -3 -2 -5q-8 -17 -16 -34.5t-16 -33.5l-30 -54l-38 -67
q-17 -29 -33 -57.5t-30 -54.5l-2 -3l-4 -2q-8 -3 -19.5 -3.5t-13.5 -0.5q-11 0 -21 5t-15 8l-5 3v324q0 41 -0.5 77t-1.5 69v11h11q28 0 38.5 -1t21.5 -8l3 -2l1 -3q4 -9 6 -19t2 -24v-174q0 -21 -0.5 -44.5t-1.5 -45.5q9 20 19.5 41t21.5 42l24 43l18 32l20 36
q43 73 65 115l2 3zM228 565q-48 1 -85 27.5t-56 96.5q1 1 4.5 6t8.5 10.5t10.5 9.5t10.5 4q8 0 12 -10q17 -40 38.5 -60t56.5 -20t56 20t38 60q4 10 12 10q5 0 10.5 -4t10.5 -9.5t8.5 -10.5t4.5 -6q-19 -70 -55.5 -97t-84.5 -27z" />
    <glyph glyph-name="uni043A" unicode="&#x43a;" horiz-adv-x="358" 
d="M322 -6q-7 0 -11 1q-12 1 -21 7t-15.5 14.5t-11 18t-8.5 18.5q-14 32 -38 71.5t-51 70.5q-5 5 -10.5 11.5t-11.5 12.5v-114v-57l1 -36l-2 -3q-7 -9 -22.5 -10.5t-44.5 -1.5h-6l-3 5q-5 8 -6.5 17t-1.5 18v341q0 29 -0.5 52t-0.5 42l-1 5l4 4q5 4 18 7t48 3h7l3 -5
q5 -9 6 -20t1 -29v-134q5 8 10.5 16t10.5 14l10 14q25 35 50 71t50 69l3 3l4 1q4 1 8 1h9h15l12 -1q15 -1 21.5 -7t6.5 -14q0 -7 -7 -19q-3 -5 -6.5 -10t-6.5 -10q-25 -34 -57.5 -78t-62.5 -83q15 -16 30 -36.5t28.5 -43t26 -46t23.5 -45.5q14 -25 25.5 -45.5t18.5 -27.5
l3 -3v-5q0 -8 -4 -12t-10 -6t-15 -4t-18 -2z" />
    <glyph glyph-name="uni043B" unicode="&#x43b;" horiz-adv-x="508" 
d="M87 61q9 4 19.5 25t17.5 77q6 45 7.5 98.5t1.5 103.5q0 35 -0.5 62t-1.5 44v5l3 3q8 8 23 10t42 2h240h11v-12q-1 -25 -1.5 -55.5t-0.5 -68.5v-236q0 -34 0.5 -59t1.5 -45v-4l-3 -4q-7 -8 -22 -10t-44 -2h-8l-3 7q-6 18 -6 40v374h-147q-1 -7 -1 -22t-1 -32
q-1 -19 -1 -42q0 -61 -4.5 -120t-18 -105t-40 -74.5t-69.5 -28.5q-26 0 -44.5 8.5t-23.5 22.5v1v2q0 6 2 13.5t3 9.5l2 5l5 2q7 2 13.5 2h13.5l10 -1q5 0 12 1t12 3z" />
    <glyph glyph-name="uni043C" unicode="&#x43c;" horiz-adv-x="516" 
d="M380 77l-3 35l-4 52l-1 22l-2 18q-1 15 -1.5 33.5t-0.5 37.5l-1 25v5q-8 -26 -16 -50.5t-15 -41.5q-10 -26 -19.5 -53.5t-19.5 -54.5l-10 -27v1q-5 -18 -24 -22q-17 -3 -34 -3h-8l-2 8l-36 108l-19 55q-2 5 -7 23t-13 40l-3 12q-1 -3 -1 -6.5v-6.5v-6v-39t-2 -33
q-10 -102 -15 -164q0 -2 -0.5 -3.5t-0.5 -3.5q-2 -8 -3 -14t-4 -13l-1 -2l-2 -1q-11 -9 -30 -9q-7 0 -15 0.5t-18 2.5q-12 2 -12 12q5 71 13.5 166t17.5 193l8 93v-1q0 11 3.5 16t7.5 7q3 2 6 2t6 1q9 2 22 2.5t24 0.5h7l3 -7q9 -20 26.5 -65.5t43.5 -122.5l3 -9l2 -6t2 -7
l9 -27l4 -14q1 -4 3 -10q1 -3 2 -4q1 -4 2 -7q2 -7 3 -8q2 5 3 8.5t3 8.5l7 20q8 25 15 41l29 81q10 28 19 54t18 49q0 1 0.5 1.5t0.5 2.5q2 3 3.5 7t6.5 7l2 2h2q10 2 25.5 3.5t29.5 1.5h8l2 -8q2 -8 4 -15t3 -20q5 -65 10.5 -130.5t10.5 -132.5q6 -51 9.5 -95t5.5 -73v-4
l-2 -3q-6 -10 -22 -12.5t-46 -2.5h-6l-3 5q-5 8 -7 16t-3 19z" />
    <glyph glyph-name="uni043D" unicode="&#x43d;" horiz-adv-x="435" 
d="M299 478q6 10 22 12t45 2h11l-1 -11q0 -26 -0.5 -56.5t-0.5 -68.5v-235q0 -35 0.5 -60t0.5 -45v-4l-2 -3q-8 -8 -23 -10t-44 -2h-7l-3 7q-6 18 -6 40v180q-11 -1 -26.5 -1.5t-39.5 -0.5h-81v-169q0 -13 -2 -23.5t-10 -20.5q-7 -8 -19.5 -10t-43.5 -2h-11v11
q0 26 0.5 56.5t0.5 68.5v234q0 34 -0.5 60t-0.5 45v5l3 3q8 8 23 10t41 2h6l4 -5q5 -8 7 -19t2 -31v-142h147v138q0 29 8 45z" />
    <glyph glyph-name="uni043E" unicode="&#x43e;" horiz-adv-x="443" 
d="M414 238q0 -63 -14.5 -110t-40.5 -78.5t-61 -47.5t-77 -16q-93 0 -143 58t-50 188q0 64 14.5 111.5t40.5 78t62 45.5t79 15q190 0 190 -244zM121 236q0 -52 7.5 -87.5t21 -57t32.5 -31t41 -9.5q20 0 38 9.5t31.5 31t21.5 56.5t8 87q0 98 -27 139t-72 41h-2
q-20 0 -38 -9.5t-32 -31t-22 -55.5t-8 -83z" />
    <glyph glyph-name="uni043F" unicode="&#x43f;" horiz-adv-x="452" 
d="M132 13q-8 -12 -21.5 -14t-41.5 -2h-11v11q1 32 1.5 68t0.5 78v300q-9 10 -9 16v4t1 5l1 4l4 2q4 3 13 4.5t18 2t16 1t8 0.5h268h11v-11v-30.5t-1 -32.5q0 -20 -0.5 -40.5t-0.5 -43.5v-318v-6l-4 -3q-6 -4 -16 -8.5t-21 -4.5q-2 0 -13.5 0.5t-19.5 3.5l-7 3v8
q1 32 1 68.5v76.5v263h-168v-362q0 -14 -1.5 -24.5t-7.5 -18.5z" />
    <glyph glyph-name="uni0440" unicode="&#x440;" horiz-adv-x="458" 
d="M144 -197q-5 -4 -19.5 -6.5t-31.5 -2.5q-18 0 -31 3q-2 13 -2.5 37.5t-0.5 62.5v467q0 24 -3 42t-8 33q3 5 13 10l26 13q2 0 3 0.5t2 0.5h2q14 0 21.5 -8.5t10.5 -21.5q18 15 35 24.5t34 14.5q16 5 29.5 8t30.5 3q36 0 67 -12t54.5 -38t37 -67t13.5 -99q0 -95 -24.5 -154
t-62.5 -90q-27 -22 -54.5 -29.5t-50.5 -7.5q-29 0 -52.5 8t-36.5 18v-166v-22.5t-2 -20.5zM220 53q17 0 37 9t37 32t28 63.5t11 102.5q0 81 -25.5 115.5t-73.5 34.5q-26 0 -49 -12.5t-39 -26.5v-286q11 -14 31 -23t43 -9z" />
    <glyph glyph-name="uni0441" unicode="&#x441;" horiz-adv-x="368" 
d="M349 442q0 -10 -3.5 -24t-9.5 -25h-5q-5 0 -12 2t-15 4q-29 13 -60 13q-9 0 -14 -1q-47 -4 -77.5 -47t-30.5 -133q0 -54 11 -88t29 -53t41 -26t47 -7q25 0 47.5 5.5t38.5 13.5q2 -8 4 -15.5t2 -12.5q-1 -11 -7 -22t-15 -18q-14 -10 -37.5 -16t-50.5 -6q-41 0 -77 9.5
t-63.5 35.5t-43.5 73t-16 122q0 80 22 130t51 77q29 28 65 38.5t72 10.5q22 0 41 -4.5t33 -10.5t22.5 -13t10.5 -12z" />
    <glyph glyph-name="uni0442" unicode="&#x442;" horiz-adv-x="364" 
d="M316 419h-98v-311q0 -29 0.5 -51t1.5 -39v-6l-4 -3q-9 -8 -22 -9.5t-43 -1.5h-6l-3 6q-8 12 -8 36v379h-80q-8 0 -16 0.5t-15 1.5l-8 1l-1 7q-1 5 -1 11q0 9 2 19t4 15q2 6 5.5 10t5.5 6l3 3h22q13 0 27.5 -0.5t34.5 -0.5h228v-11q0 -9 -1 -18.5t-4 -20.5q-5 -20 -24 -23
z" />
    <glyph glyph-name="uni0443" unicode="&#x443;" horiz-adv-x="391" 
d="M98 475q5 0 11 -14t9 -26q4 -12 10.5 -34t14.5 -49t16.5 -56t15.5 -55q6 -23 11.5 -45.5t10 -40.5t7.5 -31t4 -16q2 5 5.5 19t8 32.5t10 41t10.5 45.5q13 57 26.5 113.5t24.5 103.5q6 5 12 7t18 2q8 0 18.5 -0.5t25.5 -1.5q5 -10 5 -21q0 -10 -5 -27q-10 -42 -24 -94
t-31 -109.5t-36.5 -117.5t-39.5 -116q-21 -53 -40.5 -88.5t-38.5 -56.5t-37 -30t-34 -9q-35 0 -53.5 10t-22.5 23q0 8 3 17q1 5 3 10q8 3 17 2.5t19 -0.5t20.5 1t22.5 6q10 5 20.5 21.5t20.5 38.5t18 47t13 47q-2 2 -3 2.5t-2 2.5q-7 10 -11 20t-9 26q-2 7 -9 30t-17 55.5
t-22 71t-25 78t-25.5 76.5t-22.5 66q5 13 21.5 18t55.5 5z" />
    <glyph glyph-name="uni0444" unicode="&#x444;" horiz-adv-x="711" 
d="M314 324q-17 20 -40.5 37.5t-47.5 26.5q-15 6 -29 6q-33 0 -51.5 -34.5t-18.5 -101.5q0 -62 11 -101.5t28 -61t37 -27.5t37 0q21 7 39.5 18.5t33.5 24.5zM400 41v-89q0 -27 1 -57q0 -38 -0.5 -62.5t-2.5 -37.5q-14 -3 -31 -3t-31.5 2.5t-19.5 6.5q-2 10 -2 20.5v22.5v87
v53.5t-1 56.5q-13 -14 -36 -29.5t-52 -20.5q-23 -4 -50.5 2t-54.5 28q-38 31 -62.5 90t-24.5 154q0 58 13.5 98.5t36.5 66.5t55 38.5t67 5.5q34 -7 62 -26.5t46 -48.5v55.5t-0.5 55t-1 44t-0.5 22.5q6 18 25 23.5t56 5.5q6 1 7.5 -16t1.5 -55v-31t-0.5 -43t-0.5 -40v-21
q18 29 46 48.5t62 26.5q35 7 67 -5.5t55 -38.5t36.5 -66.5t13.5 -98.5q0 -95 -24.5 -154t-62.5 -90q-27 -22 -54.5 -28t-50.5 -2q-29 5 -52 20.5t-36 29.5zM400 111q15 -13 34 -24.5t40 -18.5q17 -6 36.5 0t36.5 27.5t28 61t11 101.5q0 67 -18.5 101.5t-51.5 34.5
q-14 0 -29 -6q-23 -9 -46.5 -26.5t-41.5 -37.5z" />
    <glyph glyph-name="uni0445" unicode="&#x445;" horiz-adv-x="421" 
d="M410 4q-8 -3 -23.5 -4.5t-32.5 -2.5q-19 0 -47 7q-8 13 -17 27.5t-19 31.5q-16 27 -34 59.5t-32 58.5l-42 -77t-56 -92q-5 -11 -14 -13t-32 -2q-11 0 -23 0.5t-23 2.5l9 24q31 50 66 105t72 114q-14 24 -31 52t-34.5 56.5t-34 55t-28.5 46.5l-3 9q5 3 21.5 8t30.5 5h33
q9 -8 18.5 -23.5t22.5 -36.5q14 -25 31 -55t31 -53q11 19 24.5 44t27.5 48q9 15 18 29t18 29q7 10 12.5 13.5t21.5 3.5q11 0 27 -2t31 -5q-3 -6 -5.5 -12.5t-5.5 -12.5q-29 -43 -61.5 -93.5t-63.5 -98.5q34 -57 70.5 -117t71.5 -117l5 -12v0z" />
    <glyph glyph-name="uni0446" unicode="&#x446;" horiz-adv-x="455" 
d="M363 2q-8 -1 -14.5 -1.5t-10.5 -0.5h-280v11q1 33 1.5 69.5t0.5 77.5v324l4 3q5 3 15.5 8t21.5 5q2 0 13.5 -0.5t19.5 -3.5l7 -3v-8q-1 -26 -1 -56v-63v-133v-155h168v361q0 12 1 25t8 21q9 9 21.5 11t41.5 2h11v-11q-1 -32 -1.5 -68t-0.5 -78v-262q19 -4 33.5 -10.5
t14.5 -21.5q1 -22 2.5 -53.5t1.5 -71.5q0 -5 -2.5 -10.5t-4.5 -8.5l-4 -6l-7 1q-36 5 -46 17.5t-11 21.5q-1 17 -1.5 33.5t-1.5 33.5z" />
    <glyph glyph-name="uni0447" unicode="&#x447;" horiz-adv-x="375" 
d="M321 27q0 -4 -1 -6q-9 -17 -27 -20.5t-39 -3.5h-7l-3 6q-4 8 -5.5 18.5t-1.5 33.5v116q-14 -5 -36 -6t-48 -1h-16q-55 0 -71 38q-7 18 -8 44.5t-1 61.5v173l3 3q8 8 21 10t45 2h7l3 -7q6 -14 6 -37v-199q1 -6 5.5 -10.5t11.5 -4.5h15h18q34 0 45 7v196q0 12 3 26.5
t8 19.5q10 7 21.5 8t41.5 1h11l-1 -11q0 -32 -0.5 -68t-0.5 -80v-244q0 -23 0.5 -38.5t0.5 -27.5z" />
    <glyph glyph-name="uni0448" unicode="&#x448;" horiz-adv-x="602" 
d="M466 483q8 10 22 11.5t41 1.5h12l-1 -11q0 -32 -0.5 -68t-0.5 -78v-300q5 -6 6.5 -9t1.5 -7v-4t-1 -5l-1 -4l-4 -2q-4 -3 -12.5 -4.5t-17.5 -2.5t-16 -1h-8h-429v11v63q1 20 1 40.5v43.5v324l5 3q5 3 15 8t22 5q2 0 13.5 -0.5t19.5 -3.5l7 -3v-8q-2 -32 -2 -68.5v-76.5
v-263h119q1 20 1 40.5v42.5v324l5 3q4 3 14.5 8t21.5 5q2 0 13.5 -0.5t19.5 -3.5l7 -3v-8q-1 -32 -1 -68.5v-76.5v-263h118v362q0 14 2 27t7 19z" />
    <glyph glyph-name="uni0449" unicode="&#x449;" horiz-adv-x="604" 
d="M513 1q-8 -1 -14.5 -1h-11.5h-429v11v63q1 20 1 40.5v43.5v323l5 3q5 3 15 8t22 5q2 0 13.5 -0.5t19.5 -3.5l7 -3v-7q-2 -32 -2 -68.5v-77.5v-263h119q1 20 1 40.5v43.5v323l5 3q5 3 15 8t21 5q2 0 13.5 -0.5t19.5 -3.5l7 -3v-7q-1 -32 -1 -68.5v-77.5v-263h118v363
q0 12 2 25.5t7 19.5q8 10 22 11.5t42 1.5h11l-1 -11q0 -32 -0.5 -67.5t-0.5 -78.5v-262q19 -4 33.5 -10t14.5 -20q0 -23 1 -53.5t3 -70.5q0 -10 -10 -27l-8 1q-18 2 -29 7t-17 10.5t-8.5 11t-2.5 10.5q0 17 -1 33t-2 33z" />
    <glyph glyph-name="uni044A" unicode="&#x44a;" horiz-adv-x="419" 
d="M316 15q-21 -15 -47 -21.5t-52 -6.5q-31 0 -55.5 5.5t-41.5 15.5l-3 2l-1 3q-4 8 -6 18.5t-2 26.5v357h-45h-16.5t-15.5 2l-7 1l-2 7q-1 4 -1 10q0 9 2 19t5 16q2 5 5 9t5 6q2 1 2.5 2t1.5 2q19 -1 40.5 -1.5t43.5 0.5h85v-11q0 -18 -4.5 -36t-15.5 -23v-76q14 8 32 13
t40 5q58 0 90 -38q36 -42 36 -120q0 -41 -6.5 -72t-17 -53.5t-23.5 -37.5t-26 -24zM234 45q15 0 29 6.5t25 23.5t17.5 45t6.5 72q0 60 -14.5 83.5t-49.5 23.5q-14 0 -29.5 -5t-27.5 -15v-226q16 -8 43 -8z" />
    <glyph glyph-name="uni044B" unicode="&#x44b;" horiz-adv-x="499" 
d="M212 361q29 0 51.5 -10t39.5 -28q36 -42 36 -121q0 -41 -7 -71.5t-17.5 -53t-23.5 -37.5t-25 -24q-22 -14 -48 -21.5t-52 -7.5q-30 0 -55 5.5t-42 15.5l-2 2l-2 3q-7 17 -7 45v333q0 23 -0.5 38.5t-1.5 29.5v2l1 2q8 19 28.5 22.5t38.5 3.5h7l3 -7q4 -8 5.5 -20.5
t1.5 -37.5v-81q17 8 34.5 13t36.5 5zM183 45q15 0 29.5 7t25 23.5t17 45t6.5 71.5q0 60 -14 83.5t-49 23.5q-15 0 -30.5 -4.5t-26.5 -15.5v-225q7 -4 18 -6.5t24 -2.5zM443 9l-3 -3q-8 -8 -23 -10t-44 -2q-5 0 -10.5 4t-5.5 20v376q0 39 -1 51.5t-1 14.5l-1 3l2 3
q7 17 25 20t44 3q10 0 12 -8.5t3 -12.5q1 -6 1 -15v-22v-89l-1 -98l1 -94v-70q0 -20 0.5 -34t0.5 -22v-11z" />
    <glyph glyph-name="uni044C" unicode="&#x44c;" horiz-adv-x="369" 
d="M212 361q29 0 51.5 -10t39.5 -28q36 -42 36 -121q0 -41 -7 -71.5t-17.5 -53t-23.5 -37.5t-25 -24q-22 -14 -48 -21.5t-52 -7.5q-30 0 -55 5.5t-42 15.5l-2 2l-2 3q-7 17 -7 45v333q0 23 -0.5 38.5t-1.5 29.5v2l1 2q8 19 28.5 22.5t38.5 3.5h7l3 -7q4 -8 5.5 -20.5
t1.5 -37.5v-81q17 8 34.5 13t36.5 5zM183 45q15 0 29.5 7t25 23.5t17 45t6.5 71.5q0 60 -14 83.5t-49 23.5q-15 0 -30.5 -4.5t-26.5 -15.5v-225q7 -4 18 -6.5t24 -2.5z" />
    <glyph glyph-name="uni044D" unicode="&#x44d;" horiz-adv-x="478" 
d="M62 463q59 35 129 35q52 0 98.5 -19.5t83.5 -55.5q36 -36 55.5 -83t19.5 -99q0 -53 -20 -99.5t-55 -81.5t-82 -55t-100 -20q-46 0 -92 17q-20 8 -31 25.5t-11 40.5q0 15 7 26l6 11l10 -8q49 -38 111 -38q32 0 59.5 10.5t49.5 30t36.5 47t20.5 60.5h-198q-12 0 -24 10
q-13 15 -13 40q0 5 1 8l1 10h233q-11 66 -56 107t-110 41q-42 0 -77 -16q-24 -11 -35 -10h-5l-2 4q-15 19 -15 53v6l5 3v0z" />
    <glyph glyph-name="uni044E" unicode="&#x44e;" horiz-adv-x="573" 
d="M352 499q33 0 66.5 -10t61 -38t45 -77.5t17.5 -127.5q0 -124 -48 -190q-50 -71 -146 -71q-94 0 -141 64q-43 56 -47 158h-8.5t-8.5 1v-40q0 -13 1 -28v-60v-34t1 -22v-14l-3 -3q-7 -8 -21.5 -10.5t-44.5 -2.5q-5 0 -11 4t-6 20v86l1 139l-1 84v67q0 29 -0.5 45.5
t-0.5 21.5l-1 3l1 2q7 17 25 20t44 3q13 0 16 -20q1 -7 1 -16v-21v-78q-1 -17 -1 -33v-46h17q6 107 53 163q50 61 139 61zM352 49q52 0 81.5 47t29.5 148q0 100 -32.5 145.5t-80.5 45.5q-50 0 -80.5 -47.5t-30.5 -150.5q0 -96 31.5 -142t81.5 -46z" />
    <glyph glyph-name="uni0453" unicode="&#x453;" horiz-adv-x="370" 
d="M75 492q13 -1 25 -1.5t25 -0.5h207v-11q0 -9 -1.5 -19t-3.5 -21h-1q-2 -10 -9 -15t-14 -7h-1h-163v-311q0 -29 0.5 -51t1.5 -39v-6l-4 -3q-9 -8 -22 -9.5t-43 -1.5h-7l-3 6q-8 14 -8 36v400q0 9 2 19t5 16q2 6 5 9.5t6 6.5zM291 721q7 -2 4.5 -12t-9.5 -24l-5 -8
q-23 -42 -45.5 -71t-36.5 -43q-3 -2 -9.5 -1.5t-14 2t-14 3.5t-9.5 4q6 13 14.5 32t17 39t17 38t14.5 30q11 5 29.5 9.5t33.5 4.5q10 0 13 -3z" />
    <glyph glyph-name="glyph316" horiz-adv-x="370" 
d="M291 721q7 -2 4.5 -12t-9.5 -24l-5 -8q-23 -42 -45.5 -71t-36.5 -43q-3 -2 -9.5 -1.5t-14 2t-14 3.5t-9.5 4q6 13 14.5 32t17 39t17 38t14.5 30q11 5 29.5 9.5t33.5 4.5q10 0 13 -3z" />
    <glyph glyph-name="uni0455" unicode="&#x455;" horiz-adv-x="314" 
d="M228 418q-5 2 -18.5 6.5t-32.5 4.5q-8 0 -18 -1.5t-18.5 -6.5t-14.5 -14.5t-6 -24.5v-9q2 -10 7.5 -20t16.5 -22t24 -24.5t27 -26.5l3 -2l3 -3q11 -11 21 -20t19 -19q24 -25 34.5 -50.5t10.5 -58.5q0 -64 -38 -102q-39 -39 -109 -39q-38 0 -63 9t-36 19q-12 11 -12 24
q0 11 4.5 24.5t10.5 22.5l7 11l9 -9q14 -12 34.5 -18.5t43.5 -6.5q29 0 45 15.5t16 44.5q0 20 -9 36.5t-33 38.5v1h-1q-9 12 -26 27l-9 10l-9 8q-14 13 -25 24t-20 23q-33 42 -33 88q0 52 32 84q36 38 106 38q42 0 68 -11t34 -23l1 -3v-3q0 -21 -12 -40l-1 -1l-2 -2
q-8 -4 -14 -4q-9 0 -17 5z" />
    <glyph glyph-name="quotedbl" unicode="&#x22;" horiz-adv-x="293" 
d="M94 520q-2 -2 -8 -4.5t-14 -4t-15.5 -2.5t-11.5 -1q0 13 -2 42t-4.5 61.5t-4 61t-1.5 40.5q9 5 25.5 9t31.5 4q8 0 14 -2q8 -2 10.5 -12.5t2.5 -24.5v-8q-1 -21 -3.5 -46t-5.5 -48t-7 -40.5t-7 -24.5zM238 520q-2 -2 -8 -4.5t-14 -4t-15.5 -2.5t-11.5 -1q0 13 -2 42
t-4.5 61.5t-4 61t-1.5 40.5q9 5 25.5 9t31.5 4q8 0 14 -2q8 -2 10.5 -12.5t2.5 -24.5v-8q-1 -21 -3.5 -46t-5.5 -48t-7 -40.5t-7 -24.5z" />
    <glyph glyph-name="exclam" unicode="!" horiz-adv-x="193" 
d="M64 205q-2 37 -4 92.5t-4.5 115.5t-5 118.5t-3.5 100.5q1 14 26.5 19t69.5 5q5 -11 7.5 -25t2.5 -34q-1 -32 -3 -80.5t-5 -100t-6 -98.5t-4 -76q-2 -21 -23.5 -29t-47.5 -8zM99 105q30 0 38.5 -13.5t7.5 -40.5q-1 -26 -11 -43t-41 -17q-26 0 -36.5 14t-10.5 44
q0 56 53 56z" />
    </font>
</defs>
</svg>
